G04 Layer_Color=65535*
%FSLAX45Y45*%
%MOMM*%
%TF.FileFunction,Legend,Top*%
%TF.Part,Single*%
G01*
G75*
%TA.AperFunction,NonConductor*%
%ADD60C,0.10000*%
%ADD61C,0.20000*%
%ADD62C,1.01600*%
%ADD63C,0.12700*%
%ADD64C,0.25400*%
D60*
X6241400Y6778800D02*
G03*
X6231400Y6778800I-5000J0D01*
G01*
D02*
G03*
X6241400Y6778800I5000J0D01*
G01*
X5733400Y6778600D02*
G03*
X5723400Y6778600I-5000J0D01*
G01*
D02*
G03*
X5733400Y6778600I5000J0D01*
G01*
X5225400Y6778800D02*
G03*
X5215400Y6778800I-5000J0D01*
G01*
D02*
G03*
X5225400Y6778800I5000J0D01*
G01*
X4717400D02*
G03*
X4707400Y6778800I-5000J0D01*
G01*
D02*
G03*
X4717400Y6778800I5000J0D01*
G01*
X4196700Y6778600D02*
G03*
X4186700Y6778600I-5000J0D01*
G01*
D02*
G03*
X4196700Y6778600I5000J0D01*
G01*
X6081400Y6690800D02*
X6161400D01*
X5971400Y6466800D02*
Y6578800D01*
Y6466800D02*
X6041400D01*
X6201400D02*
X6271400D01*
Y6578800D01*
X5573400Y6690600D02*
X5653400D01*
X5463400Y6466600D02*
Y6578600D01*
Y6466600D02*
X5533400D01*
X5693400D02*
X5763400D01*
Y6578600D01*
X5065400Y6690800D02*
X5145400D01*
X4955400Y6466800D02*
Y6578800D01*
Y6466800D02*
X5025400D01*
X5185400D02*
X5255400D01*
Y6578800D01*
X4557400Y6690800D02*
X4637400D01*
X4447400Y6466800D02*
Y6578800D01*
Y6466800D02*
X4517400D01*
X4677400D02*
X4747400D01*
Y6578800D01*
X4036700Y6690600D02*
X4116700D01*
X3926700Y6466600D02*
Y6578600D01*
Y6466600D02*
X3996700D01*
X4156700D02*
X4226700D01*
Y6578600D01*
X3929700Y3474700D02*
X6255700D01*
Y2646700D02*
Y3474700D01*
X3929700Y2646700D02*
X6255700D01*
X3929700D02*
Y3474700D01*
X3930700Y2760700D02*
X4030700Y2646700D01*
X6130700D02*
X6255700Y2760700D01*
X6495100Y3474700D02*
X8821100D01*
Y2646700D02*
Y3474700D01*
X6495100Y2646700D02*
X8821100D01*
X6495100D02*
Y3474700D01*
X6496100Y2760700D02*
X6596100Y2646700D01*
X8696100D02*
X8821100Y2760700D01*
X9073200Y3474700D02*
X11399200D01*
Y2646700D02*
Y3474700D01*
X9073200Y2646700D02*
X11399200D01*
X9073200D02*
Y3474700D01*
X9074200Y2760700D02*
X9174200Y2646700D01*
X11274200D02*
X11399200Y2760700D01*
X11638600Y3474700D02*
X13964600D01*
Y2646700D02*
Y3474700D01*
X11638600Y2646700D02*
X13964600D01*
X11638600D02*
Y3474700D01*
X11639600Y2760700D02*
X11739600Y2646700D01*
X13839600D02*
X13964600Y2760700D01*
X14216701Y3474700D02*
X16542700D01*
Y2646700D02*
Y3474700D01*
X14216701Y2646700D02*
X16542700D01*
X14216701D02*
Y3474700D01*
X14217700Y2760700D02*
X14317700Y2646700D01*
X16417700D02*
X16542700Y2760700D01*
D61*
X4320700Y3530700D02*
G03*
X4330700Y3530700I5000J0D01*
G01*
D02*
G03*
X4320700Y3530700I-5000J0D01*
G01*
D02*
G03*
X4330700Y3530700I5000J0D01*
G01*
X6886100D02*
G03*
X6896100Y3530700I5000J0D01*
G01*
D02*
G03*
X6886100Y3530700I-5000J0D01*
G01*
D02*
G03*
X6896100Y3530700I5000J0D01*
G01*
X9464200D02*
G03*
X9474200Y3530700I5000J0D01*
G01*
D02*
G03*
X9464200Y3530700I-5000J0D01*
G01*
D02*
G03*
X9474200Y3530700I5000J0D01*
G01*
X12029600D02*
G03*
X12039600Y3530700I5000J0D01*
G01*
D02*
G03*
X12029600Y3530700I-5000J0D01*
G01*
D02*
G03*
X12039600Y3530700I5000J0D01*
G01*
X14607700D02*
G03*
X14617700Y3530700I5000J0D01*
G01*
D02*
G03*
X14607700Y3530700I-5000J0D01*
G01*
D02*
G03*
X14617700Y3530700I5000J0D01*
G01*
X5038349Y5264599D02*
G03*
X5388889Y5288933I168652J107501D01*
G01*
Y5455267D02*
G03*
X5038349Y5479601I-181888J-83167D01*
G01*
X15312650Y5277299D02*
G03*
X15663190Y5301633I168652J107501D01*
G01*
Y5467967D02*
G03*
X15312650Y5492301I-181888J-83167D01*
G01*
X7556949Y5289999D02*
G03*
X7907489Y5314333I168652J107501D01*
G01*
Y5480667D02*
G03*
X7556949Y5505001I-181888J-83167D01*
G01*
X10122349Y5289999D02*
G03*
X10472889Y5314333I168652J107501D01*
G01*
Y5480667D02*
G03*
X10122349Y5505001I-181888J-83167D01*
G01*
X12721849Y5289999D02*
G03*
X13072389Y5314333I168652J107501D01*
G01*
Y5480667D02*
G03*
X12721849Y5505001I-181888J-83167D01*
G01*
X10714200Y6638300D02*
X10774200D01*
X5373600Y4247800D02*
Y4362800D01*
X5067400Y4212800D02*
X5359800D01*
X5067400Y4137800D02*
Y4212800D01*
Y4137800D02*
X5359800D01*
Y4212800D01*
X7900400Y4253800D02*
Y4368800D01*
X7594200Y4218800D02*
X7886600D01*
X7594200Y4143800D02*
Y4218800D01*
Y4143800D02*
X7886600D01*
Y4218800D01*
X10453600Y4279200D02*
Y4394200D01*
X10147400Y4244200D02*
X10439800D01*
X10147400Y4169200D02*
Y4244200D01*
Y4169200D02*
X10439800D01*
Y4244200D01*
X8629400Y6983800D02*
X8693400D01*
X7027800Y7586600D02*
X7797800D01*
X7027800Y6596600D02*
Y7586600D01*
Y6596600D02*
X8067800D01*
Y7086600D01*
X6375400Y7023100D02*
Y7277100D01*
X3835400Y7023100D02*
X6375400D01*
X3835400D02*
Y7277100D01*
X4025900D01*
X6375400D01*
X15379700Y6383400D02*
X16149699D01*
Y7373400D01*
X15109700D02*
X16149699D01*
X15109700Y6883400D02*
Y7373400D01*
X13044400Y4266500D02*
Y4381500D01*
X12738200Y4231500D02*
X13030600D01*
X12738200Y4156500D02*
Y4231500D01*
Y4156500D02*
X13030600D01*
Y4231500D01*
X15635201Y4266500D02*
Y4381500D01*
X15328999Y4231500D02*
X15621400D01*
X15328999Y4156500D02*
Y4231500D01*
Y4156500D02*
X15621400D01*
Y4231500D01*
X10527900Y7198500D02*
X10670400D01*
X11057100Y6651000D02*
X11117100D01*
X11400800Y6955000D02*
Y7015000D01*
X11842500Y6488500D02*
X11906500D01*
D62*
X12153900Y5765800D02*
G03*
X12153900Y5765800I-12700J0D01*
G01*
X6997700Y5753100D02*
G03*
X6997700Y5753100I-12700J0D01*
G01*
X9563100Y5765800D02*
G03*
X9563100Y5765800I-12700J0D01*
G01*
X14744701Y5740400D02*
G03*
X14744701Y5740400I-12700J0D01*
G01*
X4457700Y5727700D02*
G03*
X4457700Y5727700I-12700J0D01*
G01*
D63*
X9404400Y6899300D02*
X9604400Y6699300D01*
X9404400Y7299300D02*
X9604400Y7499300D01*
X10004400D02*
X10204400Y7299300D01*
X10004400Y6699300D02*
X10204400Y6899300D01*
D64*
X12204700Y3733800D02*
Y5689600D01*
Y3733800D02*
X13589000D01*
X13601700Y3746500D01*
Y5689600D01*
X12204700D02*
X13601700D01*
X7048500Y3721100D02*
Y5676900D01*
Y3721100D02*
X8432800D01*
X8445500Y3733800D01*
Y5676900D01*
X7048500D02*
X8445500D01*
X9613900Y3733800D02*
Y5689600D01*
Y3733800D02*
X10998200D01*
X11010900Y3746500D01*
Y5689600D01*
X9613900D02*
X11010900D01*
X14795500Y3708400D02*
Y5664200D01*
Y3708400D02*
X16179800D01*
X16192500Y3721100D01*
Y5664200D01*
X14795500D02*
X16192500D01*
X4508500Y3695700D02*
Y5651500D01*
Y3695700D02*
X5892800D01*
X5905500Y3708400D01*
Y5651500D01*
X4508500D02*
X5905500D01*
X12086400Y7213400D02*
X14376401D01*
X12086400Y6553400D02*
X14376401D01*
X12086400Y7068600D02*
Y7213400D01*
Y6553400D02*
Y6699700D01*
X14376401Y6553400D02*
Y6699700D01*
Y7068600D02*
Y7213400D01*
X10434287Y7711399D02*
X10408895Y7736791D01*
X10358112D01*
X10332720Y7711399D01*
Y7609832D01*
X10358112Y7584440D01*
X10408895D01*
X10434287Y7609832D01*
X10485071Y7584440D02*
X10535854D01*
X10510463D01*
Y7736791D01*
X10485071Y7711399D01*
X10998159Y6311933D02*
X11023551Y6337325D01*
Y6388108D01*
X10998159Y6413500D01*
X10896592D01*
X10871200Y6388108D01*
Y6337325D01*
X10896592Y6311933D01*
X10998159Y6261149D02*
X11023551Y6235757D01*
Y6184974D01*
X10998159Y6159582D01*
X10972767D01*
X10947375Y6184974D01*
Y6210366D01*
Y6184974D01*
X10921983Y6159582D01*
X10896592D01*
X10871200Y6184974D01*
Y6235757D01*
X10896592Y6261149D01*
X10579059Y6299233D02*
X10604451Y6324625D01*
Y6375408D01*
X10579059Y6400800D01*
X10477492D01*
X10452100Y6375408D01*
Y6324625D01*
X10477492Y6299233D01*
X10452100Y6172274D02*
X10604451D01*
X10528275Y6248449D01*
Y6146882D01*
X10337751Y6642100D02*
X10185400D01*
Y6540533D01*
Y6489749D02*
Y6438966D01*
Y6464357D01*
X10337751D01*
X10312359Y6489749D01*
X10668000Y6400800D02*
X10820351D01*
Y6324625D01*
X10794959Y6299233D01*
X10744175D01*
X10718783Y6324625D01*
Y6400800D01*
Y6350017D02*
X10668000Y6299233D01*
X10794959Y6248449D02*
X10820351Y6223057D01*
Y6172274D01*
X10794959Y6146882D01*
X10769567D01*
X10744175Y6172274D01*
Y6197666D01*
Y6172274D01*
X10718783Y6146882D01*
X10693392D01*
X10668000Y6172274D01*
Y6223057D01*
X10693392Y6248449D01*
X12420600Y7556451D02*
Y7429492D01*
X12445992Y7404100D01*
X12496775D01*
X12522167Y7429492D01*
Y7556451D01*
X12572951Y7404100D02*
X12623734D01*
X12598343D01*
Y7556451D01*
X12572951Y7531059D01*
X11747459Y6667533D02*
X11772851Y6692925D01*
Y6743708D01*
X11747459Y6769100D01*
X11645892D01*
X11620500Y6743708D01*
Y6692925D01*
X11645892Y6667533D01*
X11620500Y6515182D02*
Y6616749D01*
X11722067Y6515182D01*
X11747459D01*
X11772851Y6540574D01*
Y6591357D01*
X11747459Y6616749D01*
Y7327933D02*
X11772851Y7353325D01*
Y7404108D01*
X11747459Y7429500D01*
X11645892D01*
X11620500Y7404108D01*
Y7353325D01*
X11645892Y7327933D01*
X11772851Y7175582D02*
Y7277149D01*
X11696675D01*
X11722067Y7226366D01*
Y7200974D01*
X11696675Y7175582D01*
X11645892D01*
X11620500Y7200974D01*
Y7251757D01*
X11645892Y7277149D01*
X4927567Y5067259D02*
X4902175Y5092651D01*
X4851392D01*
X4826000Y5067259D01*
Y4965692D01*
X4851392Y4940300D01*
X4902175D01*
X4927567Y4965692D01*
X5079918Y5092651D02*
X5029134Y5067259D01*
X4978351Y5016475D01*
Y4965692D01*
X5003743Y4940300D01*
X5054526D01*
X5079918Y4965692D01*
Y4991083D01*
X5054526Y5016475D01*
X4978351D01*
X5473667Y5067259D02*
X5448275Y5092651D01*
X5397492D01*
X5372100Y5067259D01*
Y4965692D01*
X5397492Y4940300D01*
X5448275D01*
X5473667Y4965692D01*
X5524451Y5092651D02*
X5626018D01*
Y5067259D01*
X5524451Y4965692D01*
Y4940300D01*
X7442167Y5118059D02*
X7416775Y5143451D01*
X7365992D01*
X7340600Y5118059D01*
Y5016492D01*
X7365992Y4991100D01*
X7416775D01*
X7442167Y5016492D01*
X7492951Y5118059D02*
X7518343Y5143451D01*
X7569126D01*
X7594518Y5118059D01*
Y5092667D01*
X7569126Y5067275D01*
X7594518Y5041883D01*
Y5016492D01*
X7569126Y4991100D01*
X7518343D01*
X7492951Y5016492D01*
Y5041883D01*
X7518343Y5067275D01*
X7492951Y5092667D01*
Y5118059D01*
X7518343Y5067275D02*
X7569126D01*
X7988267Y5118059D02*
X7962875Y5143451D01*
X7912092D01*
X7886700Y5118059D01*
Y5016492D01*
X7912092Y4991100D01*
X7962875D01*
X7988267Y5016492D01*
X8039051D02*
X8064443Y4991100D01*
X8115226D01*
X8140618Y5016492D01*
Y5118059D01*
X8115226Y5143451D01*
X8064443D01*
X8039051Y5118059D01*
Y5092667D01*
X8064443Y5067275D01*
X8140618D01*
X10020267Y5092659D02*
X9994875Y5118051D01*
X9944092D01*
X9918700Y5092659D01*
Y4991092D01*
X9944092Y4965700D01*
X9994875D01*
X10020267Y4991092D01*
X10071051Y4965700D02*
X10121834D01*
X10096443D01*
Y5118051D01*
X10071051Y5092659D01*
X10198010D02*
X10223401Y5118051D01*
X10274185D01*
X10299577Y5092659D01*
Y4991092D01*
X10274185Y4965700D01*
X10223401D01*
X10198010Y4991092D01*
Y5092659D01*
X10528267D02*
X10502875Y5118051D01*
X10452092D01*
X10426700Y5092659D01*
Y4991092D01*
X10452092Y4965700D01*
X10502875D01*
X10528267Y4991092D01*
X10579051Y4965700D02*
X10629834D01*
X10604443D01*
Y5118051D01*
X10579051Y5092659D01*
X10706010Y4965700D02*
X10756793D01*
X10731401D01*
Y5118051D01*
X10706010Y5092659D01*
X12585667Y5079959D02*
X12560275Y5105351D01*
X12509492D01*
X12484100Y5079959D01*
Y4978392D01*
X12509492Y4953000D01*
X12560275D01*
X12585667Y4978392D01*
X12636451Y4953000D02*
X12687234D01*
X12661843D01*
Y5105351D01*
X12636451Y5079959D01*
X12864977Y4953000D02*
X12763410D01*
X12864977Y5054567D01*
Y5079959D01*
X12839584Y5105351D01*
X12788801D01*
X12763410Y5079959D01*
X13080968D02*
X13055576Y5105351D01*
X13004791D01*
X12979401Y5079959D01*
Y4978392D01*
X13004791Y4953000D01*
X13055576D01*
X13080968Y4978392D01*
X13131750Y4953000D02*
X13182533D01*
X13157143D01*
Y5105351D01*
X13131750Y5079959D01*
X13258710D02*
X13284100Y5105351D01*
X13334885D01*
X13360277Y5079959D01*
Y5054567D01*
X13334885Y5029175D01*
X13309492D01*
X13334885D01*
X13360277Y5003783D01*
Y4978392D01*
X13334885Y4953000D01*
X13284100D01*
X13258710Y4978392D01*
X15163766Y5079959D02*
X15138374Y5105351D01*
X15087592D01*
X15062199Y5079959D01*
Y4978392D01*
X15087592Y4953000D01*
X15138374D01*
X15163766Y4978392D01*
X15214551Y4953000D02*
X15265334D01*
X15239943D01*
Y5105351D01*
X15214551Y5079959D01*
X15417685Y4953000D02*
Y5105351D01*
X15341510Y5029175D01*
X15443077D01*
X15676367Y5079959D02*
X15650975Y5105351D01*
X15600192D01*
X15574800Y5079959D01*
Y4978392D01*
X15600192Y4953000D01*
X15650975D01*
X15676367Y4978392D01*
X15727151Y4953000D02*
X15777934D01*
X15752544D01*
Y5105351D01*
X15727151Y5079959D01*
X15955676Y5105351D02*
X15854111D01*
Y5029175D01*
X15904893Y5054567D01*
X15930286D01*
X15955676Y5029175D01*
Y4978392D01*
X15930286Y4953000D01*
X15879501D01*
X15854111Y4978392D01*
X4165551Y6260900D02*
X4013200D01*
Y6184725D01*
X4038592Y6159333D01*
X4140159D01*
X4165551Y6184725D01*
Y6260900D01*
X4013200Y6108549D02*
Y6057766D01*
Y6083158D01*
X4165551D01*
X4140159Y6108549D01*
X4673551Y6261300D02*
X4521200D01*
Y6185125D01*
X4546592Y6159733D01*
X4648159D01*
X4673551Y6185125D01*
Y6261300D01*
X4521200Y6007382D02*
Y6108949D01*
X4622767Y6007382D01*
X4648159D01*
X4673551Y6032774D01*
Y6083557D01*
X4648159Y6108949D01*
X5168851Y6248400D02*
X5016500D01*
Y6172225D01*
X5041892Y6146833D01*
X5143459D01*
X5168851Y6172225D01*
Y6248400D01*
X5143459Y6096049D02*
X5168851Y6070657D01*
Y6019874D01*
X5143459Y5994482D01*
X5118067D01*
X5092675Y6019874D01*
Y6045266D01*
Y6019874D01*
X5067283Y5994482D01*
X5041892D01*
X5016500Y6019874D01*
Y6070657D01*
X5041892Y6096049D01*
X5702251Y6260900D02*
X5549900D01*
Y6184725D01*
X5575292Y6159333D01*
X5676859D01*
X5702251Y6184725D01*
Y6260900D01*
X5549900Y6032374D02*
X5702251D01*
X5626075Y6108549D01*
Y6006982D01*
X6210251Y6261100D02*
X6057900D01*
Y6184925D01*
X6083292Y6159533D01*
X6184859D01*
X6210251Y6184925D01*
Y6261100D01*
Y6007182D02*
Y6108749D01*
X6134075D01*
X6159467Y6057966D01*
Y6032574D01*
X6134075Y6007182D01*
X6083292D01*
X6057900Y6032574D01*
Y6083357D01*
X6083292Y6108749D01*
X11480767Y6540451D02*
X11379200D01*
Y6464275D01*
X11429983D01*
X11379200D01*
Y6388100D01*
X11531551D02*
X11582334D01*
X11556943D01*
Y6540451D01*
X11531551Y6515059D01*
X8714707Y7364611D02*
X8613140D01*
Y7288435D01*
X8663923D01*
X8613140D01*
Y7212260D01*
X8867058D02*
X8765491D01*
X8867058Y7313827D01*
Y7339219D01*
X8841666Y7364611D01*
X8790883D01*
X8765491Y7339219D01*
X11061700Y7492951D02*
X11112483D01*
X11087092D01*
Y7340600D01*
X11061700D01*
X11112483D01*
X11290226Y7467559D02*
X11264834Y7492951D01*
X11214051D01*
X11188659Y7467559D01*
Y7365992D01*
X11214051Y7340600D01*
X11264834D01*
X11290226Y7365992D01*
X11341010Y7340600D02*
X11391793D01*
X11366401D01*
Y7492951D01*
X11341010Y7467559D01*
X5060180Y4619291D02*
X5110963D01*
X5085572D01*
Y4466940D01*
X5060180D01*
X5110963D01*
X5288706Y4593899D02*
X5263314Y4619291D01*
X5212531D01*
X5187139Y4593899D01*
Y4492332D01*
X5212531Y4466940D01*
X5263314D01*
X5288706Y4492332D01*
X5441057Y4466940D02*
X5339489D01*
X5441057Y4568507D01*
Y4593899D01*
X5415665Y4619291D01*
X5364881D01*
X5339489Y4593899D01*
X7586980Y4625291D02*
X7637763D01*
X7612372D01*
Y4472940D01*
X7586980D01*
X7637763D01*
X7815506Y4599899D02*
X7790114Y4625291D01*
X7739331D01*
X7713939Y4599899D01*
Y4498332D01*
X7739331Y4472940D01*
X7790114D01*
X7815506Y4498332D01*
X7866290Y4599899D02*
X7891681Y4625291D01*
X7942465D01*
X7967857Y4599899D01*
Y4574507D01*
X7942465Y4549115D01*
X7917073D01*
X7942465D01*
X7967857Y4523723D01*
Y4498332D01*
X7942465Y4472940D01*
X7891681D01*
X7866290Y4498332D01*
X10140180Y4650691D02*
X10190963D01*
X10165572D01*
Y4498340D01*
X10140180D01*
X10190963D01*
X10368706Y4625299D02*
X10343314Y4650691D01*
X10292531D01*
X10267139Y4625299D01*
Y4523732D01*
X10292531Y4498340D01*
X10343314D01*
X10368706Y4523732D01*
X10495665Y4498340D02*
Y4650691D01*
X10419489Y4574515D01*
X10521057D01*
X12730480Y4637991D02*
X12781263D01*
X12755872D01*
Y4485640D01*
X12730480D01*
X12781263D01*
X12959006Y4612599D02*
X12933614Y4637991D01*
X12882831D01*
X12857439Y4612599D01*
Y4511032D01*
X12882831Y4485640D01*
X12933614D01*
X12959006Y4511032D01*
X13111357Y4637991D02*
X13009790D01*
Y4561815D01*
X13060573Y4587207D01*
X13085965D01*
X13111357Y4561815D01*
Y4511032D01*
X13085965Y4485640D01*
X13035181D01*
X13009790Y4511032D01*
X15320261Y4638451D02*
X15371043D01*
X15345651D01*
Y4486100D01*
X15320261D01*
X15371043D01*
X15548785Y4613059D02*
X15523393Y4638451D01*
X15472610D01*
X15447218Y4613059D01*
Y4511492D01*
X15472610Y4486100D01*
X15523393D01*
X15548785Y4511492D01*
X15701137Y4638451D02*
X15650352Y4613059D01*
X15599570Y4562275D01*
Y4511492D01*
X15624960Y4486100D01*
X15675745D01*
X15701137Y4511492D01*
Y4536883D01*
X15675745Y4562275D01*
X15599570D01*
X3952207Y3868371D02*
X3901423D01*
X3926815D01*
Y3741412D01*
X3901423Y3716020D01*
X3876032D01*
X3850640Y3741412D01*
X4002991Y3716020D02*
X4053774D01*
X4028383D01*
Y3868371D01*
X4002991Y3842979D01*
X6517607Y3868371D02*
X6466823D01*
X6492215D01*
Y3741412D01*
X6466823Y3716020D01*
X6441432D01*
X6416040Y3741412D01*
X6669958Y3716020D02*
X6568391D01*
X6669958Y3817587D01*
Y3842979D01*
X6644566Y3868371D01*
X6593783D01*
X6568391Y3842979D01*
X9095707Y3868371D02*
X9044923D01*
X9070315D01*
Y3741412D01*
X9044923Y3716020D01*
X9019532D01*
X8994140Y3741412D01*
X9146491Y3842979D02*
X9171883Y3868371D01*
X9222666D01*
X9248058Y3842979D01*
Y3817587D01*
X9222666Y3792195D01*
X9197274D01*
X9222666D01*
X9248058Y3766803D01*
Y3741412D01*
X9222666Y3716020D01*
X9171883D01*
X9146491Y3741412D01*
X11661107Y3868371D02*
X11610323D01*
X11635715D01*
Y3741412D01*
X11610323Y3716020D01*
X11584932D01*
X11559540Y3741412D01*
X11788066Y3716020D02*
Y3868371D01*
X11711891Y3792195D01*
X11813458D01*
X14239207Y3868371D02*
X14188423D01*
X14213815D01*
Y3741412D01*
X14188423Y3716020D01*
X14163033D01*
X14137640Y3741412D01*
X14391557Y3868371D02*
X14289992D01*
Y3792195D01*
X14340775Y3817587D01*
X14366167D01*
X14391557Y3792195D01*
Y3741412D01*
X14366167Y3716020D01*
X14315382D01*
X14289992Y3741412D01*
X15209106Y7629971D02*
X15158324D01*
X15183714D01*
Y7503012D01*
X15158324Y7477620D01*
X15132932D01*
X15107539Y7503012D01*
X15361458Y7629971D02*
X15310674Y7604579D01*
X15259891Y7553795D01*
Y7503012D01*
X15285283Y7477620D01*
X15336066D01*
X15361458Y7503012D01*
Y7528403D01*
X15336066Y7553795D01*
X15259891D01*
X7127587Y7843471D02*
X7076803D01*
X7102195D01*
Y7716512D01*
X7076803Y7691120D01*
X7051412D01*
X7026020Y7716512D01*
X7178371Y7843471D02*
X7279938D01*
Y7818079D01*
X7178371Y7716512D01*
Y7691120D01*
X3850640Y7363460D02*
Y7515811D01*
X3926815D01*
X3952207Y7490419D01*
Y7439635D01*
X3926815Y7414243D01*
X3850640D01*
X4002991Y7363460D02*
X4053774D01*
X4028383D01*
Y7515811D01*
X4002991Y7490419D01*
X11620500Y7048500D02*
X11772851D01*
Y6972325D01*
X11747459Y6946933D01*
X11696675D01*
X11671283Y6972325D01*
Y7048500D01*
Y6997717D02*
X11620500Y6946933D01*
Y6896149D02*
Y6845366D01*
Y6870757D01*
X11772851D01*
X11747459Y6896149D01*
X11061700Y6413500D02*
X11214051D01*
Y6337325D01*
X11188659Y6311933D01*
X11137875D01*
X11112483Y6337325D01*
Y6413500D01*
Y6362717D02*
X11061700Y6311933D01*
Y6159582D02*
Y6261149D01*
X11163267Y6159582D01*
X11188659D01*
X11214051Y6184974D01*
Y6235757D01*
X11188659Y6261149D01*
X11977345Y5652770D02*
Y5805121D01*
X11901170Y5728945D01*
X12002737D01*
X14592267Y5778451D02*
X14490700D01*
Y5702275D01*
X14541483Y5727667D01*
X14566875D01*
X14592267Y5702275D01*
Y5651492D01*
X14566875Y5626100D01*
X14516092D01*
X14490700Y5651492D01*
X9309100Y5778459D02*
X9334492Y5803851D01*
X9385275D01*
X9410667Y5778459D01*
Y5753067D01*
X9385275Y5727675D01*
X9359883D01*
X9385275D01*
X9410667Y5702283D01*
Y5676892D01*
X9385275Y5651500D01*
X9334492D01*
X9309100Y5676892D01*
X6845267Y5638800D02*
X6743700D01*
X6845267Y5740367D01*
Y5765759D01*
X6819875Y5791151D01*
X6769092D01*
X6743700Y5765759D01*
X4255770Y5614670D02*
X4306553D01*
X4281162D01*
Y5767021D01*
X4255770Y5741629D01*
%TF.MD5,a06b10608ba6e66b8ec38df97d98622b*%
M02*
