G04 Layer_Color=32768*
%FSLAX45Y45*%
%MOMM*%
%TF.FileFunction,Other,Mechanical_15*%
%TF.Part,Single*%
G01*
G75*
%TA.AperFunction,NonConductor*%
%ADD60C,0.10000*%
%ADD63C,0.12700*%
%ADD65C,0.05000*%
D60*
X6336900Y6350800D02*
Y6833800D01*
X5905900D02*
X6336900D01*
X5905900Y6350800D02*
Y6833800D01*
Y6350800D02*
X6336900D01*
X5828900Y6350600D02*
Y6833600D01*
X5397900D02*
X5828900D01*
X5397900Y6350600D02*
Y6833600D01*
Y6350600D02*
X5828900D01*
X5320900Y6350800D02*
Y6833800D01*
X4889900D02*
X5320900D01*
X4889900Y6350800D02*
Y6833800D01*
Y6350800D02*
X5320900D01*
X4812900D02*
Y6833800D01*
X4381900D02*
X4812900D01*
X4381900Y6350800D02*
Y6833800D01*
Y6350800D02*
X4812900D01*
X4292200Y6350600D02*
Y6833600D01*
X3861200D02*
X4292200D01*
X3861200Y6350600D02*
Y6833600D01*
Y6350600D02*
X4292200D01*
X3829700Y3635700D02*
X6355700D01*
Y2546700D02*
Y3635700D01*
X3829700Y2546700D02*
X6355700D01*
X3829700D02*
Y3635700D01*
X6395100D02*
X8921100D01*
Y2546700D02*
Y3635700D01*
X6395100Y2546700D02*
X8921100D01*
X6395100D02*
Y3635700D01*
X8973200D02*
X11499200D01*
Y2546700D02*
Y3635700D01*
X8973200Y2546700D02*
X11499200D01*
X8973200D02*
Y3635700D01*
X11538600D02*
X14064600D01*
Y2546700D02*
Y3635700D01*
X11538600Y2546700D02*
X14064600D01*
X11538600D02*
Y3635700D01*
X14116701D02*
X16642700D01*
Y2546700D02*
Y3635700D01*
X14116701Y2546700D02*
X16642700D01*
X14116701D02*
Y3635700D01*
D63*
X10326420Y7099300D02*
G03*
X10326420Y7099300I-522020J0D01*
G01*
D65*
X10309200Y7378200D02*
Y7506200D01*
Y7378200D02*
X10557200D01*
Y7506200D01*
X10309200D02*
X10557200D01*
X10858000Y6524600D02*
X10986000D01*
Y6772600D01*
X10858000D02*
X10986000D01*
X10858000Y6524600D02*
Y6772600D01*
X10502400Y6524600D02*
X10630400D01*
Y6772600D01*
X10502400D02*
X10630400D01*
X10502400Y6524600D02*
Y6772600D01*
X10669200Y6488300D02*
X10819200D01*
Y6788300D01*
X10669200D02*
X10819200D01*
X10669200Y6488300D02*
Y6788300D01*
X5036100Y4387800D02*
X5391100D01*
X5036100Y3962800D02*
Y4387800D01*
Y3962800D02*
X5391100D01*
Y4387800D01*
X7562900Y4393800D02*
X7917900D01*
X7562900Y3968800D02*
Y4393800D01*
Y3968800D02*
X7917900D01*
Y4393800D01*
X10116100Y4419200D02*
X10471100D01*
X10116100Y3994200D02*
Y4419200D01*
Y3994200D02*
X10471100D01*
Y4419200D01*
X8589400Y6835300D02*
X8733400D01*
Y7132300D01*
X8589400D02*
X8733400D01*
X8589400Y6835300D02*
Y7132300D01*
X8092800Y6571600D02*
Y7611600D01*
X7002800Y6571600D02*
X8092800D01*
X7002800D02*
Y7611600D01*
X8092800D01*
X15084700Y6358400D02*
Y7398400D01*
X16174699D01*
Y6358400D02*
Y7398400D01*
X15084700Y6358400D02*
X16174699D01*
X12706900Y4406500D02*
X13061900D01*
X12706900Y3981500D02*
Y4406500D01*
Y3981500D02*
X13061900D01*
Y4406500D01*
X15297701D02*
X15652699D01*
X15297701Y3981500D02*
Y4406500D01*
Y3981500D02*
X15652699D01*
Y4406500D01*
X11274400Y7136900D02*
Y7264900D01*
Y7136900D02*
X11522400D01*
Y7264900D01*
X11274400D02*
X11522400D01*
X10502900Y6868400D02*
Y7228600D01*
Y6868400D02*
X11137900D01*
Y7228600D01*
X10502900D02*
X11137900D01*
X11012100Y6501000D02*
X11162100D01*
Y6801000D01*
X11012100D02*
X11162100D01*
X11012100Y6501000D02*
Y6801000D01*
X11250800Y6910000D02*
Y7060000D01*
Y6910000D02*
X11550800D01*
Y7060000D01*
X11250800D02*
X11550800D01*
X11287100Y6679700D02*
Y6807700D01*
Y6679700D02*
X11535100D01*
Y6807700D01*
X11287100D02*
X11535100D01*
X5139600Y5398600D02*
Y5472600D01*
Y5398600D02*
X5283600D01*
Y5472600D01*
X5139600D02*
X5283600D01*
X15409300Y5436700D02*
Y5510700D01*
Y5436700D02*
X15553300D01*
Y5510700D01*
X15409300D02*
X15553300D01*
X7666900Y5436700D02*
Y5510700D01*
Y5436700D02*
X7810900D01*
Y5510700D01*
X7666900D02*
X7810900D01*
X10227700Y5436700D02*
Y5510700D01*
Y5436700D02*
X10371700D01*
Y5510700D01*
X10227700D02*
X10371700D01*
X12810400Y5449400D02*
Y5523400D01*
Y5449400D02*
X12954401D01*
Y5523400D01*
X12810400D02*
X12954401D01*
X11802500Y6340000D02*
X11946500D01*
Y6637000D01*
X11802500D02*
X11946500D01*
X11802500Y6340000D02*
Y6637000D01*
%TF.MD5,0738b7560104adab8551c28d0fc0b3ca*%
M02*
