G04 Layer_Color=8388736*
%FSLAX45Y45*%
%MOMM*%
%TF.FileFunction,Soldermask,Top*%
%TF.Part,Single*%
G01*
G75*
%TA.AperFunction,SMDPad,CuDef*%
%ADD36R,0.98320X1.18320*%
%ADD37R,1.18320X0.98320*%
%ADD38R,1.60320X3.80320*%
%ADD39R,3.80320X1.60320*%
%ADD40R,1.15320X1.10320*%
%ADD41R,1.22320X1.47320*%
%ADD42R,0.80320X1.35320*%
%ADD43R,1.14320X1.17320*%
%ADD44R,1.88320X2.08320*%
%ADD45R,1.62820X0.50320*%
%ADD46R,1.10320X1.15320*%
%ADD47R,0.67320X0.64320*%
%TA.AperFunction,ViaPad*%
%ADD48C,1.72720*%
%TA.AperFunction,ComponentPad*%
%ADD49C,2.99320*%
%ADD50R,2.00320X2.00320*%
%ADD51C,2.00320*%
%ADD52R,1.70320X1.70320*%
%ADD53C,1.70320*%
%ADD54R,1.55320X1.55320*%
%ADD55C,1.55320*%
%ADD56C,1.72720*%
%ADD57R,1.72720X1.72720*%
%ADD58C,3.20320*%
%TA.AperFunction,ViaPad*%
%ADD59C,1.47320*%
D36*
X10503200Y7442200D02*
D03*
X10363200D02*
D03*
X11468400Y7200900D02*
D03*
X11328400D02*
D03*
X11481100Y6743700D02*
D03*
X11341100D02*
D03*
D37*
X10922000Y6718600D02*
D03*
Y6578600D02*
D03*
X10566400Y6718600D02*
D03*
Y6578600D02*
D03*
D38*
X9424400Y7099300D02*
D03*
X10184400D02*
D03*
D39*
X9804400Y7479300D02*
D03*
Y6719300D02*
D03*
D40*
X10744200Y6718300D02*
D03*
Y6558300D02*
D03*
X11087100Y6731000D02*
D03*
Y6571000D02*
D03*
D41*
X6121400Y6464300D02*
D03*
X6006900Y6693300D02*
D03*
X6235900D02*
D03*
X5613400Y6464100D02*
D03*
X5498900Y6693100D02*
D03*
X5727900D02*
D03*
X5105400Y6464300D02*
D03*
X4990900Y6693300D02*
D03*
X5219900D02*
D03*
X4597400Y6464300D02*
D03*
X4482900Y6693300D02*
D03*
X4711900D02*
D03*
X4076700Y6464100D02*
D03*
X3962200Y6693100D02*
D03*
X4191200D02*
D03*
D42*
X5308600Y4045300D02*
D03*
X5213600D02*
D03*
X5118600D02*
D03*
Y4305300D02*
D03*
X5213600D02*
D03*
X5308600D02*
D03*
X7835400Y4051300D02*
D03*
X7740400D02*
D03*
X7645400D02*
D03*
Y4311300D02*
D03*
X7740400D02*
D03*
X7835400D02*
D03*
X10388600Y4076700D02*
D03*
X10293600D02*
D03*
X10198600D02*
D03*
Y4336700D02*
D03*
X10293600D02*
D03*
X10388600D02*
D03*
X12979401Y4064000D02*
D03*
X12884399D02*
D03*
X12789400D02*
D03*
Y4324000D02*
D03*
X12884399D02*
D03*
X12979401D02*
D03*
X15570200Y4064000D02*
D03*
X15475200D02*
D03*
X15380200D02*
D03*
Y4324000D02*
D03*
X15475200D02*
D03*
X15570200D02*
D03*
D43*
X8661400Y7058800D02*
D03*
Y6908800D02*
D03*
X11874500Y6563500D02*
D03*
Y6413500D02*
D03*
D44*
X10820400Y7048500D02*
D03*
D45*
X11041600Y7148500D02*
D03*
Y7098500D02*
D03*
Y7048500D02*
D03*
Y6998500D02*
D03*
Y6948500D02*
D03*
X10599200D02*
D03*
Y6998500D02*
D03*
Y7048500D02*
D03*
Y7098500D02*
D03*
Y7148500D02*
D03*
D46*
X11480800Y6985000D02*
D03*
X11320800D02*
D03*
D47*
X5245100Y5435600D02*
D03*
X5178100D02*
D03*
X15514799Y5473700D02*
D03*
X15447800D02*
D03*
X7772400D02*
D03*
X7705400D02*
D03*
X10333200D02*
D03*
X10266200D02*
D03*
X12915900Y5486400D02*
D03*
X12848900D02*
D03*
D48*
X16941800Y2984500D02*
D03*
Y6451600D02*
D03*
X3302000D02*
D03*
X3314700Y2984500D02*
D03*
D49*
X4330700Y3060700D02*
D03*
X4838700D02*
D03*
X5346700D02*
D03*
X5854700D02*
D03*
X6896100D02*
D03*
X7404100D02*
D03*
X7912100D02*
D03*
X8420100D02*
D03*
X9474200D02*
D03*
X9982200D02*
D03*
X10490200D02*
D03*
X10998200D02*
D03*
X12039600D02*
D03*
X12547600D02*
D03*
X13055600D02*
D03*
X13563600D02*
D03*
X14617700D02*
D03*
X15125700D02*
D03*
X15633701D02*
D03*
X16141701D02*
D03*
D50*
X7797800Y7086600D02*
D03*
X15379700Y6883400D02*
D03*
D51*
X7297800Y7086600D02*
D03*
X15879700Y6883400D02*
D03*
D52*
X3962400Y7150100D02*
D03*
D53*
X4216400D02*
D03*
X4724400D02*
D03*
X4978400D02*
D03*
X5232400D02*
D03*
X5486400D02*
D03*
X5740400D02*
D03*
X5994400D02*
D03*
X6248400D02*
D03*
X4470400D02*
D03*
D54*
X4957000Y5372101D02*
D03*
X15231300Y5384801D02*
D03*
X7475600Y5397501D02*
D03*
X10041000D02*
D03*
X12640500Y5397501D02*
D03*
D55*
X5457000Y5372099D02*
D03*
X15731300Y5384799D02*
D03*
X7975600Y5397500D02*
D03*
X10541000D02*
D03*
X13140500Y5397499D02*
D03*
D56*
X12293600Y5092700D02*
D03*
Y5346700D02*
D03*
Y4584700D02*
D03*
Y4076700D02*
D03*
Y4838700D02*
D03*
Y4330700D02*
D03*
Y3822700D02*
D03*
X13512801D02*
D03*
Y4330700D02*
D03*
Y4838700D02*
D03*
Y4076700D02*
D03*
Y4584700D02*
D03*
Y5600700D02*
D03*
Y5346700D02*
D03*
Y5092700D02*
D03*
X7137400Y5080000D02*
D03*
Y5334000D02*
D03*
Y4572000D02*
D03*
Y4064000D02*
D03*
Y4826000D02*
D03*
Y4318000D02*
D03*
Y3810000D02*
D03*
X8356600D02*
D03*
Y4318000D02*
D03*
Y4826000D02*
D03*
Y4064000D02*
D03*
Y4572000D02*
D03*
Y5588000D02*
D03*
Y5334000D02*
D03*
Y5080000D02*
D03*
X9702800Y5092700D02*
D03*
Y5346700D02*
D03*
Y4584700D02*
D03*
Y4076700D02*
D03*
Y4838700D02*
D03*
Y4330700D02*
D03*
Y3822700D02*
D03*
X10922000D02*
D03*
Y4330700D02*
D03*
Y4838700D02*
D03*
Y4076700D02*
D03*
Y4584700D02*
D03*
Y5600700D02*
D03*
Y5346700D02*
D03*
Y5092700D02*
D03*
X14884399Y5067300D02*
D03*
Y5321300D02*
D03*
Y4559300D02*
D03*
Y4051300D02*
D03*
Y4813300D02*
D03*
Y4305300D02*
D03*
Y3797300D02*
D03*
X16103600D02*
D03*
Y4305300D02*
D03*
Y4813300D02*
D03*
Y4051300D02*
D03*
Y4559300D02*
D03*
Y5575300D02*
D03*
Y5321300D02*
D03*
Y5067300D02*
D03*
X4597400Y5054600D02*
D03*
Y5308600D02*
D03*
Y4546600D02*
D03*
Y4038600D02*
D03*
Y4800600D02*
D03*
Y4292600D02*
D03*
Y3784600D02*
D03*
X5816600D02*
D03*
Y4292600D02*
D03*
Y4800600D02*
D03*
Y4038600D02*
D03*
Y4546600D02*
D03*
Y5562600D02*
D03*
Y5308600D02*
D03*
Y5054600D02*
D03*
D57*
X12293600Y5600700D02*
D03*
X7137400Y5588000D02*
D03*
X9702800Y5600700D02*
D03*
X14884399Y5575300D02*
D03*
X4597400Y5562600D02*
D03*
D58*
X12086400Y6883400D02*
D03*
X14376401D02*
D03*
D59*
X4064000Y3695700D02*
D03*
%TF.MD5,32878ceea81b693118c50bca0d301539*%
M02*
