G04 Layer_Color=8421504*
%FSLAX45Y45*%
%MOMM*%
%TF.FileFunction,Paste,Top*%
%TF.Part,Single*%
G01*
G75*
%TA.AperFunction,SMDPad,CuDef*%
%ADD10R,0.78000X0.98000*%
%ADD11R,0.98000X0.78000*%
%ADD12R,1.40000X3.60000*%
%ADD13R,3.60000X1.40000*%
%ADD14R,0.95000X0.90000*%
%ADD15R,1.02000X1.27000*%
%ADD16R,0.60000X1.15000*%
%ADD17R,0.94000X0.97000*%
%ADD18R,1.68000X1.88000*%
%ADD19R,1.42500X0.30000*%
%ADD20R,0.90000X0.95000*%
%ADD21R,0.47000X0.44000*%
D10*
X10503200Y7442200D02*
D03*
X10363200D02*
D03*
X11468400Y7200900D02*
D03*
X11328400D02*
D03*
X11481100Y6743700D02*
D03*
X11341100D02*
D03*
D11*
X10922000Y6718600D02*
D03*
Y6578600D02*
D03*
X10566400Y6718600D02*
D03*
Y6578600D02*
D03*
D12*
X9424400Y7099300D02*
D03*
X10184400D02*
D03*
D13*
X9804400Y7479300D02*
D03*
Y6719300D02*
D03*
D14*
X10744200Y6718300D02*
D03*
Y6558300D02*
D03*
X11087100Y6731000D02*
D03*
Y6571000D02*
D03*
D15*
X6121400Y6464300D02*
D03*
X6006900Y6693300D02*
D03*
X6235900D02*
D03*
X5613400Y6464100D02*
D03*
X5498900Y6693100D02*
D03*
X5727900D02*
D03*
X5105400Y6464300D02*
D03*
X4990900Y6693300D02*
D03*
X5219900D02*
D03*
X4597400Y6464300D02*
D03*
X4482900Y6693300D02*
D03*
X4711900D02*
D03*
X4076700Y6464100D02*
D03*
X3962200Y6693100D02*
D03*
X4191200D02*
D03*
D16*
X5308600Y4045300D02*
D03*
X5213600D02*
D03*
X5118600D02*
D03*
Y4305300D02*
D03*
X5213600D02*
D03*
X5308600D02*
D03*
X7835400Y4051300D02*
D03*
X7740400D02*
D03*
X7645400D02*
D03*
Y4311300D02*
D03*
X7740400D02*
D03*
X7835400D02*
D03*
X10388600Y4076700D02*
D03*
X10293600D02*
D03*
X10198600D02*
D03*
Y4336700D02*
D03*
X10293600D02*
D03*
X10388600D02*
D03*
X12979401Y4064000D02*
D03*
X12884399D02*
D03*
X12789400D02*
D03*
Y4324000D02*
D03*
X12884399D02*
D03*
X12979401D02*
D03*
X15570200Y4064000D02*
D03*
X15475200D02*
D03*
X15380200D02*
D03*
Y4324000D02*
D03*
X15475200D02*
D03*
X15570200D02*
D03*
D17*
X8661400Y7058800D02*
D03*
Y6908800D02*
D03*
X11874500Y6563500D02*
D03*
Y6413500D02*
D03*
D18*
X10820400Y7048500D02*
D03*
D19*
X11041600Y7148500D02*
D03*
Y7098500D02*
D03*
Y7048500D02*
D03*
Y6998500D02*
D03*
Y6948500D02*
D03*
X10599200D02*
D03*
Y6998500D02*
D03*
Y7048500D02*
D03*
Y7098500D02*
D03*
Y7148500D02*
D03*
D20*
X11480800Y6985000D02*
D03*
X11320800D02*
D03*
D21*
X5245100Y5435600D02*
D03*
X5178100D02*
D03*
X15514799Y5473700D02*
D03*
X15447800D02*
D03*
X7772400D02*
D03*
X7705400D02*
D03*
X10333200D02*
D03*
X10266200D02*
D03*
X12915900Y5486400D02*
D03*
X12848900D02*
D03*
%TF.MD5,e3256e940519b97f0d1056aa476b5840*%
M02*
