G04 Layer_Color=16711935*
%FSLAX45Y45*%
%MOMM*%
%TF.FileFunction,Other,Mechanical_13*%
%TF.Part,Single*%
G01*
G75*
%TA.AperFunction,NonConductor*%
%ADD60C,0.10000*%
%ADD61C,0.20000*%
%ADD63C,0.12700*%
%ADD64C,0.25400*%
D60*
X10353200Y7402200D02*
Y7482200D01*
Y7402200D02*
X10513200D01*
Y7482200D01*
X10353200D02*
X10513200D01*
X10882000Y6568600D02*
X10962000D01*
Y6728600D01*
X10882000D02*
X10962000D01*
X10882000Y6568600D02*
Y6728600D01*
X10526400Y6568600D02*
X10606400D01*
Y6728600D01*
X10526400D02*
X10606400D01*
X10526400Y6568600D02*
Y6728600D01*
X10704200Y6558300D02*
X10784200D01*
Y6718300D01*
X10704200D02*
X10784200D01*
X10704200Y6558300D02*
Y6718300D01*
X5264800Y4256500D02*
X5359800Y4161500D01*
X5067400Y4256500D02*
X5359800D01*
X5067400Y4094100D02*
Y4256500D01*
Y4094100D02*
X5359800D01*
Y4256500D01*
X7791600Y4262500D02*
X7886600Y4167500D01*
X7594200Y4262500D02*
X7886600D01*
X7594200Y4100100D02*
Y4262500D01*
Y4100100D02*
X7886600D01*
Y4262500D01*
X10344800Y4287900D02*
X10439800Y4192900D01*
X10147400Y4287900D02*
X10439800D01*
X10147400Y4125500D02*
Y4287900D01*
Y4125500D02*
X10439800D01*
Y4287900D01*
X8619400Y6900800D02*
X8703400D01*
Y7066800D01*
X8619400D02*
X8703400D01*
X8619400Y6900800D02*
Y7066800D01*
X8067800Y6596600D02*
Y7586600D01*
X7027800Y6596600D02*
X8067800D01*
X7027800D02*
Y7586600D01*
X8067800D01*
X15109700Y6383400D02*
Y7373400D01*
X16149699D01*
Y6383400D02*
Y7373400D01*
X15109700Y6383400D02*
X16149699D01*
X12935600Y4275200D02*
X13030600Y4180200D01*
X12738200Y4275200D02*
X13030600D01*
X12738200Y4112800D02*
Y4275200D01*
Y4112800D02*
X13030600D01*
Y4275200D01*
X15526401D02*
X15621400Y4180200D01*
X15328999Y4275200D02*
X15621400D01*
X15328999Y4112800D02*
Y4275200D01*
Y4112800D02*
X15621400D01*
Y4275200D01*
X11318400Y7160900D02*
Y7240900D01*
Y7160900D02*
X11478400D01*
Y7240900D01*
X11318400D02*
X11478400D01*
X10670400Y7148500D02*
X10720400Y7198500D01*
X10670400Y6898500D02*
Y7198500D01*
Y6898500D02*
X10970400D01*
Y7198500D01*
X10670400D02*
X10970400D01*
X11047100Y6571000D02*
X11127100D01*
Y6731000D01*
X11047100D02*
X11127100D01*
X11047100Y6571000D02*
Y6731000D01*
X11320800Y6945000D02*
Y7025000D01*
Y6945000D02*
X11480800D01*
Y7025000D01*
X11320800D02*
X11480800D01*
X11331100Y6703700D02*
Y6783700D01*
Y6703700D02*
X11491100D01*
Y6783700D01*
X11331100D02*
X11491100D01*
X5181600Y5420600D02*
Y5450600D01*
Y5420600D02*
X5241600D01*
Y5450600D01*
X5181600D02*
X5241600D01*
X15451300Y5458700D02*
Y5488700D01*
Y5458700D02*
X15511301D01*
Y5488700D01*
X15451300D02*
X15511301D01*
X7708900Y5458700D02*
Y5488700D01*
Y5458700D02*
X7768900D01*
Y5488700D01*
X7708900D02*
X7768900D01*
X10269700Y5458700D02*
Y5488700D01*
Y5458700D02*
X10329700D01*
Y5488700D01*
X10269700D02*
X10329700D01*
X12852400Y5471400D02*
Y5501400D01*
Y5471400D02*
X12912399D01*
Y5501400D01*
X12852400D02*
X12912399D01*
X11832500Y6405500D02*
X11916500D01*
Y6571500D01*
X11832500D02*
X11916500D01*
X11832500Y6405500D02*
Y6571500D01*
D61*
X6271400Y6466800D02*
Y6690800D01*
X5971400D02*
X6271400D01*
X5971400Y6466800D02*
Y6690800D01*
Y6466800D02*
X6271400D01*
X5763400Y6466600D02*
Y6690600D01*
X5463400D02*
X5763400D01*
X5463400Y6466600D02*
Y6690600D01*
Y6466600D02*
X5763400D01*
X5255400Y6466800D02*
Y6690800D01*
X4955400D02*
X5255400D01*
X4955400Y6466800D02*
Y6690800D01*
Y6466800D02*
X5255400D01*
X4747400D02*
Y6690800D01*
X4447400D02*
X4747400D01*
X4447400Y6466800D02*
Y6690800D01*
Y6466800D02*
X4747400D01*
X4226700Y6466600D02*
Y6690600D01*
X3926700D02*
X4226700D01*
X3926700Y6466600D02*
Y6690600D01*
Y6466600D02*
X4226700D01*
X3929700Y2646700D02*
X6255700D01*
Y3474700D01*
X3929700D02*
X6255700D01*
X3929700Y2646700D02*
Y3474700D01*
X6495100Y2646700D02*
X8821100D01*
Y3474700D01*
X6495100D02*
X8821100D01*
X6495100Y2646700D02*
Y3474700D01*
X9073200Y2646700D02*
X11399200D01*
Y3474700D01*
X9073200D02*
X11399200D01*
X9073200Y2646700D02*
Y3474700D01*
X11638600Y2646700D02*
X13964600D01*
Y3474700D01*
X11638600D02*
X13964600D01*
X11638600Y2646700D02*
Y3474700D01*
X14216701Y2646700D02*
X16542700D01*
Y3474700D01*
X14216701D02*
X16542700D01*
X14216701Y2646700D02*
Y3474700D01*
D63*
X9404400Y7099300D02*
X10204400D01*
X9604400Y6699300D02*
X10004400D01*
X9604400Y7499300D02*
X10004400D01*
X9404400Y6899300D02*
Y7299300D01*
X10204400Y6899300D02*
Y7299300D01*
D64*
X12086400Y7213400D02*
X14376401D01*
Y6553400D02*
Y7213400D01*
X12086400Y6553400D02*
X14376401D01*
X12086400D02*
Y7213400D01*
%TF.MD5,da11139687dad499df731566b7cb950a*%
M02*
