G04 Layer_Physical_Order=1*
G04 Layer_Color=255*
%FSLAX45Y45*%
%MOMM*%
%TF.FileFunction,Copper,L1,Top,Signal*%
%TF.Part,Single*%
G01*
G75*
%TA.AperFunction,SMDPad,CuDef*%
%ADD10R,0.78000X0.98000*%
%ADD11R,0.98000X0.78000*%
%ADD12R,1.40000X3.60000*%
%ADD13R,3.60000X1.40000*%
%ADD14R,0.95000X0.90000*%
%ADD15R,1.02000X1.27000*%
%ADD16R,0.60000X1.15000*%
%ADD17R,0.94000X0.97000*%
%ADD18R,1.68000X1.88000*%
%ADD19R,1.42500X0.30000*%
%ADD20R,0.90000X0.95000*%
%ADD21R,0.47000X0.44000*%
%TA.AperFunction,Conductor*%
%ADD22C,0.25400*%
%ADD23C,2.00000*%
%TA.AperFunction,ViaPad*%
%ADD24C,1.52400*%
%TA.AperFunction,ComponentPad*%
%ADD25C,2.79000*%
%ADD26R,1.80000X1.80000*%
%ADD27C,1.80000*%
%ADD28R,1.50000X1.50000*%
%ADD29C,1.50000*%
%ADD30R,1.35000X1.35000*%
%ADD31C,1.35000*%
%ADD32C,1.52400*%
%ADD33R,1.52400X1.52400*%
%ADD34C,3.00000*%
%TA.AperFunction,ViaPad*%
%ADD35C,1.27000*%
G36*
X17297400Y6807200D02*
Y2578100D01*
X17284700Y2565400D01*
X2908300D01*
Y6794500D01*
X2895600Y6807200D01*
X4025900Y7937500D01*
X16167101D01*
X17297400Y6807200D01*
D02*
G37*
%LPC*%
G36*
X7137400Y4912944D02*
X7114897Y4909981D01*
X7093928Y4901296D01*
X7075922Y4887478D01*
X7062104Y4869472D01*
X7053419Y4848503D01*
X7050456Y4826000D01*
X7053419Y4803497D01*
X7062104Y4782528D01*
X7075922Y4764522D01*
X7093928Y4750704D01*
X7114897Y4742019D01*
X7137400Y4739056D01*
X7159903Y4742019D01*
X7180872Y4750704D01*
X7198878Y4764522D01*
X7212696Y4782528D01*
X7221381Y4803497D01*
X7224344Y4826000D01*
X7221381Y4848503D01*
X7212696Y4869472D01*
X7198878Y4887478D01*
X7180872Y4901296D01*
X7159903Y4909981D01*
X7137400Y4912944D01*
D02*
G37*
G36*
X8356600D02*
X8334097Y4909981D01*
X8313128Y4901296D01*
X8295122Y4887478D01*
X8281304Y4869472D01*
X8272885Y4849145D01*
X8077200D01*
X8068343Y4847383D01*
X8060834Y4842366D01*
X7819034Y4600566D01*
X7814017Y4593057D01*
X7812255Y4584200D01*
Y4379624D01*
X7805400D01*
X7795651Y4378820D01*
X7789954Y4385255D01*
X7788712Y4387112D01*
X7780311Y4392726D01*
X7770400Y4394698D01*
X7753100D01*
Y4311300D01*
Y4227902D01*
X7770400D01*
X7780311Y4229874D01*
X7788712Y4235488D01*
X7789954Y4237345D01*
X7795651Y4243780D01*
X7805400Y4242976D01*
X7865400D01*
X7873054Y4246146D01*
X7876224Y4253800D01*
Y4368800D01*
X7873054Y4376454D01*
X7865400Y4379624D01*
X7858545D01*
Y4574613D01*
X8086787Y4802855D01*
X8272885D01*
X8281304Y4782528D01*
X8295122Y4764522D01*
X8313128Y4750704D01*
X8334097Y4742019D01*
X8356600Y4739056D01*
X8379103Y4742019D01*
X8400072Y4750704D01*
X8418078Y4764522D01*
X8431896Y4782528D01*
X8440581Y4803497D01*
X8443544Y4826000D01*
X8440581Y4848503D01*
X8431896Y4869472D01*
X8418078Y4887478D01*
X8400072Y4901296D01*
X8379103Y4909981D01*
X8356600Y4912944D01*
D02*
G37*
G36*
X9702800Y4925644D02*
X9680297Y4922681D01*
X9659328Y4913996D01*
X9641322Y4900178D01*
X9627504Y4882172D01*
X9618819Y4861203D01*
X9615856Y4838700D01*
X9618819Y4816197D01*
X9627504Y4795228D01*
X9641322Y4777222D01*
X9659328Y4763404D01*
X9680297Y4754719D01*
X9702800Y4751756D01*
X9725303Y4754719D01*
X9746272Y4763404D01*
X9764278Y4777222D01*
X9778096Y4795228D01*
X9786781Y4816197D01*
X9789744Y4838700D01*
X9786781Y4861203D01*
X9778096Y4882172D01*
X9764278Y4900178D01*
X9746272Y4913996D01*
X9725303Y4922681D01*
X9702800Y4925644D01*
D02*
G37*
G36*
X5816600Y4887544D02*
X5794097Y4884581D01*
X5773128Y4875896D01*
X5755122Y4862078D01*
X5741304Y4844072D01*
X5732885Y4823745D01*
X5461000D01*
X5452143Y4821983D01*
X5444634Y4816966D01*
X5292234Y4664566D01*
X5287217Y4657057D01*
X5285455Y4648200D01*
Y4373624D01*
X5278600D01*
X5268851Y4372820D01*
X5263154Y4379255D01*
X5261912Y4381112D01*
X5253510Y4386726D01*
X5243600Y4388698D01*
X5226300D01*
Y4305300D01*
Y4221902D01*
X5243600D01*
X5253510Y4223874D01*
X5261912Y4229488D01*
X5263154Y4231345D01*
X5268851Y4237780D01*
X5278600Y4236976D01*
X5338600D01*
X5346254Y4240146D01*
X5349424Y4247800D01*
Y4362800D01*
X5346254Y4370454D01*
X5338600Y4373624D01*
X5331745D01*
Y4638613D01*
X5470587Y4777455D01*
X5732885D01*
X5741304Y4757128D01*
X5755122Y4739122D01*
X5773128Y4725304D01*
X5794097Y4716619D01*
X5816600Y4713656D01*
X5839103Y4716619D01*
X5860072Y4725304D01*
X5878078Y4739122D01*
X5891896Y4757128D01*
X5900581Y4778097D01*
X5903544Y4800600D01*
X5900581Y4823103D01*
X5891896Y4844072D01*
X5878078Y4862078D01*
X5860072Y4875896D01*
X5839103Y4884581D01*
X5816600Y4887544D01*
D02*
G37*
G36*
X14884399Y4900244D02*
X14861897Y4897281D01*
X14840929Y4888596D01*
X14822922Y4874778D01*
X14809103Y4856772D01*
X14800420Y4835803D01*
X14797456Y4813300D01*
X14800420Y4790797D01*
X14809103Y4769828D01*
X14822922Y4751822D01*
X14840929Y4738004D01*
X14861897Y4729319D01*
X14884399Y4726356D01*
X14906903Y4729319D01*
X14927872Y4738004D01*
X14945879Y4751822D01*
X14959695Y4769828D01*
X14968381Y4790797D01*
X14971344Y4813300D01*
X14968381Y4835803D01*
X14959695Y4856772D01*
X14945879Y4874778D01*
X14927872Y4888596D01*
X14906903Y4897281D01*
X14884399Y4900244D01*
D02*
G37*
G36*
X16103600D02*
X16081097Y4897281D01*
X16060127Y4888596D01*
X16042122Y4874778D01*
X16028304Y4856772D01*
X16019885Y4836445D01*
X15722600D01*
X15713744Y4834683D01*
X15706235Y4829666D01*
X15553835Y4677266D01*
X15548817Y4669757D01*
X15547055Y4660900D01*
Y4392324D01*
X15540199D01*
X15530450Y4391520D01*
X15524754Y4397955D01*
X15523512Y4399812D01*
X15515109Y4405426D01*
X15505200Y4407398D01*
X15487900D01*
Y4324000D01*
Y4240602D01*
X15505200D01*
X15515109Y4242574D01*
X15523512Y4248188D01*
X15524754Y4250045D01*
X15530450Y4256480D01*
X15540199Y4255676D01*
X15600200D01*
X15607854Y4258846D01*
X15611024Y4266500D01*
Y4381500D01*
X15607854Y4389154D01*
X15600200Y4392324D01*
X15593346D01*
Y4651313D01*
X15732187Y4790155D01*
X16019885D01*
X16028304Y4769828D01*
X16042122Y4751822D01*
X16060127Y4738004D01*
X16081097Y4729319D01*
X16103600Y4726356D01*
X16126103Y4729319D01*
X16147072Y4738004D01*
X16165079Y4751822D01*
X16178896Y4769828D01*
X16187581Y4790797D01*
X16190544Y4813300D01*
X16187581Y4835803D01*
X16178896Y4856772D01*
X16165079Y4874778D01*
X16147072Y4888596D01*
X16126103Y4897281D01*
X16103600Y4900244D01*
D02*
G37*
G36*
X10922000Y4925644D02*
X10899497Y4922681D01*
X10878528Y4913996D01*
X10860522Y4900178D01*
X10846704Y4882172D01*
X10838285Y4861845D01*
X10617200D01*
X10608343Y4860083D01*
X10600834Y4855066D01*
X10372234Y4626466D01*
X10367217Y4618957D01*
X10365455Y4610100D01*
Y4405024D01*
X10358600D01*
X10348851Y4404220D01*
X10343154Y4410655D01*
X10341912Y4412512D01*
X10333510Y4418126D01*
X10323600Y4420098D01*
X10306300D01*
Y4336700D01*
Y4253302D01*
X10323600D01*
X10333510Y4255274D01*
X10341912Y4260888D01*
X10343154Y4262745D01*
X10348851Y4269180D01*
X10358600Y4268376D01*
X10418600D01*
X10426254Y4271546D01*
X10429424Y4279200D01*
Y4394200D01*
X10426254Y4401854D01*
X10418600Y4405024D01*
X10411745D01*
Y4600513D01*
X10626787Y4815555D01*
X10838285D01*
X10846704Y4795228D01*
X10860522Y4777222D01*
X10878528Y4763404D01*
X10899497Y4754719D01*
X10922000Y4751756D01*
X10944503Y4754719D01*
X10965472Y4763404D01*
X10983478Y4777222D01*
X10997296Y4795228D01*
X11005981Y4816197D01*
X11008944Y4838700D01*
X11005981Y4861203D01*
X10997296Y4882172D01*
X10983478Y4900178D01*
X10965472Y4913996D01*
X10944503Y4922681D01*
X10922000Y4925644D01*
D02*
G37*
G36*
X5816600Y5141544D02*
X5794097Y5138581D01*
X5773128Y5129896D01*
X5755122Y5116078D01*
X5741304Y5098072D01*
X5732619Y5077103D01*
X5731031Y5065045D01*
X5360400D01*
X5351543Y5063283D01*
X5344034Y5058266D01*
X5102234Y4816466D01*
X5097217Y4808957D01*
X5095455Y4800100D01*
Y4373624D01*
X5088600D01*
X5080946Y4370454D01*
X5077776Y4362800D01*
Y4247800D01*
X5080946Y4240146D01*
X5088600Y4236976D01*
X5148600D01*
X5158349Y4237780D01*
X5164046Y4231345D01*
X5165288Y4229488D01*
X5173689Y4223874D01*
X5183600Y4221902D01*
X5200900D01*
Y4305300D01*
Y4388698D01*
X5183600D01*
X5173689Y4386726D01*
X5165288Y4381112D01*
X5164046Y4379255D01*
X5160586Y4375347D01*
X5146826Y4375398D01*
X5141745Y4380479D01*
Y4790513D01*
X5369986Y5018755D01*
X5738145D01*
X5741304Y5011128D01*
X5755122Y4993122D01*
X5773128Y4979304D01*
X5794097Y4970619D01*
X5816600Y4967656D01*
X5839103Y4970619D01*
X5860072Y4979304D01*
X5878078Y4993122D01*
X5891896Y5011128D01*
X5900581Y5032097D01*
X5903544Y5054600D01*
X5900581Y5077103D01*
X5891896Y5098072D01*
X5878078Y5116078D01*
X5860072Y5129896D01*
X5839103Y5138581D01*
X5816600Y5141544D01*
D02*
G37*
G36*
X14884399Y5154244D02*
X14861897Y5151281D01*
X14840929Y5142596D01*
X14822922Y5128778D01*
X14809103Y5110772D01*
X14800420Y5089803D01*
X14797456Y5067300D01*
X14800420Y5044797D01*
X14809103Y5023828D01*
X14822922Y5005822D01*
X14840929Y4992004D01*
X14861897Y4983319D01*
X14884399Y4980356D01*
X14906903Y4983319D01*
X14927872Y4992004D01*
X14945879Y5005822D01*
X14959695Y5023828D01*
X14968381Y5044797D01*
X14971344Y5067300D01*
X14968381Y5089803D01*
X14959695Y5110772D01*
X14945879Y5128778D01*
X14927872Y5142596D01*
X14906903Y5151281D01*
X14884399Y5154244D01*
D02*
G37*
G36*
X16103600D02*
X16081097Y5151281D01*
X16060127Y5142596D01*
X16042122Y5128778D01*
X16028304Y5110772D01*
X16019885Y5090445D01*
X15647400D01*
X15638544Y5088683D01*
X15631033Y5083666D01*
X15363834Y4816466D01*
X15358817Y4808957D01*
X15357056Y4800100D01*
Y4392324D01*
X15350200D01*
X15342546Y4389154D01*
X15339375Y4381500D01*
Y4266500D01*
X15342546Y4258846D01*
X15350200Y4255676D01*
X15410201D01*
X15419949Y4256480D01*
X15425645Y4250045D01*
X15426888Y4248188D01*
X15435289Y4242574D01*
X15445200Y4240602D01*
X15462500D01*
Y4324000D01*
Y4407398D01*
X15445200D01*
X15435289Y4405426D01*
X15426888Y4399812D01*
X15425645Y4397955D01*
X15422186Y4394047D01*
X15408426Y4394098D01*
X15403345Y4399179D01*
Y4790513D01*
X15656987Y5044155D01*
X16019885D01*
X16028304Y5023828D01*
X16042122Y5005822D01*
X16060127Y4992004D01*
X16081097Y4983319D01*
X16103600Y4980356D01*
X16126103Y4983319D01*
X16147072Y4992004D01*
X16165079Y5005822D01*
X16178896Y5023828D01*
X16187581Y5044797D01*
X16190544Y5067300D01*
X16187581Y5089803D01*
X16178896Y5110772D01*
X16165079Y5128778D01*
X16147072Y5142596D01*
X16126103Y5151281D01*
X16103600Y5154244D01*
D02*
G37*
G36*
X12293600Y4925644D02*
X12271097Y4922681D01*
X12250128Y4913996D01*
X12232122Y4900178D01*
X12218304Y4882172D01*
X12209619Y4861203D01*
X12206656Y4838700D01*
X12209619Y4816197D01*
X12218304Y4795228D01*
X12232122Y4777222D01*
X12250128Y4763404D01*
X12271097Y4754719D01*
X12293600Y4751756D01*
X12316103Y4754719D01*
X12337072Y4763404D01*
X12355078Y4777222D01*
X12368896Y4795228D01*
X12377581Y4816197D01*
X12380544Y4838700D01*
X12377581Y4861203D01*
X12368896Y4882172D01*
X12355078Y4900178D01*
X12337072Y4913996D01*
X12316103Y4922681D01*
X12293600Y4925644D01*
D02*
G37*
G36*
X13512801D02*
X13490297Y4922681D01*
X13469328Y4913996D01*
X13451321Y4900178D01*
X13437505Y4882172D01*
X13429085Y4861845D01*
X13157201D01*
X13148343Y4860083D01*
X13140834Y4855066D01*
X12963034Y4677266D01*
X12958017Y4669757D01*
X12956255Y4660900D01*
Y4392324D01*
X12949400D01*
X12939651Y4391520D01*
X12933954Y4397955D01*
X12932712Y4399812D01*
X12924310Y4405426D01*
X12914400Y4407398D01*
X12897099D01*
Y4324000D01*
Y4240602D01*
X12914400D01*
X12924310Y4242574D01*
X12932712Y4248188D01*
X12933954Y4250045D01*
X12939651Y4256480D01*
X12949400Y4255676D01*
X13009399D01*
X13017055Y4258846D01*
X13020224Y4266500D01*
Y4381500D01*
X13017055Y4389154D01*
X13009399Y4392324D01*
X13002545D01*
Y4651313D01*
X13166788Y4815555D01*
X13429085D01*
X13437505Y4795228D01*
X13451321Y4777222D01*
X13469328Y4763404D01*
X13490297Y4754719D01*
X13512801Y4751756D01*
X13535303Y4754719D01*
X13556271Y4763404D01*
X13574278Y4777222D01*
X13588097Y4795228D01*
X13596780Y4816197D01*
X13599744Y4838700D01*
X13596780Y4861203D01*
X13588097Y4882172D01*
X13574278Y4900178D01*
X13556271Y4913996D01*
X13535303Y4922681D01*
X13512801Y4925644D01*
D02*
G37*
G36*
X4597400Y5141544D02*
X4574897Y5138581D01*
X4553928Y5129896D01*
X4535922Y5116078D01*
X4522104Y5098072D01*
X4513419Y5077103D01*
X4510456Y5054600D01*
X4513419Y5032097D01*
X4522104Y5011128D01*
X4535922Y4993122D01*
X4553928Y4979304D01*
X4574897Y4970619D01*
X4597400Y4967656D01*
X4619903Y4970619D01*
X4640872Y4979304D01*
X4658878Y4993122D01*
X4672696Y5011128D01*
X4681381Y5032097D01*
X4684344Y5054600D01*
X4681381Y5077103D01*
X4672696Y5098072D01*
X4658878Y5116078D01*
X4640872Y5129896D01*
X4619903Y5138581D01*
X4597400Y5141544D01*
D02*
G37*
G36*
Y4887544D02*
X4574897Y4884581D01*
X4553928Y4875896D01*
X4535922Y4862078D01*
X4522104Y4844072D01*
X4513419Y4823103D01*
X4510456Y4800600D01*
X4513419Y4778097D01*
X4522104Y4757128D01*
X4535922Y4739122D01*
X4553928Y4725304D01*
X4574897Y4716619D01*
X4597400Y4713656D01*
X4619903Y4716619D01*
X4640872Y4725304D01*
X4658878Y4739122D01*
X4672696Y4757128D01*
X4681381Y4778097D01*
X4684344Y4800600D01*
X4681381Y4823103D01*
X4672696Y4844072D01*
X4658878Y4862078D01*
X4640872Y4875896D01*
X4619903Y4884581D01*
X4597400Y4887544D01*
D02*
G37*
G36*
X8356600Y4404944D02*
X8334097Y4401981D01*
X8313128Y4393296D01*
X8295122Y4379478D01*
X8281304Y4361472D01*
X8272619Y4340503D01*
X8269656Y4318000D01*
X8272619Y4295497D01*
X8281039Y4275170D01*
X8149734Y4143866D01*
X8144717Y4136357D01*
X8142955Y4127500D01*
Y3997387D01*
X8067613Y3922045D01*
X7693087D01*
X7668545Y3946587D01*
Y3982976D01*
X7675400D01*
X7685149Y3983780D01*
X7690846Y3977345D01*
X7692088Y3975488D01*
X7700490Y3969874D01*
X7710400Y3967902D01*
X7727700D01*
Y4051300D01*
Y4134698D01*
X7710400D01*
X7700490Y4132726D01*
X7692088Y4127112D01*
X7690846Y4125255D01*
X7685149Y4118820D01*
X7675400Y4119624D01*
X7615400D01*
X7607746Y4116454D01*
X7604576Y4108800D01*
Y3993800D01*
X7607746Y3986146D01*
X7615400Y3982976D01*
X7622255D01*
Y3937000D01*
X7624017Y3928143D01*
X7629034Y3920634D01*
X7667134Y3882534D01*
X7674643Y3877517D01*
X7683500Y3875755D01*
X8077200D01*
X8086057Y3877517D01*
X8093566Y3882534D01*
X8182466Y3971434D01*
X8187483Y3978943D01*
X8189245Y3987800D01*
Y4117913D01*
X8313770Y4242439D01*
X8334097Y4234019D01*
X8356600Y4231056D01*
X8379103Y4234019D01*
X8400072Y4242704D01*
X8418078Y4256522D01*
X8431896Y4274528D01*
X8440581Y4295497D01*
X8443544Y4318000D01*
X8440581Y4340503D01*
X8431896Y4361472D01*
X8418078Y4379478D01*
X8400072Y4393296D01*
X8379103Y4401981D01*
X8356600Y4404944D01*
D02*
G37*
G36*
X9702800Y4671644D02*
X9680297Y4668681D01*
X9659328Y4659996D01*
X9641322Y4646178D01*
X9627504Y4628172D01*
X9618819Y4607203D01*
X9615856Y4584700D01*
X9618819Y4562197D01*
X9627504Y4541228D01*
X9641322Y4523222D01*
X9659328Y4509404D01*
X9679655Y4500985D01*
Y4414415D01*
X9659328Y4405996D01*
X9641322Y4392178D01*
X9627504Y4374172D01*
X9618819Y4353203D01*
X9615856Y4330700D01*
X9618819Y4308197D01*
X9627504Y4287228D01*
X9641322Y4269222D01*
X9659328Y4255404D01*
X9680297Y4246719D01*
X9702800Y4243756D01*
X9725303Y4246719D01*
X9746272Y4255404D01*
X9764278Y4269222D01*
X9778096Y4287228D01*
X9786781Y4308197D01*
X9789744Y4330700D01*
X9786781Y4353203D01*
X9778096Y4374172D01*
X9764278Y4392178D01*
X9746272Y4405996D01*
X9725945Y4414415D01*
Y4500985D01*
X9746272Y4509404D01*
X9764278Y4523222D01*
X9778096Y4541228D01*
X9786781Y4562197D01*
X9789744Y4584700D01*
X9786781Y4607203D01*
X9778096Y4628172D01*
X9764278Y4646178D01*
X9746272Y4659996D01*
X9725303Y4668681D01*
X9702800Y4671644D01*
D02*
G37*
G36*
X10922000Y4417644D02*
X10899497Y4414681D01*
X10878528Y4405996D01*
X10860522Y4392178D01*
X10846704Y4374172D01*
X10838019Y4353203D01*
X10835056Y4330700D01*
X10838019Y4308197D01*
X10846439Y4287870D01*
X10715134Y4156566D01*
X10710117Y4149057D01*
X10708355Y4140200D01*
Y4060887D01*
X10607613Y3960145D01*
X10245787D01*
X10221245Y3984687D01*
Y4008376D01*
X10228600D01*
X10238349Y4009180D01*
X10244046Y4002745D01*
X10245288Y4000888D01*
X10253689Y3995274D01*
X10263600Y3993302D01*
X10280900D01*
Y4076700D01*
Y4160098D01*
X10263600D01*
X10253689Y4158126D01*
X10245288Y4152512D01*
X10244046Y4150655D01*
X10238349Y4144220D01*
X10228600Y4145024D01*
X10168600D01*
X10160946Y4141854D01*
X10157776Y4134200D01*
Y4019200D01*
X10160946Y4011546D01*
X10168600Y4008376D01*
X10174955D01*
Y3975100D01*
X10176717Y3966243D01*
X10181734Y3958734D01*
X10219834Y3920634D01*
X10227343Y3915617D01*
X10236200Y3913855D01*
X10617200D01*
X10626057Y3915617D01*
X10633566Y3920634D01*
X10747866Y4034934D01*
X10752883Y4042443D01*
X10754645Y4051300D01*
Y4130613D01*
X10879170Y4255139D01*
X10899497Y4246719D01*
X10922000Y4243756D01*
X10944503Y4246719D01*
X10965472Y4255404D01*
X10983478Y4269222D01*
X10997296Y4287228D01*
X11005981Y4308197D01*
X11008944Y4330700D01*
X11005981Y4353203D01*
X10997296Y4374172D01*
X10983478Y4392178D01*
X10965472Y4405996D01*
X10944503Y4414681D01*
X10922000Y4417644D01*
D02*
G37*
G36*
X14884399Y4646244D02*
X14861897Y4643281D01*
X14840929Y4634596D01*
X14822922Y4620778D01*
X14809103Y4602772D01*
X14800420Y4581803D01*
X14797456Y4559300D01*
X14800420Y4536797D01*
X14809103Y4515828D01*
X14822922Y4497822D01*
X14840929Y4484004D01*
X14861255Y4475585D01*
Y4389015D01*
X14840929Y4380596D01*
X14822922Y4366778D01*
X14809103Y4348772D01*
X14800420Y4327803D01*
X14797456Y4305300D01*
X14800420Y4282797D01*
X14809103Y4261828D01*
X14822922Y4243822D01*
X14840929Y4230004D01*
X14861897Y4221319D01*
X14884399Y4218356D01*
X14906903Y4221319D01*
X14927872Y4230004D01*
X14945879Y4243822D01*
X14959695Y4261828D01*
X14968381Y4282797D01*
X14971344Y4305300D01*
X14968381Y4327803D01*
X14959695Y4348772D01*
X14945879Y4366778D01*
X14927872Y4380596D01*
X14907545Y4389015D01*
Y4475585D01*
X14927872Y4484004D01*
X14945879Y4497822D01*
X14959695Y4515828D01*
X14968381Y4536797D01*
X14971344Y4559300D01*
X14968381Y4581803D01*
X14959695Y4602772D01*
X14945879Y4620778D01*
X14927872Y4634596D01*
X14906903Y4643281D01*
X14884399Y4646244D01*
D02*
G37*
G36*
X16103600Y4392244D02*
X16081097Y4389281D01*
X16060127Y4380596D01*
X16042122Y4366778D01*
X16028304Y4348772D01*
X16019885Y4328445D01*
X16014700D01*
X16005843Y4326683D01*
X15998334Y4321666D01*
X15871333Y4194666D01*
X15866318Y4187157D01*
X15864555Y4178300D01*
Y3999386D01*
X15750114Y3884944D01*
X15452786D01*
X15403345Y3934387D01*
Y3995676D01*
X15410201D01*
X15419949Y3996480D01*
X15425645Y3990045D01*
X15426888Y3988188D01*
X15435289Y3982574D01*
X15445200Y3980602D01*
X15462500D01*
Y4064000D01*
Y4147398D01*
X15445200D01*
X15435289Y4145426D01*
X15426888Y4139812D01*
X15425645Y4137955D01*
X15419949Y4131520D01*
X15410201Y4132324D01*
X15350200D01*
X15342546Y4129154D01*
X15339375Y4121500D01*
Y4006500D01*
X15342546Y3998846D01*
X15350200Y3995676D01*
X15357056D01*
Y3924800D01*
X15358817Y3915943D01*
X15363834Y3908434D01*
X15426834Y3845434D01*
X15434343Y3840417D01*
X15443201Y3838655D01*
X15759700D01*
X15768558Y3840417D01*
X15776067Y3845434D01*
X15904066Y3973434D01*
X15909084Y3980942D01*
X15910844Y3989799D01*
Y4168713D01*
X16013092Y4270960D01*
X16025548Y4268483D01*
X16028304Y4261828D01*
X16042122Y4243822D01*
X16060127Y4230004D01*
X16081097Y4221319D01*
X16103600Y4218356D01*
X16126103Y4221319D01*
X16147072Y4230004D01*
X16165079Y4243822D01*
X16178896Y4261828D01*
X16187581Y4282797D01*
X16190544Y4305300D01*
X16187581Y4327803D01*
X16178896Y4348772D01*
X16165079Y4366778D01*
X16147072Y4380596D01*
X16126103Y4389281D01*
X16103600Y4392244D01*
D02*
G37*
G36*
X7137400Y4658944D02*
X7114897Y4655981D01*
X7093928Y4647296D01*
X7075922Y4633478D01*
X7062104Y4615472D01*
X7053419Y4594503D01*
X7050456Y4572000D01*
X7053419Y4549497D01*
X7062104Y4528528D01*
X7075922Y4510522D01*
X7093928Y4496704D01*
X7114255Y4488285D01*
Y4401715D01*
X7093928Y4393296D01*
X7075922Y4379478D01*
X7062104Y4361472D01*
X7053419Y4340503D01*
X7050456Y4318000D01*
X7053419Y4295497D01*
X7062104Y4274528D01*
X7075922Y4256522D01*
X7093928Y4242704D01*
X7114897Y4234019D01*
X7137400Y4231056D01*
X7159903Y4234019D01*
X7180872Y4242704D01*
X7198878Y4256522D01*
X7212696Y4274528D01*
X7221381Y4295497D01*
X7224344Y4318000D01*
X7221381Y4340503D01*
X7212696Y4361472D01*
X7198878Y4379478D01*
X7180872Y4393296D01*
X7160545Y4401715D01*
Y4488285D01*
X7180872Y4496704D01*
X7198878Y4510522D01*
X7212696Y4528528D01*
X7221381Y4549497D01*
X7224344Y4572000D01*
X7221381Y4594503D01*
X7212696Y4615472D01*
X7198878Y4633478D01*
X7180872Y4647296D01*
X7159903Y4655981D01*
X7137400Y4658944D01*
D02*
G37*
G36*
X12293600Y4671644D02*
X12271097Y4668681D01*
X12250128Y4659996D01*
X12232122Y4646178D01*
X12218304Y4628172D01*
X12209619Y4607203D01*
X12206656Y4584700D01*
X12209619Y4562197D01*
X12218304Y4541228D01*
X12232122Y4523222D01*
X12250128Y4509404D01*
X12270455Y4500985D01*
Y4414415D01*
X12250128Y4405996D01*
X12232122Y4392178D01*
X12218304Y4374172D01*
X12209619Y4353203D01*
X12206656Y4330700D01*
X12209619Y4308197D01*
X12218304Y4287228D01*
X12232122Y4269222D01*
X12250128Y4255404D01*
X12271097Y4246719D01*
X12293600Y4243756D01*
X12316103Y4246719D01*
X12337072Y4255404D01*
X12355078Y4269222D01*
X12368896Y4287228D01*
X12377581Y4308197D01*
X12380544Y4330700D01*
X12377581Y4353203D01*
X12368896Y4374172D01*
X12355078Y4392178D01*
X12337072Y4405996D01*
X12316745Y4414415D01*
Y4500985D01*
X12337072Y4509404D01*
X12355078Y4523222D01*
X12368896Y4541228D01*
X12377581Y4562197D01*
X12380544Y4584700D01*
X12377581Y4607203D01*
X12368896Y4628172D01*
X12355078Y4646178D01*
X12337072Y4659996D01*
X12316103Y4668681D01*
X12293600Y4671644D01*
D02*
G37*
G36*
X8356600Y4658944D02*
X8334097Y4655981D01*
X8313128Y4647296D01*
X8295122Y4633478D01*
X8281304Y4615472D01*
X8272885Y4595145D01*
X8191500D01*
X8182643Y4593383D01*
X8175134Y4588366D01*
X8035434Y4448666D01*
X8030417Y4441157D01*
X8028655Y4432300D01*
Y4137087D01*
X7966013Y4074445D01*
X7876224D01*
Y4108800D01*
X7873054Y4116454D01*
X7865400Y4119624D01*
X7805400D01*
X7795651Y4118820D01*
X7789954Y4125255D01*
X7788712Y4127112D01*
X7780311Y4132726D01*
X7770400Y4134698D01*
X7753100D01*
Y4051300D01*
Y3967902D01*
X7770400D01*
X7780311Y3969874D01*
X7788712Y3975488D01*
X7789954Y3977345D01*
X7795651Y3983780D01*
X7805400Y3982976D01*
X7865400D01*
X7873054Y3986146D01*
X7876224Y3993800D01*
Y4028155D01*
X7975600D01*
X7984457Y4029917D01*
X7991966Y4034934D01*
X8068166Y4111134D01*
X8073183Y4118643D01*
X8074945Y4127500D01*
Y4422713D01*
X8201087Y4548855D01*
X8272885D01*
X8281304Y4528528D01*
X8295122Y4510522D01*
X8313128Y4496704D01*
X8334097Y4488019D01*
X8356600Y4485056D01*
X8379103Y4488019D01*
X8400072Y4496704D01*
X8418078Y4510522D01*
X8431896Y4528528D01*
X8440581Y4549497D01*
X8443544Y4572000D01*
X8440581Y4594503D01*
X8431896Y4615472D01*
X8418078Y4633478D01*
X8400072Y4647296D01*
X8379103Y4655981D01*
X8356600Y4658944D01*
D02*
G37*
G36*
X10922000Y4671644D02*
X10899497Y4668681D01*
X10878528Y4659996D01*
X10860522Y4646178D01*
X10846704Y4628172D01*
X10838285Y4607845D01*
X10731500D01*
X10722643Y4606083D01*
X10715134Y4601066D01*
X10613534Y4499466D01*
X10608517Y4491957D01*
X10606755Y4483100D01*
Y4200587D01*
X10506013Y4099845D01*
X10429424D01*
Y4134200D01*
X10426254Y4141854D01*
X10418600Y4145024D01*
X10358600D01*
X10348851Y4144220D01*
X10343154Y4150655D01*
X10341912Y4152512D01*
X10333510Y4158126D01*
X10323600Y4160098D01*
X10306300D01*
Y4076700D01*
Y3993302D01*
X10323600D01*
X10333510Y3995274D01*
X10341912Y4000888D01*
X10343154Y4002745D01*
X10348851Y4009180D01*
X10358600Y4008376D01*
X10418600D01*
X10426254Y4011546D01*
X10429424Y4019200D01*
Y4053555D01*
X10515600D01*
X10524457Y4055317D01*
X10531966Y4060334D01*
X10646266Y4174634D01*
X10651283Y4182143D01*
X10653045Y4191000D01*
Y4473513D01*
X10741087Y4561555D01*
X10838285D01*
X10846704Y4541228D01*
X10860522Y4523222D01*
X10878528Y4509404D01*
X10899497Y4500719D01*
X10922000Y4497756D01*
X10944503Y4500719D01*
X10965472Y4509404D01*
X10983478Y4523222D01*
X10997296Y4541228D01*
X11005981Y4562197D01*
X11008944Y4584700D01*
X11005981Y4607203D01*
X10997296Y4628172D01*
X10983478Y4646178D01*
X10965472Y4659996D01*
X10944503Y4668681D01*
X10922000Y4671644D01*
D02*
G37*
G36*
X13512801D02*
X13490297Y4668681D01*
X13469328Y4659996D01*
X13451321Y4646178D01*
X13437505Y4628172D01*
X13429085Y4607845D01*
X13335001D01*
X13326143Y4606083D01*
X13318634Y4601066D01*
X13204333Y4486766D01*
X13199316Y4479257D01*
X13197556Y4470400D01*
Y4200587D01*
X13084113Y4087145D01*
X13020224D01*
Y4121500D01*
X13017055Y4129154D01*
X13009399Y4132324D01*
X12949400D01*
X12939651Y4131520D01*
X12933954Y4137955D01*
X12932712Y4139812D01*
X12924310Y4145426D01*
X12914400Y4147398D01*
X12897099D01*
Y4064000D01*
Y3980602D01*
X12914400D01*
X12924310Y3982574D01*
X12932712Y3988188D01*
X12933954Y3990045D01*
X12939651Y3996480D01*
X12949400Y3995676D01*
X13009399D01*
X13017055Y3998846D01*
X13020224Y4006500D01*
Y4040855D01*
X13093700D01*
X13102557Y4042617D01*
X13110066Y4047634D01*
X13237067Y4174634D01*
X13242084Y4182143D01*
X13243845Y4191000D01*
Y4460813D01*
X13344588Y4561555D01*
X13429085D01*
X13437505Y4541228D01*
X13451321Y4523222D01*
X13469328Y4509404D01*
X13490297Y4500719D01*
X13512801Y4497756D01*
X13535303Y4500719D01*
X13556271Y4509404D01*
X13574278Y4523222D01*
X13588097Y4541228D01*
X13596780Y4562197D01*
X13599744Y4584700D01*
X13596780Y4607203D01*
X13588097Y4628172D01*
X13574278Y4646178D01*
X13556271Y4659996D01*
X13535303Y4668681D01*
X13512801Y4671644D01*
D02*
G37*
G36*
Y4417644D02*
X13490297Y4414681D01*
X13469328Y4405996D01*
X13451321Y4392178D01*
X13437505Y4374172D01*
X13428819Y4353203D01*
X13425856Y4330700D01*
X13428819Y4308197D01*
X13437239Y4287870D01*
X13344034Y4194666D01*
X13339017Y4187157D01*
X13337254Y4178300D01*
Y4073587D01*
X13173013Y3909345D01*
X12849287D01*
X12812544Y3946087D01*
Y3995676D01*
X12819400D01*
X12829149Y3996480D01*
X12834846Y3990045D01*
X12836089Y3988188D01*
X12844489Y3982574D01*
X12854401Y3980602D01*
X12871700D01*
Y4064000D01*
Y4147398D01*
X12854401D01*
X12844489Y4145426D01*
X12836089Y4139812D01*
X12834846Y4137955D01*
X12829149Y4131520D01*
X12819400Y4132324D01*
X12759400D01*
X12751746Y4129154D01*
X12748576Y4121500D01*
Y4006500D01*
X12751746Y3998846D01*
X12759400Y3995676D01*
X12766255D01*
Y3936500D01*
X12768017Y3927643D01*
X12773034Y3920134D01*
X12823334Y3869834D01*
X12830843Y3864817D01*
X12839700Y3863055D01*
X13182600D01*
X13191457Y3864817D01*
X13198965Y3869834D01*
X13376765Y4047634D01*
X13381783Y4055143D01*
X13383545Y4064000D01*
Y4168713D01*
X13469971Y4255139D01*
X13490297Y4246719D01*
X13512801Y4243756D01*
X13535303Y4246719D01*
X13556271Y4255404D01*
X13574278Y4269222D01*
X13588097Y4287228D01*
X13596780Y4308197D01*
X13599744Y4330700D01*
X13596780Y4353203D01*
X13588097Y4374172D01*
X13574278Y4392178D01*
X13556271Y4405996D01*
X13535303Y4414681D01*
X13512801Y4417644D01*
D02*
G37*
G36*
X5816600Y4633544D02*
X5794097Y4630581D01*
X5773128Y4621896D01*
X5755122Y4608078D01*
X5741304Y4590072D01*
X5732885Y4569745D01*
X5664200D01*
X5655343Y4567983D01*
X5647834Y4562966D01*
X5520834Y4435966D01*
X5515817Y4428457D01*
X5514055Y4419600D01*
Y4124387D01*
X5458113Y4068445D01*
X5349424D01*
Y4102800D01*
X5346254Y4110454D01*
X5338600Y4113624D01*
X5278600D01*
X5268851Y4112820D01*
X5263154Y4119255D01*
X5261912Y4121112D01*
X5253510Y4126726D01*
X5243600Y4128698D01*
X5226300D01*
Y4045300D01*
Y3961902D01*
X5243600D01*
X5253510Y3963874D01*
X5261912Y3969488D01*
X5263154Y3971345D01*
X5268851Y3977780D01*
X5278600Y3976976D01*
X5338600D01*
X5346254Y3980146D01*
X5349424Y3987800D01*
Y4022155D01*
X5467700D01*
X5476557Y4023917D01*
X5484066Y4028934D01*
X5553566Y4098434D01*
X5558583Y4105943D01*
X5560345Y4114800D01*
Y4410013D01*
X5673787Y4523455D01*
X5732885D01*
X5741304Y4503128D01*
X5755122Y4485122D01*
X5773128Y4471304D01*
X5794097Y4462619D01*
X5816600Y4459656D01*
X5839103Y4462619D01*
X5860072Y4471304D01*
X5878078Y4485122D01*
X5891896Y4503128D01*
X5900581Y4524097D01*
X5903544Y4546600D01*
X5900581Y4569103D01*
X5891896Y4590072D01*
X5878078Y4608078D01*
X5860072Y4621896D01*
X5839103Y4630581D01*
X5816600Y4633544D01*
D02*
G37*
G36*
X16103600Y4646244D02*
X16081097Y4643281D01*
X16060127Y4634596D01*
X16042122Y4620778D01*
X16028304Y4602772D01*
X16019885Y4582445D01*
X15900400D01*
X15891544Y4580683D01*
X15884035Y4575666D01*
X15744334Y4435966D01*
X15739317Y4428457D01*
X15737555Y4419600D01*
Y4137087D01*
X15687613Y4087145D01*
X15611024D01*
Y4121500D01*
X15607854Y4129154D01*
X15600200Y4132324D01*
X15540199D01*
X15530450Y4131520D01*
X15524754Y4137955D01*
X15523512Y4139812D01*
X15515109Y4145426D01*
X15505200Y4147398D01*
X15487900D01*
Y4064000D01*
Y3980602D01*
X15505200D01*
X15515109Y3982574D01*
X15523512Y3988188D01*
X15524754Y3990045D01*
X15530450Y3996480D01*
X15540199Y3995676D01*
X15600200D01*
X15607854Y3998846D01*
X15611024Y4006500D01*
Y4040855D01*
X15697200D01*
X15706058Y4042617D01*
X15713567Y4047634D01*
X15777066Y4111134D01*
X15782083Y4118643D01*
X15783846Y4127500D01*
Y4410013D01*
X15909987Y4536155D01*
X16019885D01*
X16028304Y4515828D01*
X16042122Y4497822D01*
X16060127Y4484004D01*
X16081097Y4475319D01*
X16103600Y4472356D01*
X16126103Y4475319D01*
X16147072Y4484004D01*
X16165079Y4497822D01*
X16178896Y4515828D01*
X16187581Y4536797D01*
X16190544Y4559300D01*
X16187581Y4581803D01*
X16178896Y4602772D01*
X16165079Y4620778D01*
X16147072Y4634596D01*
X16126103Y4643281D01*
X16103600Y4646244D01*
D02*
G37*
G36*
X13613605Y5334000D02*
X13525500D01*
Y5245895D01*
X13539323Y5247715D01*
X13564038Y5257952D01*
X13585262Y5274238D01*
X13601547Y5295462D01*
X13611784Y5320177D01*
X13613605Y5334000D01*
D02*
G37*
G36*
X7137400Y5420944D02*
X7114897Y5417981D01*
X7093928Y5409296D01*
X7075922Y5395478D01*
X7062104Y5377472D01*
X7053419Y5356503D01*
X7050456Y5334000D01*
X7053419Y5311497D01*
X7062104Y5290528D01*
X7075922Y5272522D01*
X7093928Y5258704D01*
X7114897Y5250019D01*
X7137400Y5247056D01*
X7159903Y5250019D01*
X7180872Y5258704D01*
X7198878Y5272522D01*
X7212696Y5290528D01*
X7221381Y5311497D01*
X7224344Y5334000D01*
X7221381Y5356503D01*
X7212696Y5377472D01*
X7198878Y5395478D01*
X7180872Y5409296D01*
X7159903Y5417981D01*
X7137400Y5420944D01*
D02*
G37*
G36*
X9702800Y5433644D02*
X9680297Y5430681D01*
X9659328Y5421996D01*
X9641322Y5408178D01*
X9627504Y5390172D01*
X9618819Y5369203D01*
X9615856Y5346700D01*
X9618819Y5324197D01*
X9627504Y5303228D01*
X9641322Y5285222D01*
X9659328Y5271404D01*
X9680297Y5262719D01*
X9702800Y5259756D01*
X9725303Y5262719D01*
X9746272Y5271404D01*
X9764278Y5285222D01*
X9778096Y5303228D01*
X9786781Y5324197D01*
X9789744Y5346700D01*
X9786781Y5369203D01*
X9778096Y5390172D01*
X9764278Y5408178D01*
X9746272Y5421996D01*
X9725303Y5430681D01*
X9702800Y5433644D01*
D02*
G37*
G36*
X10909300Y5334000D02*
X10821195D01*
X10823015Y5320177D01*
X10833252Y5295462D01*
X10849538Y5274238D01*
X10870762Y5257952D01*
X10895477Y5247715D01*
X10909300Y5245895D01*
Y5334000D01*
D02*
G37*
G36*
X11022805D02*
X10934700D01*
Y5245895D01*
X10948523Y5247715D01*
X10973238Y5257952D01*
X10994462Y5274238D01*
X11010748Y5295462D01*
X11020985Y5320177D01*
X11022805Y5334000D01*
D02*
G37*
G36*
X13500101D02*
X13411995D01*
X13413815Y5320177D01*
X13424052Y5295462D01*
X13440338Y5274238D01*
X13461562Y5257952D01*
X13486276Y5247715D01*
X13500101Y5245895D01*
Y5334000D01*
D02*
G37*
G36*
X12293600Y5433644D02*
X12271097Y5430681D01*
X12250128Y5421996D01*
X12232122Y5408178D01*
X12218304Y5390172D01*
X12209619Y5369203D01*
X12206656Y5346700D01*
X12209619Y5324197D01*
X12218304Y5303228D01*
X12232122Y5285222D01*
X12250128Y5271404D01*
X12271097Y5262719D01*
X12293600Y5259756D01*
X12316103Y5262719D01*
X12337072Y5271404D01*
X12355078Y5285222D01*
X12368896Y5303228D01*
X12377581Y5324197D01*
X12380544Y5346700D01*
X12377581Y5369203D01*
X12368896Y5390172D01*
X12355078Y5408178D01*
X12337072Y5421996D01*
X12316103Y5430681D01*
X12293600Y5433644D01*
D02*
G37*
G36*
X15823331Y5372099D02*
X15744000D01*
Y5292770D01*
X15755553Y5294291D01*
X15778151Y5303652D01*
X15797557Y5318542D01*
X15812448Y5337949D01*
X15821809Y5360548D01*
X15823331Y5372099D01*
D02*
G37*
G36*
X13127800Y5384799D02*
X13048470D01*
X13049991Y5373248D01*
X13059352Y5350649D01*
X13074243Y5331242D01*
X13093649Y5316352D01*
X13116248Y5306991D01*
X13127800Y5305470D01*
Y5384799D01*
D02*
G37*
G36*
X13232530D02*
X13153200D01*
Y5305470D01*
X13164752Y5306991D01*
X13187350Y5316352D01*
X13206757Y5331242D01*
X13221648Y5350649D01*
X13231009Y5373248D01*
X13232530Y5384799D01*
D02*
G37*
G36*
X5444300Y5359399D02*
X5364970D01*
X5366491Y5347848D01*
X5375852Y5325249D01*
X5390743Y5305842D01*
X5410149Y5290952D01*
X5432748Y5281591D01*
X5444300Y5280070D01*
Y5359399D01*
D02*
G37*
G36*
X5549030D02*
X5469700D01*
Y5280070D01*
X5481252Y5281591D01*
X5503851Y5290952D01*
X5523257Y5305842D01*
X5538148Y5325249D01*
X5547509Y5347848D01*
X5549030Y5359399D01*
D02*
G37*
G36*
X15718600Y5372099D02*
X15639270D01*
X15640791Y5360548D01*
X15650153Y5337949D01*
X15665044Y5318542D01*
X15684448Y5303652D01*
X15707048Y5294291D01*
X15718600Y5292770D01*
Y5372099D01*
D02*
G37*
G36*
X14884399Y5408244D02*
X14861897Y5405281D01*
X14840929Y5396596D01*
X14822922Y5382778D01*
X14809103Y5364772D01*
X14800420Y5343803D01*
X14797456Y5321300D01*
X14800420Y5298797D01*
X14809103Y5277828D01*
X14822922Y5259822D01*
X14840929Y5246004D01*
X14861897Y5237319D01*
X14884399Y5234356D01*
X14906903Y5237319D01*
X14927872Y5246004D01*
X14945879Y5259822D01*
X14959695Y5277828D01*
X14968381Y5298797D01*
X14971344Y5321300D01*
X14968381Y5343803D01*
X14959695Y5364772D01*
X14945879Y5382778D01*
X14927872Y5396596D01*
X14906903Y5405281D01*
X14884399Y5408244D01*
D02*
G37*
G36*
X10922000Y5179644D02*
X10899497Y5176681D01*
X10878528Y5167996D01*
X10860522Y5154178D01*
X10846704Y5136172D01*
X10838285Y5115845D01*
X10464800D01*
X10455943Y5114083D01*
X10448434Y5109066D01*
X10182234Y4842866D01*
X10177217Y4835357D01*
X10175455Y4826500D01*
Y4405024D01*
X10168600D01*
X10160946Y4401854D01*
X10157776Y4394200D01*
Y4279200D01*
X10160946Y4271546D01*
X10168600Y4268376D01*
X10228600D01*
X10238349Y4269180D01*
X10244046Y4262745D01*
X10245288Y4260888D01*
X10253689Y4255274D01*
X10263600Y4253302D01*
X10280900D01*
Y4336700D01*
Y4420098D01*
X10263600D01*
X10253689Y4418126D01*
X10245288Y4412512D01*
X10244046Y4410655D01*
X10240586Y4406747D01*
X10226826Y4406798D01*
X10221745Y4411879D01*
Y4816913D01*
X10474387Y5069555D01*
X10838285D01*
X10846704Y5049228D01*
X10860522Y5031222D01*
X10878528Y5017404D01*
X10899497Y5008719D01*
X10922000Y5005756D01*
X10944503Y5008719D01*
X10965472Y5017404D01*
X10983478Y5031222D01*
X10997296Y5049228D01*
X11005981Y5070197D01*
X11008944Y5092700D01*
X11005981Y5115203D01*
X10997296Y5136172D01*
X10983478Y5154178D01*
X10965472Y5167996D01*
X10944503Y5176681D01*
X10922000Y5179644D01*
D02*
G37*
G36*
X12293600D02*
X12271097Y5176681D01*
X12250128Y5167996D01*
X12232122Y5154178D01*
X12218304Y5136172D01*
X12209619Y5115203D01*
X12206656Y5092700D01*
X12209619Y5070197D01*
X12218304Y5049228D01*
X12232122Y5031222D01*
X12250128Y5017404D01*
X12271097Y5008719D01*
X12293600Y5005756D01*
X12316103Y5008719D01*
X12337072Y5017404D01*
X12355078Y5031222D01*
X12368896Y5049228D01*
X12377581Y5070197D01*
X12380544Y5092700D01*
X12377581Y5115203D01*
X12368896Y5136172D01*
X12355078Y5154178D01*
X12337072Y5167996D01*
X12316103Y5176681D01*
X12293600Y5179644D01*
D02*
G37*
G36*
X13512801D02*
X13490297Y5176681D01*
X13469328Y5167996D01*
X13451321Y5154178D01*
X13437505Y5136172D01*
X13429085Y5115845D01*
X13119099D01*
X13110243Y5114083D01*
X13102734Y5109066D01*
X12773034Y4779366D01*
X12768017Y4771857D01*
X12766255Y4763000D01*
Y4392324D01*
X12759400D01*
X12751746Y4389154D01*
X12748576Y4381500D01*
Y4266500D01*
X12751746Y4258846D01*
X12759400Y4255676D01*
X12819400D01*
X12829149Y4256480D01*
X12834846Y4250045D01*
X12836089Y4248188D01*
X12844489Y4242574D01*
X12854401Y4240602D01*
X12871700D01*
Y4324000D01*
Y4407398D01*
X12854401D01*
X12844489Y4405426D01*
X12836089Y4399812D01*
X12834846Y4397955D01*
X12831386Y4394047D01*
X12817625Y4394098D01*
X12812544Y4399179D01*
Y4753413D01*
X13128687Y5069555D01*
X13429085D01*
X13437505Y5049228D01*
X13451321Y5031222D01*
X13469328Y5017404D01*
X13490297Y5008719D01*
X13512801Y5005756D01*
X13535303Y5008719D01*
X13556271Y5017404D01*
X13574278Y5031222D01*
X13588097Y5049228D01*
X13596780Y5070197D01*
X13599744Y5092700D01*
X13596780Y5115203D01*
X13588097Y5136172D01*
X13574278Y5154178D01*
X13556271Y5167996D01*
X13535303Y5176681D01*
X13512801Y5179644D01*
D02*
G37*
G36*
X7137400Y5166944D02*
X7114897Y5163981D01*
X7093928Y5155296D01*
X7075922Y5141478D01*
X7062104Y5123472D01*
X7053419Y5102503D01*
X7050456Y5080000D01*
X7053419Y5057497D01*
X7062104Y5036528D01*
X7075922Y5018522D01*
X7093928Y5004704D01*
X7114897Y4996019D01*
X7137400Y4993056D01*
X7159903Y4996019D01*
X7180872Y5004704D01*
X7198878Y5018522D01*
X7212696Y5036528D01*
X7221381Y5057497D01*
X7224344Y5080000D01*
X7221381Y5102503D01*
X7212696Y5123472D01*
X7198878Y5141478D01*
X7180872Y5155296D01*
X7159903Y5163981D01*
X7137400Y5166944D01*
D02*
G37*
G36*
X8356600D02*
X8334097Y5163981D01*
X8313128Y5155296D01*
X8295122Y5141478D01*
X8281304Y5123472D01*
X8272885Y5103145D01*
X7988300D01*
X7979443Y5101383D01*
X7971934Y5096366D01*
X7629034Y4753466D01*
X7624017Y4745957D01*
X7622255Y4737100D01*
Y4379624D01*
X7615400D01*
X7607746Y4376454D01*
X7604576Y4368800D01*
Y4253800D01*
X7607746Y4246146D01*
X7615400Y4242976D01*
X7675400D01*
X7685149Y4243780D01*
X7690846Y4237345D01*
X7692088Y4235488D01*
X7700490Y4229874D01*
X7710400Y4227902D01*
X7727700D01*
Y4311300D01*
Y4394698D01*
X7710400D01*
X7700490Y4392726D01*
X7692088Y4387112D01*
X7690846Y4385255D01*
X7687386Y4381347D01*
X7673626Y4381398D01*
X7668545Y4386479D01*
Y4727513D01*
X7997887Y5056855D01*
X8272885D01*
X8281304Y5036528D01*
X8295122Y5018522D01*
X8313128Y5004704D01*
X8334097Y4996019D01*
X8356600Y4993056D01*
X8379103Y4996019D01*
X8400072Y5004704D01*
X8418078Y5018522D01*
X8431896Y5036528D01*
X8440581Y5057497D01*
X8443544Y5080000D01*
X8440581Y5102503D01*
X8431896Y5123472D01*
X8418078Y5141478D01*
X8400072Y5155296D01*
X8379103Y5163981D01*
X8356600Y5166944D01*
D02*
G37*
G36*
X9702800Y5179644D02*
X9680297Y5176681D01*
X9659328Y5167996D01*
X9641322Y5154178D01*
X9627504Y5136172D01*
X9618819Y5115203D01*
X9615856Y5092700D01*
X9618819Y5070197D01*
X9627504Y5049228D01*
X9641322Y5031222D01*
X9659328Y5017404D01*
X9680297Y5008719D01*
X9702800Y5005756D01*
X9725303Y5008719D01*
X9746272Y5017404D01*
X9764278Y5031222D01*
X9778096Y5049228D01*
X9786781Y5070197D01*
X9789744Y5092700D01*
X9786781Y5115203D01*
X9778096Y5136172D01*
X9764278Y5154178D01*
X9746272Y5167996D01*
X9725303Y5176681D01*
X9702800Y5179644D01*
D02*
G37*
G36*
X5803900Y5295900D02*
X5715795D01*
X5717615Y5282077D01*
X5727852Y5257362D01*
X5744138Y5236138D01*
X5765362Y5219852D01*
X5790077Y5209615D01*
X5803900Y5207795D01*
Y5295900D01*
D02*
G37*
G36*
X4597400Y5395544D02*
X4574897Y5392581D01*
X4553928Y5383896D01*
X4535922Y5370078D01*
X4522104Y5352072D01*
X4513419Y5331103D01*
X4510456Y5308600D01*
X4513419Y5286097D01*
X4522104Y5265128D01*
X4535922Y5247122D01*
X4553928Y5233304D01*
X4574897Y5224619D01*
X4597400Y5221656D01*
X4619903Y5224619D01*
X4640872Y5233304D01*
X4658878Y5247122D01*
X4672696Y5265128D01*
X4681381Y5286097D01*
X4684344Y5308600D01*
X4681381Y5331103D01*
X4672696Y5352072D01*
X4658878Y5370078D01*
X4640872Y5383896D01*
X4619903Y5392581D01*
X4597400Y5395544D01*
D02*
G37*
G36*
X8343900Y5321300D02*
X8255795D01*
X8257615Y5307477D01*
X8267852Y5282762D01*
X8284138Y5261538D01*
X8305362Y5245252D01*
X8330077Y5235015D01*
X8343900Y5233195D01*
Y5321300D01*
D02*
G37*
G36*
X8457405D02*
X8369300D01*
Y5233195D01*
X8383123Y5235015D01*
X8407838Y5245252D01*
X8429062Y5261538D01*
X8445348Y5282762D01*
X8455585Y5307477D01*
X8457405Y5321300D01*
D02*
G37*
G36*
X5917405Y5295900D02*
X5829300D01*
Y5207795D01*
X5843123Y5209615D01*
X5867838Y5219852D01*
X5889062Y5236138D01*
X5905348Y5257362D01*
X5915585Y5282077D01*
X5917405Y5295900D01*
D02*
G37*
G36*
X16090900Y5308600D02*
X16002795D01*
X16004614Y5294777D01*
X16014851Y5270062D01*
X16031139Y5248838D01*
X16052362Y5232552D01*
X16077077Y5222315D01*
X16090900Y5220495D01*
Y5308600D01*
D02*
G37*
G36*
X16204405D02*
X16116299D01*
Y5220495D01*
X16130122Y5222315D01*
X16154839Y5232552D01*
X16176062Y5248838D01*
X16192348Y5270062D01*
X16202585Y5294777D01*
X16204405Y5308600D01*
D02*
G37*
G36*
X15125700Y3210923D02*
X15096393Y3208037D01*
X15068211Y3199488D01*
X15042239Y3185606D01*
X15019476Y3166924D01*
X15000793Y3144160D01*
X14986913Y3118188D01*
X14978363Y3090007D01*
X14975478Y3060700D01*
X14978363Y3031393D01*
X14986913Y3003212D01*
X15000793Y2977240D01*
X15019476Y2954476D01*
X15042239Y2935794D01*
X15068211Y2921912D01*
X15096393Y2913363D01*
X15125700Y2910477D01*
X15155006Y2913363D01*
X15183188Y2921912D01*
X15209160Y2935794D01*
X15231924Y2954476D01*
X15250606Y2977240D01*
X15264488Y3003212D01*
X15273038Y3031393D01*
X15275923Y3060700D01*
X15273038Y3090007D01*
X15264488Y3118188D01*
X15250606Y3144160D01*
X15231924Y3166924D01*
X15209160Y3185606D01*
X15183188Y3199488D01*
X15155006Y3208037D01*
X15125700Y3210923D01*
D02*
G37*
G36*
X15633701D02*
X15604393Y3208037D01*
X15576212Y3199488D01*
X15550240Y3185606D01*
X15527477Y3166924D01*
X15508794Y3144160D01*
X15494913Y3118188D01*
X15486363Y3090007D01*
X15483476Y3060700D01*
X15486363Y3031393D01*
X15494913Y3003212D01*
X15508794Y2977240D01*
X15527477Y2954476D01*
X15550240Y2935794D01*
X15576212Y2921912D01*
X15604393Y2913363D01*
X15633701Y2910477D01*
X15663007Y2913363D01*
X15691188Y2921912D01*
X15717160Y2935794D01*
X15739925Y2954476D01*
X15758606Y2977240D01*
X15772488Y3003212D01*
X15781036Y3031393D01*
X15783923Y3060700D01*
X15781036Y3090007D01*
X15772488Y3118188D01*
X15758606Y3144160D01*
X15739925Y3166924D01*
X15717160Y3185606D01*
X15691188Y3199488D01*
X15663007Y3208037D01*
X15633701Y3210923D01*
D02*
G37*
G36*
X16141701D02*
X16112393Y3208037D01*
X16084212Y3199488D01*
X16058240Y3185606D01*
X16035477Y3166924D01*
X16016794Y3144160D01*
X16002911Y3118188D01*
X15994363Y3090007D01*
X15991476Y3060700D01*
X15994363Y3031393D01*
X16002911Y3003212D01*
X16016794Y2977240D01*
X16035477Y2954476D01*
X16058240Y2935794D01*
X16084212Y2921912D01*
X16112393Y2913363D01*
X16141701Y2910477D01*
X16171007Y2913363D01*
X16199188Y2921912D01*
X16225160Y2935794D01*
X16247923Y2954476D01*
X16266606Y2977240D01*
X16280489Y3003212D01*
X16289037Y3031393D01*
X16291924Y3060700D01*
X16289037Y3090007D01*
X16280489Y3118188D01*
X16266606Y3144160D01*
X16247923Y3166924D01*
X16225160Y3185606D01*
X16199188Y3199488D01*
X16171007Y3208037D01*
X16141701Y3210923D01*
D02*
G37*
G36*
X13055600D02*
X13026292Y3208037D01*
X12998112Y3199488D01*
X12972141Y3185606D01*
X12949376Y3166924D01*
X12930695Y3144160D01*
X12916812Y3118188D01*
X12908263Y3090007D01*
X12905377Y3060700D01*
X12908263Y3031393D01*
X12916812Y3003212D01*
X12930695Y2977240D01*
X12949376Y2954476D01*
X12972141Y2935794D01*
X12998112Y2921912D01*
X13026292Y2913363D01*
X13055600Y2910477D01*
X13084908Y2913363D01*
X13113087Y2921912D01*
X13139059Y2935794D01*
X13161824Y2954476D01*
X13180505Y2977240D01*
X13194388Y3003212D01*
X13202937Y3031393D01*
X13205823Y3060700D01*
X13202937Y3090007D01*
X13194388Y3118188D01*
X13180505Y3144160D01*
X13161824Y3166924D01*
X13139059Y3185606D01*
X13113087Y3199488D01*
X13084908Y3208037D01*
X13055600Y3210923D01*
D02*
G37*
G36*
X13563600D02*
X13534293Y3208037D01*
X13506113Y3199488D01*
X13480141Y3185606D01*
X13457376Y3166924D01*
X13438693Y3144160D01*
X13424812Y3118188D01*
X13416263Y3090007D01*
X13413377Y3060700D01*
X13416263Y3031393D01*
X13424812Y3003212D01*
X13438693Y2977240D01*
X13457376Y2954476D01*
X13480141Y2935794D01*
X13506113Y2921912D01*
X13534293Y2913363D01*
X13563600Y2910477D01*
X13592908Y2913363D01*
X13621088Y2921912D01*
X13647060Y2935794D01*
X13669824Y2954476D01*
X13688506Y2977240D01*
X13702388Y3003212D01*
X13710938Y3031393D01*
X13713823Y3060700D01*
X13710938Y3090007D01*
X13702388Y3118188D01*
X13688506Y3144160D01*
X13669824Y3166924D01*
X13647060Y3185606D01*
X13621088Y3199488D01*
X13592908Y3208037D01*
X13563600Y3210923D01*
D02*
G37*
G36*
X14617700D02*
X14588393Y3208037D01*
X14560213Y3199488D01*
X14534241Y3185606D01*
X14511476Y3166924D01*
X14492793Y3144160D01*
X14478912Y3118188D01*
X14470363Y3090007D01*
X14467477Y3060700D01*
X14470363Y3031393D01*
X14478912Y3003212D01*
X14492793Y2977240D01*
X14511476Y2954476D01*
X14534241Y2935794D01*
X14560213Y2921912D01*
X14588393Y2913363D01*
X14617700Y2910477D01*
X14647008Y2913363D01*
X14675188Y2921912D01*
X14701160Y2935794D01*
X14723924Y2954476D01*
X14742606Y2977240D01*
X14756488Y3003212D01*
X14765038Y3031393D01*
X14767923Y3060700D01*
X14765038Y3090007D01*
X14756488Y3118188D01*
X14742606Y3144160D01*
X14723924Y3166924D01*
X14701160Y3185606D01*
X14675188Y3199488D01*
X14647008Y3208037D01*
X14617700Y3210923D01*
D02*
G37*
G36*
X3314700Y3206340D02*
X3314179Y3206124D01*
X3313639Y3206288D01*
X3272472Y3202233D01*
X3271494Y3201710D01*
X3270391Y3201819D01*
X3230806Y3189811D01*
X3229949Y3189108D01*
X3228845Y3188999D01*
X3192363Y3169499D01*
X3191660Y3168642D01*
X3190599Y3168320D01*
X3158623Y3142078D01*
X3158100Y3141100D01*
X3157122Y3140577D01*
X3130880Y3108601D01*
X3130558Y3107540D01*
X3129701Y3106837D01*
X3110201Y3070355D01*
X3110092Y3069251D01*
X3109389Y3068394D01*
X3097381Y3028809D01*
X3097490Y3027706D01*
X3096967Y3026728D01*
X3092912Y2985561D01*
X3093234Y2984500D01*
X3092912Y2983439D01*
X3096967Y2942272D01*
X3097490Y2941294D01*
X3097381Y2940191D01*
X3109389Y2900606D01*
X3110092Y2899749D01*
X3110201Y2898645D01*
X3129701Y2862163D01*
X3130558Y2861460D01*
X3130880Y2860399D01*
X3157122Y2828423D01*
X3158100Y2827900D01*
X3158623Y2826922D01*
X3190599Y2800680D01*
X3191660Y2800358D01*
X3192363Y2799501D01*
X3228845Y2780001D01*
X3229949Y2779892D01*
X3230806Y2779189D01*
X3270391Y2767181D01*
X3271494Y2767290D01*
X3272472Y2766767D01*
X3313639Y2762712D01*
X3314179Y2762876D01*
X3314700Y2762660D01*
X3315221Y2762876D01*
X3315761Y2762712D01*
X3356928Y2766767D01*
X3357906Y2767290D01*
X3359009Y2767181D01*
X3398594Y2779189D01*
X3399451Y2779892D01*
X3400555Y2780001D01*
X3437037Y2799501D01*
X3437740Y2800358D01*
X3438801Y2800680D01*
X3470777Y2826922D01*
X3471300Y2827900D01*
X3472278Y2828423D01*
X3498520Y2860399D01*
X3498842Y2861460D01*
X3499699Y2862163D01*
X3519199Y2898645D01*
X3519308Y2899749D01*
X3520011Y2900606D01*
X3532019Y2940191D01*
X3531910Y2941294D01*
X3532433Y2942272D01*
X3536488Y2983439D01*
X3536166Y2984500D01*
X3536488Y2985561D01*
X3532433Y3026728D01*
X3531910Y3027706D01*
X3532019Y3028809D01*
X3520011Y3068394D01*
X3519308Y3069251D01*
X3519199Y3070355D01*
X3499699Y3106837D01*
X3498842Y3107540D01*
X3498520Y3108601D01*
X3472278Y3140577D01*
X3471300Y3141100D01*
X3470777Y3142078D01*
X3438801Y3168320D01*
X3437740Y3168642D01*
X3437037Y3169499D01*
X3400555Y3188999D01*
X3399451Y3189108D01*
X3398594Y3189811D01*
X3359009Y3201819D01*
X3357906Y3201710D01*
X3356928Y3202233D01*
X3315761Y3206288D01*
X3315221Y3206124D01*
X3314700Y3206340D01*
D02*
G37*
G36*
X16090900Y3784600D02*
X16002795D01*
X16004614Y3770777D01*
X16014851Y3746062D01*
X16031139Y3724838D01*
X16052362Y3708552D01*
X16077077Y3698315D01*
X16090900Y3696495D01*
Y3784600D01*
D02*
G37*
G36*
X16204405D02*
X16116299D01*
Y3696495D01*
X16130122Y3698315D01*
X16154839Y3708552D01*
X16176062Y3724838D01*
X16192348Y3746062D01*
X16202585Y3770777D01*
X16204405Y3784600D01*
D02*
G37*
G36*
X4037400Y7235924D02*
X3887400D01*
X3879746Y7232754D01*
X3876576Y7225100D01*
Y7075100D01*
X3879746Y7067446D01*
X3887400Y7064276D01*
X3939255D01*
Y6767424D01*
X3911200D01*
X3903546Y6764254D01*
X3900376Y6756600D01*
Y6629600D01*
X3903546Y6621946D01*
X3911200Y6618776D01*
X3939055D01*
Y3962600D01*
X3940817Y3953743D01*
X3945834Y3946234D01*
X4123834Y3768234D01*
X4131343Y3763217D01*
X4140200Y3761455D01*
X4513685D01*
X4522104Y3741128D01*
X4535922Y3723122D01*
X4553928Y3709304D01*
X4574897Y3700619D01*
X4597400Y3697656D01*
X4619903Y3700619D01*
X4640872Y3709304D01*
X4658878Y3723122D01*
X4672696Y3741128D01*
X4681381Y3762097D01*
X4684344Y3784600D01*
X4681381Y3807103D01*
X4672696Y3828072D01*
X4658878Y3846078D01*
X4640872Y3859896D01*
X4619903Y3868581D01*
X4597400Y3871544D01*
X4574897Y3868581D01*
X4553928Y3859896D01*
X4535922Y3846078D01*
X4522104Y3828072D01*
X4513685Y3807745D01*
X4149787D01*
X3985345Y3972187D01*
Y6618776D01*
X4013200D01*
X4020854Y6621946D01*
X4024024Y6629600D01*
Y6756600D01*
X4020854Y6764254D01*
X4013200Y6767424D01*
X3985545D01*
Y7064276D01*
X4037400D01*
X4045054Y7067446D01*
X4048224Y7075100D01*
Y7225100D01*
X4045054Y7232754D01*
X4037400Y7235924D01*
D02*
G37*
G36*
X16941800Y3206340D02*
X16941280Y3206124D01*
X16940739Y3206288D01*
X16899573Y3202233D01*
X16898595Y3201710D01*
X16897491Y3201819D01*
X16857906Y3189811D01*
X16857050Y3189108D01*
X16855945Y3188999D01*
X16819463Y3169499D01*
X16818761Y3168642D01*
X16817699Y3168320D01*
X16785722Y3142078D01*
X16785201Y3141100D01*
X16784222Y3140577D01*
X16757980Y3108601D01*
X16757658Y3107540D01*
X16756801Y3106837D01*
X16737302Y3070355D01*
X16737192Y3069251D01*
X16736488Y3068394D01*
X16724481Y3028809D01*
X16724590Y3027706D01*
X16724068Y3026728D01*
X16720012Y2985561D01*
X16720334Y2984500D01*
X16720012Y2983439D01*
X16724068Y2942272D01*
X16724590Y2941294D01*
X16724481Y2940191D01*
X16736488Y2900606D01*
X16737192Y2899749D01*
X16737302Y2898645D01*
X16756801Y2862163D01*
X16757658Y2861460D01*
X16757980Y2860399D01*
X16784222Y2828423D01*
X16785201Y2827900D01*
X16785722Y2826922D01*
X16817699Y2800680D01*
X16818761Y2800358D01*
X16819463Y2799501D01*
X16855945Y2780001D01*
X16857050Y2779892D01*
X16857906Y2779189D01*
X16897491Y2767181D01*
X16898595Y2767290D01*
X16899573Y2766767D01*
X16940739Y2762712D01*
X16941280Y2762876D01*
X16941800Y2762660D01*
X16942320Y2762876D01*
X16942860Y2762712D01*
X16984029Y2766767D01*
X16985007Y2767290D01*
X16986108Y2767181D01*
X17025694Y2779189D01*
X17026550Y2779892D01*
X17027655Y2780001D01*
X17064137Y2799501D01*
X17064841Y2800358D01*
X17065901Y2800680D01*
X17097878Y2826922D01*
X17098399Y2827900D01*
X17099377Y2828423D01*
X17125620Y2860399D01*
X17125941Y2861460D01*
X17126799Y2862163D01*
X17146300Y2898645D01*
X17146408Y2899749D01*
X17147112Y2900606D01*
X17159119Y2940191D01*
X17159010Y2941294D01*
X17159534Y2942272D01*
X17163588Y2983439D01*
X17163266Y2984500D01*
X17163588Y2985561D01*
X17159534Y3026728D01*
X17159010Y3027706D01*
X17159119Y3028809D01*
X17147112Y3068394D01*
X17146408Y3069251D01*
X17146300Y3070355D01*
X17126799Y3106837D01*
X17125941Y3107540D01*
X17125620Y3108601D01*
X17099377Y3140577D01*
X17098399Y3141100D01*
X17097878Y3142078D01*
X17065901Y3168320D01*
X17064841Y3168642D01*
X17064137Y3169499D01*
X17027655Y3188999D01*
X17026550Y3189108D01*
X17025694Y3189811D01*
X16986108Y3201819D01*
X16985007Y3201710D01*
X16984029Y3202233D01*
X16942860Y3206288D01*
X16942320Y3206124D01*
X16941800Y3206340D01*
D02*
G37*
G36*
X5803900Y3771900D02*
X5715795D01*
X5717615Y3758077D01*
X5727852Y3733362D01*
X5744138Y3712138D01*
X5765362Y3695852D01*
X5790077Y3685615D01*
X5803900Y3683795D01*
Y3771900D01*
D02*
G37*
G36*
X5917405D02*
X5829300D01*
Y3683795D01*
X5843123Y3685615D01*
X5867838Y3695852D01*
X5889062Y3712138D01*
X5905348Y3733362D01*
X5915585Y3758077D01*
X5917405Y3771900D01*
D02*
G37*
G36*
X12547600Y3210923D02*
X12518293Y3208037D01*
X12490112Y3199488D01*
X12464140Y3185606D01*
X12441376Y3166924D01*
X12422694Y3144160D01*
X12408812Y3118188D01*
X12400263Y3090007D01*
X12397377Y3060700D01*
X12400263Y3031393D01*
X12408812Y3003212D01*
X12422694Y2977240D01*
X12441376Y2954476D01*
X12464140Y2935794D01*
X12490112Y2921912D01*
X12518293Y2913363D01*
X12547600Y2910477D01*
X12576907Y2913363D01*
X12605088Y2921912D01*
X12631060Y2935794D01*
X12653824Y2954476D01*
X12672506Y2977240D01*
X12686388Y3003212D01*
X12694937Y3031393D01*
X12697823Y3060700D01*
X12694937Y3090007D01*
X12686388Y3118188D01*
X12672506Y3144160D01*
X12653824Y3166924D01*
X12631060Y3185606D01*
X12605088Y3199488D01*
X12576907Y3208037D01*
X12547600Y3210923D01*
D02*
G37*
G36*
X5854700D02*
X5825393Y3208037D01*
X5797212Y3199488D01*
X5771240Y3185606D01*
X5748476Y3166924D01*
X5729794Y3144160D01*
X5715912Y3118188D01*
X5707363Y3090007D01*
X5704477Y3060700D01*
X5707363Y3031393D01*
X5715912Y3003212D01*
X5729794Y2977240D01*
X5748476Y2954476D01*
X5771240Y2935794D01*
X5797212Y2921912D01*
X5825393Y2913363D01*
X5854700Y2910477D01*
X5884007Y2913363D01*
X5912188Y2921912D01*
X5938160Y2935794D01*
X5960924Y2954476D01*
X5979606Y2977240D01*
X5993488Y3003212D01*
X6002037Y3031393D01*
X6004923Y3060700D01*
X6002037Y3090007D01*
X5993488Y3118188D01*
X5979606Y3144160D01*
X5960924Y3166924D01*
X5938160Y3185606D01*
X5912188Y3199488D01*
X5884007Y3208037D01*
X5854700Y3210923D01*
D02*
G37*
G36*
X6896100D02*
X6866793Y3208037D01*
X6838612Y3199488D01*
X6812640Y3185606D01*
X6789876Y3166924D01*
X6771194Y3144160D01*
X6757312Y3118188D01*
X6748763Y3090007D01*
X6745877Y3060700D01*
X6748763Y3031393D01*
X6757312Y3003212D01*
X6771194Y2977240D01*
X6789876Y2954476D01*
X6812640Y2935794D01*
X6838612Y2921912D01*
X6866793Y2913363D01*
X6896100Y2910477D01*
X6925407Y2913363D01*
X6953588Y2921912D01*
X6979560Y2935794D01*
X7002324Y2954476D01*
X7021006Y2977240D01*
X7034888Y3003212D01*
X7043437Y3031393D01*
X7046323Y3060700D01*
X7043437Y3090007D01*
X7034888Y3118188D01*
X7021006Y3144160D01*
X7002324Y3166924D01*
X6979560Y3185606D01*
X6953588Y3199488D01*
X6925407Y3208037D01*
X6896100Y3210923D01*
D02*
G37*
G36*
X7404100D02*
X7374793Y3208037D01*
X7346612Y3199488D01*
X7320640Y3185606D01*
X7297876Y3166924D01*
X7279194Y3144160D01*
X7265312Y3118188D01*
X7256763Y3090007D01*
X7253877Y3060700D01*
X7256763Y3031393D01*
X7265312Y3003212D01*
X7279194Y2977240D01*
X7297876Y2954476D01*
X7320640Y2935794D01*
X7346612Y2921912D01*
X7374793Y2913363D01*
X7404100Y2910477D01*
X7433407Y2913363D01*
X7461588Y2921912D01*
X7487560Y2935794D01*
X7510324Y2954476D01*
X7529006Y2977240D01*
X7542888Y3003212D01*
X7551437Y3031393D01*
X7554323Y3060700D01*
X7551437Y3090007D01*
X7542888Y3118188D01*
X7529006Y3144160D01*
X7510324Y3166924D01*
X7487560Y3185606D01*
X7461588Y3199488D01*
X7433407Y3208037D01*
X7404100Y3210923D01*
D02*
G37*
G36*
X4330700D02*
X4301393Y3208037D01*
X4273212Y3199488D01*
X4247240Y3185606D01*
X4224476Y3166924D01*
X4205794Y3144160D01*
X4191912Y3118188D01*
X4183363Y3090007D01*
X4180477Y3060700D01*
X4183363Y3031393D01*
X4191912Y3003212D01*
X4205794Y2977240D01*
X4224476Y2954476D01*
X4247240Y2935794D01*
X4273212Y2921912D01*
X4301393Y2913363D01*
X4330700Y2910477D01*
X4360007Y2913363D01*
X4388188Y2921912D01*
X4414160Y2935794D01*
X4436924Y2954476D01*
X4455606Y2977240D01*
X4469488Y3003212D01*
X4478037Y3031393D01*
X4480923Y3060700D01*
X4478037Y3090007D01*
X4469488Y3118188D01*
X4455606Y3144160D01*
X4436924Y3166924D01*
X4414160Y3185606D01*
X4388188Y3199488D01*
X4360007Y3208037D01*
X4330700Y3210923D01*
D02*
G37*
G36*
X4838700D02*
X4809393Y3208037D01*
X4781212Y3199488D01*
X4755240Y3185606D01*
X4732476Y3166924D01*
X4713794Y3144160D01*
X4699912Y3118188D01*
X4691363Y3090007D01*
X4688477Y3060700D01*
X4691363Y3031393D01*
X4699912Y3003212D01*
X4713794Y2977240D01*
X4732476Y2954476D01*
X4755240Y2935794D01*
X4781212Y2921912D01*
X4809393Y2913363D01*
X4838700Y2910477D01*
X4868007Y2913363D01*
X4896188Y2921912D01*
X4922160Y2935794D01*
X4944924Y2954476D01*
X4963606Y2977240D01*
X4977488Y3003212D01*
X4986037Y3031393D01*
X4988923Y3060700D01*
X4986037Y3090007D01*
X4977488Y3118188D01*
X4963606Y3144160D01*
X4944924Y3166924D01*
X4922160Y3185606D01*
X4896188Y3199488D01*
X4868007Y3208037D01*
X4838700Y3210923D01*
D02*
G37*
G36*
X5346700D02*
X5317393Y3208037D01*
X5289212Y3199488D01*
X5263240Y3185606D01*
X5240476Y3166924D01*
X5221794Y3144160D01*
X5207912Y3118188D01*
X5199363Y3090007D01*
X5196477Y3060700D01*
X5199363Y3031393D01*
X5207912Y3003212D01*
X5221794Y2977240D01*
X5240476Y2954476D01*
X5263240Y2935794D01*
X5289212Y2921912D01*
X5317393Y2913363D01*
X5346700Y2910477D01*
X5376007Y2913363D01*
X5404188Y2921912D01*
X5430160Y2935794D01*
X5452924Y2954476D01*
X5471606Y2977240D01*
X5485488Y3003212D01*
X5494037Y3031393D01*
X5496923Y3060700D01*
X5494037Y3090007D01*
X5485488Y3118188D01*
X5471606Y3144160D01*
X5452924Y3166924D01*
X5430160Y3185606D01*
X5404188Y3199488D01*
X5376007Y3208037D01*
X5346700Y3210923D01*
D02*
G37*
G36*
X7912100D02*
X7882793Y3208037D01*
X7854612Y3199488D01*
X7828640Y3185606D01*
X7805876Y3166924D01*
X7787194Y3144160D01*
X7773312Y3118188D01*
X7764763Y3090007D01*
X7761877Y3060700D01*
X7764763Y3031393D01*
X7773312Y3003212D01*
X7787194Y2977240D01*
X7805876Y2954476D01*
X7828640Y2935794D01*
X7854612Y2921912D01*
X7882793Y2913363D01*
X7912100Y2910477D01*
X7941407Y2913363D01*
X7969588Y2921912D01*
X7995560Y2935794D01*
X8018324Y2954476D01*
X8037006Y2977240D01*
X8050888Y3003212D01*
X8059437Y3031393D01*
X8062323Y3060700D01*
X8059437Y3090007D01*
X8050888Y3118188D01*
X8037006Y3144160D01*
X8018324Y3166924D01*
X7995560Y3185606D01*
X7969588Y3199488D01*
X7941407Y3208037D01*
X7912100Y3210923D01*
D02*
G37*
G36*
X10490200D02*
X10460893Y3208037D01*
X10432712Y3199488D01*
X10406740Y3185606D01*
X10383976Y3166924D01*
X10365294Y3144160D01*
X10351412Y3118188D01*
X10342863Y3090007D01*
X10339977Y3060700D01*
X10342863Y3031393D01*
X10351412Y3003212D01*
X10365294Y2977240D01*
X10383976Y2954476D01*
X10406740Y2935794D01*
X10432712Y2921912D01*
X10460893Y2913363D01*
X10490200Y2910477D01*
X10519507Y2913363D01*
X10547688Y2921912D01*
X10573660Y2935794D01*
X10596424Y2954476D01*
X10615106Y2977240D01*
X10628988Y3003212D01*
X10637537Y3031393D01*
X10640423Y3060700D01*
X10637537Y3090007D01*
X10628988Y3118188D01*
X10615106Y3144160D01*
X10596424Y3166924D01*
X10573660Y3185606D01*
X10547688Y3199488D01*
X10519507Y3208037D01*
X10490200Y3210923D01*
D02*
G37*
G36*
X10998200D02*
X10968893Y3208037D01*
X10940712Y3199488D01*
X10914740Y3185606D01*
X10891976Y3166924D01*
X10873294Y3144160D01*
X10859412Y3118188D01*
X10850863Y3090007D01*
X10847977Y3060700D01*
X10850863Y3031393D01*
X10859412Y3003212D01*
X10873294Y2977240D01*
X10891976Y2954476D01*
X10914740Y2935794D01*
X10940712Y2921912D01*
X10968893Y2913363D01*
X10998200Y2910477D01*
X11027507Y2913363D01*
X11055688Y2921912D01*
X11081660Y2935794D01*
X11104424Y2954476D01*
X11123106Y2977240D01*
X11136988Y3003212D01*
X11145537Y3031393D01*
X11148423Y3060700D01*
X11145537Y3090007D01*
X11136988Y3118188D01*
X11123106Y3144160D01*
X11104424Y3166924D01*
X11081660Y3185606D01*
X11055688Y3199488D01*
X11027507Y3208037D01*
X10998200Y3210923D01*
D02*
G37*
G36*
X12039600D02*
X12010293Y3208037D01*
X11982112Y3199488D01*
X11956140Y3185606D01*
X11933376Y3166924D01*
X11914694Y3144160D01*
X11900812Y3118188D01*
X11892263Y3090007D01*
X11889377Y3060700D01*
X11892263Y3031393D01*
X11900812Y3003212D01*
X11914694Y2977240D01*
X11933376Y2954476D01*
X11956140Y2935794D01*
X11982112Y2921912D01*
X12010293Y2913363D01*
X12039600Y2910477D01*
X12068907Y2913363D01*
X12097088Y2921912D01*
X12123060Y2935794D01*
X12145824Y2954476D01*
X12164506Y2977240D01*
X12178388Y3003212D01*
X12186937Y3031393D01*
X12189823Y3060700D01*
X12186937Y3090007D01*
X12178388Y3118188D01*
X12164506Y3144160D01*
X12145824Y3166924D01*
X12123060Y3185606D01*
X12097088Y3199488D01*
X12068907Y3208037D01*
X12039600Y3210923D01*
D02*
G37*
G36*
X8420100D02*
X8390793Y3208037D01*
X8362612Y3199488D01*
X8336640Y3185606D01*
X8313876Y3166924D01*
X8295194Y3144160D01*
X8281312Y3118188D01*
X8272763Y3090007D01*
X8269877Y3060700D01*
X8272763Y3031393D01*
X8281312Y3003212D01*
X8295194Y2977240D01*
X8313876Y2954476D01*
X8336640Y2935794D01*
X8362612Y2921912D01*
X8390793Y2913363D01*
X8420100Y2910477D01*
X8449407Y2913363D01*
X8477588Y2921912D01*
X8503560Y2935794D01*
X8526324Y2954476D01*
X8545006Y2977240D01*
X8558888Y3003212D01*
X8567437Y3031393D01*
X8570323Y3060700D01*
X8567437Y3090007D01*
X8558888Y3118188D01*
X8545006Y3144160D01*
X8526324Y3166924D01*
X8503560Y3185606D01*
X8477588Y3199488D01*
X8449407Y3208037D01*
X8420100Y3210923D01*
D02*
G37*
G36*
X9474200D02*
X9444893Y3208037D01*
X9416712Y3199488D01*
X9390740Y3185606D01*
X9367976Y3166924D01*
X9349294Y3144160D01*
X9335412Y3118188D01*
X9326863Y3090007D01*
X9323977Y3060700D01*
X9326863Y3031393D01*
X9335412Y3003212D01*
X9349294Y2977240D01*
X9367976Y2954476D01*
X9390740Y2935794D01*
X9416712Y2921912D01*
X9444893Y2913363D01*
X9474200Y2910477D01*
X9503507Y2913363D01*
X9531688Y2921912D01*
X9557660Y2935794D01*
X9580424Y2954476D01*
X9599106Y2977240D01*
X9612988Y3003212D01*
X9621537Y3031393D01*
X9624423Y3060700D01*
X9621537Y3090007D01*
X9612988Y3118188D01*
X9599106Y3144160D01*
X9580424Y3166924D01*
X9557660Y3185606D01*
X9531688Y3199488D01*
X9503507Y3208037D01*
X9474200Y3210923D01*
D02*
G37*
G36*
X9982200D02*
X9952893Y3208037D01*
X9924712Y3199488D01*
X9898740Y3185606D01*
X9875976Y3166924D01*
X9857294Y3144160D01*
X9843412Y3118188D01*
X9834863Y3090007D01*
X9831977Y3060700D01*
X9834863Y3031393D01*
X9843412Y3003212D01*
X9857294Y2977240D01*
X9875976Y2954476D01*
X9898740Y2935794D01*
X9924712Y2921912D01*
X9952893Y2913363D01*
X9982200Y2910477D01*
X10011507Y2913363D01*
X10039688Y2921912D01*
X10065660Y2935794D01*
X10088424Y2954476D01*
X10107106Y2977240D01*
X10120988Y3003212D01*
X10129537Y3031393D01*
X10132423Y3060700D01*
X10129537Y3090007D01*
X10120988Y3118188D01*
X10107106Y3144160D01*
X10088424Y3166924D01*
X10065660Y3185606D01*
X10039688Y3199488D01*
X10011507Y3208037D01*
X9982200Y3210923D01*
D02*
G37*
G36*
X13500101Y3923505D02*
X13486276Y3921685D01*
X13461562Y3911448D01*
X13440338Y3895162D01*
X13424052Y3873938D01*
X13413815Y3849223D01*
X13411995Y3835400D01*
X13500101D01*
Y3923505D01*
D02*
G37*
G36*
X13525500D02*
Y3835400D01*
X13613605D01*
X13611784Y3849223D01*
X13601547Y3873938D01*
X13585262Y3895162D01*
X13564038Y3911448D01*
X13539323Y3921685D01*
X13525500Y3923505D01*
D02*
G37*
G36*
X4216400Y7235833D02*
X4194211Y7232912D01*
X4173533Y7224347D01*
X4155777Y7210723D01*
X4142153Y7192967D01*
X4133588Y7172289D01*
X4130667Y7150100D01*
X4133588Y7127911D01*
X4142153Y7107233D01*
X4155777Y7089477D01*
X4173533Y7075853D01*
X4193255Y7067684D01*
Y6767424D01*
X4140200D01*
X4132546Y6764254D01*
X4129376Y6756600D01*
Y6629600D01*
X4132546Y6621946D01*
X4140200Y6618776D01*
X4168055D01*
Y4178100D01*
X4169817Y4169243D01*
X4174834Y4161734D01*
X4314334Y4022234D01*
X4321843Y4017217D01*
X4330700Y4015455D01*
X4513685D01*
X4522104Y3995128D01*
X4535922Y3977122D01*
X4553928Y3963304D01*
X4574897Y3954619D01*
X4597400Y3951656D01*
X4619903Y3954619D01*
X4640872Y3963304D01*
X4658878Y3977122D01*
X4672696Y3995128D01*
X4681381Y4016097D01*
X4684344Y4038600D01*
X4681381Y4061103D01*
X4672696Y4082072D01*
X4658878Y4100078D01*
X4640872Y4113896D01*
X4619903Y4122581D01*
X4597400Y4125544D01*
X4574897Y4122581D01*
X4553928Y4113896D01*
X4535922Y4100078D01*
X4522104Y4082072D01*
X4513685Y4061745D01*
X4340287D01*
X4214345Y4187687D01*
Y6618776D01*
X4242200D01*
X4249854Y6621946D01*
X4253024Y6629600D01*
Y6756600D01*
X4249854Y6764254D01*
X4242200Y6767424D01*
X4239545D01*
Y7067684D01*
X4259267Y7075853D01*
X4277023Y7089477D01*
X4290647Y7107233D01*
X4299212Y7127911D01*
X4302133Y7150100D01*
X4299212Y7172289D01*
X4290647Y7192967D01*
X4277023Y7210723D01*
X4259267Y7224347D01*
X4238589Y7232912D01*
X4216400Y7235833D01*
D02*
G37*
G36*
X8369300Y3910805D02*
Y3822700D01*
X8457405D01*
X8455585Y3836523D01*
X8445348Y3861238D01*
X8429062Y3882462D01*
X8407838Y3898748D01*
X8383123Y3908985D01*
X8369300Y3910805D01*
D02*
G37*
G36*
X10909300Y3923505D02*
X10895477Y3921685D01*
X10870762Y3911448D01*
X10849538Y3895162D01*
X10833252Y3873938D01*
X10823015Y3849223D01*
X10821195Y3835400D01*
X10909300D01*
Y3923505D01*
D02*
G37*
G36*
X10934700D02*
Y3835400D01*
X11022805D01*
X11020985Y3849223D01*
X11010748Y3873938D01*
X10994462Y3895162D01*
X10973238Y3911448D01*
X10948523Y3921685D01*
X10934700Y3923505D01*
D02*
G37*
G36*
X6248400Y7235833D02*
X6226211Y7232912D01*
X6205533Y7224347D01*
X6187777Y7210723D01*
X6174153Y7192967D01*
X6165588Y7172289D01*
X6162667Y7150100D01*
X6165588Y7127911D01*
X6174153Y7107233D01*
X6187777Y7089477D01*
X6205533Y7075853D01*
X6225255Y7067684D01*
Y6767624D01*
X6184900D01*
X6177246Y6764454D01*
X6174076Y6756800D01*
Y6629800D01*
X6177246Y6622146D01*
X6184900Y6618976D01*
X6212755D01*
Y6387900D01*
X6214517Y6379043D01*
X6219534Y6371534D01*
X6295534Y6295534D01*
X6303043Y6290517D01*
X6311900Y6288755D01*
X13693713D01*
X13896056Y6086413D01*
Y4203700D01*
X13897816Y4194843D01*
X13902834Y4187334D01*
X14080634Y4009534D01*
X14088142Y4004517D01*
X14097000Y4002755D01*
X14812997D01*
X14822922Y3989822D01*
X14840929Y3976004D01*
X14861897Y3967319D01*
X14884399Y3964356D01*
X14906903Y3967319D01*
X14927872Y3976004D01*
X14945879Y3989822D01*
X14959695Y4007828D01*
X14968381Y4028797D01*
X14971344Y4051300D01*
X14968381Y4073803D01*
X14959695Y4094772D01*
X14945879Y4112778D01*
X14927872Y4126596D01*
X14906903Y4135281D01*
X14884399Y4138244D01*
X14861897Y4135281D01*
X14840929Y4126596D01*
X14822922Y4112778D01*
X14809103Y4094772D01*
X14800420Y4073803D01*
X14797456Y4051300D01*
X14795477Y4049045D01*
X14106587D01*
X13942345Y4213287D01*
Y6096000D01*
X13940582Y6104857D01*
X13935567Y6112366D01*
X13719666Y6328266D01*
X13712157Y6333283D01*
X13703300Y6335045D01*
X11945247D01*
X11941738Y6342562D01*
X11940519Y6347745D01*
X11945426Y6355089D01*
X11947397Y6365000D01*
Y6400800D01*
X11874500D01*
X11801603D01*
Y6365000D01*
X11803574Y6355089D01*
X11808481Y6347745D01*
X11807262Y6342562D01*
X11803753Y6335045D01*
X6321487D01*
X6259045Y6397487D01*
Y6618976D01*
X6286900D01*
X6294554Y6622146D01*
X6297724Y6629800D01*
Y6756800D01*
X6294554Y6764454D01*
X6286900Y6767624D01*
X6271545D01*
Y7067684D01*
X6291267Y7075853D01*
X6309023Y7089477D01*
X6322647Y7107233D01*
X6331212Y7127911D01*
X6334133Y7150100D01*
X6331212Y7172289D01*
X6322647Y7192967D01*
X6309023Y7210723D01*
X6291267Y7224347D01*
X6270589Y7232912D01*
X6248400Y7235833D01*
D02*
G37*
G36*
X5740400D02*
X5718211Y7232912D01*
X5697533Y7224347D01*
X5679777Y7210723D01*
X5666153Y7192967D01*
X5657588Y7172289D01*
X5654667Y7150100D01*
X5657588Y7127911D01*
X5666153Y7107233D01*
X5679777Y7089477D01*
X5697533Y7075853D01*
X5717255Y7067684D01*
Y6767424D01*
X5676900D01*
X5669246Y6764254D01*
X5666076Y6756600D01*
Y6629600D01*
X5669246Y6621946D01*
X5676900Y6618776D01*
X5704755D01*
Y6248200D01*
X5706517Y6239343D01*
X5711534Y6231834D01*
X5800234Y6143134D01*
X5807743Y6138117D01*
X5816600Y6136355D01*
X11014013D01*
X11292555Y5857813D01*
Y4267200D01*
X11294317Y4258343D01*
X11299334Y4250834D01*
X11540634Y4009534D01*
X11548143Y4004517D01*
X11557000Y4002755D01*
X12248368D01*
X12250128Y4001404D01*
X12271097Y3992719D01*
X12293600Y3989756D01*
X12316103Y3992719D01*
X12337072Y4001404D01*
X12355078Y4015222D01*
X12368896Y4033228D01*
X12377581Y4054197D01*
X12380544Y4076700D01*
X12377581Y4099203D01*
X12368896Y4120172D01*
X12355078Y4138178D01*
X12337072Y4151996D01*
X12316103Y4160681D01*
X12293600Y4163644D01*
X12271097Y4160681D01*
X12250128Y4151996D01*
X12232122Y4138178D01*
X12218304Y4120172D01*
X12209619Y4099203D01*
X12206656Y4076700D01*
X12208625Y4061745D01*
X12199045Y4049045D01*
X11566587D01*
X11338845Y4276787D01*
Y5867400D01*
X11337083Y5876257D01*
X11332066Y5883766D01*
X11039966Y6175866D01*
X11032457Y6180883D01*
X11023600Y6182645D01*
X5826187D01*
X5751045Y6257787D01*
Y6618776D01*
X5778900D01*
X5786554Y6621946D01*
X5789724Y6629600D01*
Y6756600D01*
X5786554Y6764254D01*
X5778900Y6767424D01*
X5763545D01*
Y7067684D01*
X5783267Y7075853D01*
X5801023Y7089477D01*
X5814647Y7107233D01*
X5823212Y7127911D01*
X5826133Y7150100D01*
X5823212Y7172289D01*
X5814647Y7192967D01*
X5801023Y7210723D01*
X5783267Y7224347D01*
X5762589Y7232912D01*
X5740400Y7235833D01*
D02*
G37*
G36*
X4597400Y4633544D02*
X4574897Y4630581D01*
X4553928Y4621896D01*
X4535922Y4608078D01*
X4522104Y4590072D01*
X4513419Y4569103D01*
X4510456Y4546600D01*
X4513419Y4524097D01*
X4522104Y4503128D01*
X4535922Y4485122D01*
X4553928Y4471304D01*
X4574255Y4462885D01*
Y4376315D01*
X4553928Y4367896D01*
X4535922Y4354078D01*
X4522104Y4336072D01*
X4513419Y4315103D01*
X4510456Y4292600D01*
X4513419Y4270097D01*
X4522104Y4249128D01*
X4535922Y4231122D01*
X4553928Y4217304D01*
X4574897Y4208619D01*
X4597400Y4205656D01*
X4619903Y4208619D01*
X4640872Y4217304D01*
X4658878Y4231122D01*
X4672696Y4249128D01*
X4681381Y4270097D01*
X4684344Y4292600D01*
X4681381Y4315103D01*
X4672696Y4336072D01*
X4658878Y4354078D01*
X4640872Y4367896D01*
X4620545Y4376315D01*
Y4462885D01*
X4640872Y4471304D01*
X4658878Y4485122D01*
X4672696Y4503128D01*
X4681381Y4524097D01*
X4684344Y4546600D01*
X4681381Y4569103D01*
X4672696Y4590072D01*
X4658878Y4608078D01*
X4640872Y4621896D01*
X4619903Y4630581D01*
X4597400Y4633544D01*
D02*
G37*
G36*
X5816600Y4379544D02*
X5794097Y4376581D01*
X5773128Y4367896D01*
X5755122Y4354078D01*
X5741304Y4336072D01*
X5732619Y4315103D01*
X5729656Y4292600D01*
X5732619Y4270097D01*
X5733599Y4267731D01*
X5647834Y4181966D01*
X5642817Y4174457D01*
X5641055Y4165600D01*
Y3971987D01*
X5540313Y3871245D01*
X5178487D01*
X5128545Y3921187D01*
Y3976976D01*
X5148600D01*
X5158349Y3977780D01*
X5164046Y3971345D01*
X5165288Y3969488D01*
X5173689Y3963874D01*
X5183600Y3961902D01*
X5200900D01*
Y4045300D01*
Y4128698D01*
X5183600D01*
X5173689Y4126726D01*
X5165288Y4121112D01*
X5164046Y4119255D01*
X5158349Y4112820D01*
X5148600Y4113624D01*
X5088600D01*
X5080946Y4110454D01*
X5077776Y4102800D01*
Y3987800D01*
X5080946Y3980146D01*
X5082255Y3979604D01*
Y3911600D01*
X5084017Y3902743D01*
X5089034Y3895234D01*
X5152534Y3831734D01*
X5160043Y3826717D01*
X5168900Y3824955D01*
X5549900D01*
X5558757Y3826717D01*
X5566266Y3831734D01*
X5680566Y3946034D01*
X5685583Y3953543D01*
X5687345Y3962400D01*
Y4156013D01*
X5759270Y4227938D01*
X5773128Y4217304D01*
X5794097Y4208619D01*
X5816600Y4205656D01*
X5839103Y4208619D01*
X5860072Y4217304D01*
X5878078Y4231122D01*
X5891896Y4249128D01*
X5900581Y4270097D01*
X5903544Y4292600D01*
X5900581Y4315103D01*
X5891896Y4336072D01*
X5878078Y4354078D01*
X5860072Y4367896D01*
X5839103Y4376581D01*
X5816600Y4379544D01*
D02*
G37*
G36*
X4724400Y7235833D02*
X4702211Y7232912D01*
X4681533Y7224347D01*
X4663777Y7210723D01*
X4650153Y7192967D01*
X4641588Y7172289D01*
X4638667Y7150100D01*
X4641588Y7127911D01*
X4650153Y7107233D01*
X4663777Y7089477D01*
X4681533Y7075853D01*
X4701255Y7067684D01*
Y6767624D01*
X4660900D01*
X4653246Y6764454D01*
X4650076Y6756800D01*
Y6629800D01*
X4653246Y6622146D01*
X4660900Y6618976D01*
X4688755D01*
Y5918000D01*
X4690517Y5909143D01*
X4695534Y5901634D01*
X4784234Y5812934D01*
X4791743Y5807917D01*
X4800600Y5806155D01*
X6010213D01*
X6123655Y5692713D01*
Y4152900D01*
X6125417Y4144043D01*
X6130434Y4136534D01*
X6244734Y4022234D01*
X6252243Y4017217D01*
X6261100Y4015455D01*
X7065997D01*
X7075922Y4002522D01*
X7093928Y3988704D01*
X7114897Y3980019D01*
X7137400Y3977056D01*
X7159903Y3980019D01*
X7180872Y3988704D01*
X7198878Y4002522D01*
X7212696Y4020528D01*
X7221381Y4041497D01*
X7224344Y4064000D01*
X7221381Y4086503D01*
X7212696Y4107472D01*
X7198878Y4125478D01*
X7180872Y4139296D01*
X7159903Y4147981D01*
X7137400Y4150944D01*
X7114897Y4147981D01*
X7093928Y4139296D01*
X7075922Y4125478D01*
X7062104Y4107472D01*
X7053419Y4086503D01*
X7050456Y4064000D01*
X7048478Y4061745D01*
X6270687D01*
X6169945Y4162487D01*
Y5702300D01*
X6168183Y5711157D01*
X6163166Y5718666D01*
X6036166Y5845666D01*
X6028657Y5850683D01*
X6019800Y5852445D01*
X4810187D01*
X4735045Y5927587D01*
Y6618976D01*
X4762900D01*
X4770554Y6622146D01*
X4773724Y6629800D01*
Y6756800D01*
X4770554Y6764454D01*
X4762900Y6767624D01*
X4747545D01*
Y7067684D01*
X4767267Y7075853D01*
X4785023Y7089477D01*
X4798647Y7107233D01*
X4807212Y7127911D01*
X4810133Y7150100D01*
X4807212Y7172289D01*
X4798647Y7192967D01*
X4785023Y7210723D01*
X4767267Y7224347D01*
X4746589Y7232912D01*
X4724400Y7235833D01*
D02*
G37*
G36*
X5232400D02*
X5210211Y7232912D01*
X5189533Y7224347D01*
X5171777Y7210723D01*
X5158153Y7192967D01*
X5149588Y7172289D01*
X5146667Y7150100D01*
X5149588Y7127911D01*
X5158153Y7107233D01*
X5171777Y7089477D01*
X5189533Y7075853D01*
X5209255Y7067684D01*
Y6767624D01*
X5168900D01*
X5161246Y6764454D01*
X5158076Y6756800D01*
Y6629800D01*
X5161246Y6622146D01*
X5168900Y6618976D01*
X5196755D01*
Y6057700D01*
X5198517Y6048843D01*
X5203534Y6041334D01*
X5279534Y5965334D01*
X5287043Y5960317D01*
X5295900Y5958555D01*
X8474013D01*
X8650955Y5781613D01*
Y4229100D01*
X8652717Y4220243D01*
X8657734Y4212734D01*
X8860934Y4009534D01*
X8868443Y4004517D01*
X8877300Y4002755D01*
X9657568D01*
X9659328Y4001404D01*
X9680297Y3992719D01*
X9702800Y3989756D01*
X9725303Y3992719D01*
X9746272Y4001404D01*
X9764278Y4015222D01*
X9778096Y4033228D01*
X9786781Y4054197D01*
X9789744Y4076700D01*
X9786781Y4099203D01*
X9778096Y4120172D01*
X9764278Y4138178D01*
X9746272Y4151996D01*
X9725303Y4160681D01*
X9702800Y4163644D01*
X9680297Y4160681D01*
X9659328Y4151996D01*
X9641322Y4138178D01*
X9627504Y4120172D01*
X9618819Y4099203D01*
X9615856Y4076700D01*
X9617825Y4061745D01*
X9608245Y4049045D01*
X8886887D01*
X8697245Y4238687D01*
Y5791200D01*
X8695483Y5800057D01*
X8690466Y5807566D01*
X8499966Y5998066D01*
X8492457Y6003083D01*
X8483600Y6004845D01*
X5305487D01*
X5243045Y6067287D01*
Y6618976D01*
X5270900D01*
X5278554Y6622146D01*
X5281724Y6629800D01*
Y6756800D01*
X5278554Y6764454D01*
X5270900Y6767624D01*
X5255545D01*
Y7067684D01*
X5275267Y7075853D01*
X5293023Y7089477D01*
X5306647Y7107233D01*
X5315212Y7127911D01*
X5318133Y7150100D01*
X5315212Y7172289D01*
X5306647Y7192967D01*
X5293023Y7210723D01*
X5275267Y7224347D01*
X5254589Y7232912D01*
X5232400Y7235833D01*
D02*
G37*
G36*
X13512801Y4163644D02*
X13490297Y4160681D01*
X13469328Y4151996D01*
X13451321Y4138178D01*
X13437505Y4120172D01*
X13428819Y4099203D01*
X13425856Y4076700D01*
X13428819Y4054197D01*
X13437239Y4033870D01*
X12944414Y3541045D01*
X10435670D01*
X10430809Y3552778D01*
X10879170Y4001139D01*
X10899497Y3992719D01*
X10922000Y3989756D01*
X10944503Y3992719D01*
X10965472Y4001404D01*
X10983478Y4015222D01*
X10997296Y4033228D01*
X11005981Y4054197D01*
X11008944Y4076700D01*
X11005981Y4099203D01*
X10997296Y4120172D01*
X10983478Y4138178D01*
X10965472Y4151996D01*
X10944503Y4160681D01*
X10922000Y4163644D01*
X10899497Y4160681D01*
X10878528Y4151996D01*
X10860522Y4138178D01*
X10846704Y4120172D01*
X10838019Y4099203D01*
X10835056Y4076700D01*
X10838019Y4054197D01*
X10846439Y4033870D01*
X10353613Y3541045D01*
X7882970D01*
X7878109Y3552778D01*
X8313770Y3988439D01*
X8334097Y3980019D01*
X8356600Y3977056D01*
X8379103Y3980019D01*
X8400072Y3988704D01*
X8418078Y4002522D01*
X8431896Y4020528D01*
X8440581Y4041497D01*
X8443544Y4064000D01*
X8440581Y4086503D01*
X8431896Y4107472D01*
X8418078Y4125478D01*
X8400072Y4139296D01*
X8379103Y4147981D01*
X8356600Y4150944D01*
X8334097Y4147981D01*
X8313128Y4139296D01*
X8295122Y4125478D01*
X8281304Y4107472D01*
X8272619Y4086503D01*
X8269656Y4064000D01*
X8272619Y4041497D01*
X8281039Y4021170D01*
X7819534Y3559666D01*
X7814517Y3552157D01*
X7812755Y3543300D01*
Y3541045D01*
X5381070D01*
X5376209Y3552778D01*
X5782750Y3959319D01*
X5794097Y3954619D01*
X5816600Y3951656D01*
X5839103Y3954619D01*
X5860072Y3963304D01*
X5878078Y3977122D01*
X5891896Y3995128D01*
X5900581Y4016097D01*
X5903544Y4038600D01*
X5900581Y4061103D01*
X5891896Y4082072D01*
X5878078Y4100078D01*
X5860072Y4113896D01*
X5839103Y4122581D01*
X5816600Y4125544D01*
X5794097Y4122581D01*
X5773128Y4113896D01*
X5755122Y4100078D01*
X5741304Y4082072D01*
X5732619Y4061103D01*
X5729656Y4038600D01*
X5732619Y4016097D01*
X5741304Y3995128D01*
X5746424Y3988456D01*
X5299013Y3541045D01*
X4225987D01*
X4119604Y3647428D01*
X4128202Y3658633D01*
X4135608Y3676513D01*
X4138134Y3695700D01*
X4135608Y3714887D01*
X4128202Y3732767D01*
X4116421Y3748121D01*
X4101067Y3759902D01*
X4083187Y3767308D01*
X4064000Y3769834D01*
X4044813Y3767308D01*
X4026933Y3759902D01*
X4011579Y3748121D01*
X3999798Y3732767D01*
X3992392Y3714887D01*
X3989866Y3695700D01*
X3992392Y3676513D01*
X3999798Y3658633D01*
X4011579Y3643279D01*
X4026933Y3631498D01*
X4044813Y3624092D01*
X4064000Y3621566D01*
X4078141Y3623427D01*
X4200034Y3501534D01*
X4207543Y3496517D01*
X4216400Y3494755D01*
X15633701D01*
X15642557Y3496517D01*
X15650066Y3501534D01*
X16004768Y3856236D01*
X16014851Y3848538D01*
X16004614Y3823823D01*
X16002795Y3810000D01*
X16090900D01*
Y3898105D01*
X16077077Y3896285D01*
X16052362Y3886048D01*
X16044664Y3896132D01*
X16114296Y3965764D01*
X16126103Y3967319D01*
X16147072Y3976004D01*
X16165079Y3989822D01*
X16178896Y4007828D01*
X16187581Y4028797D01*
X16190544Y4051300D01*
X16187581Y4073803D01*
X16178896Y4094772D01*
X16165079Y4112778D01*
X16147072Y4126596D01*
X16126103Y4135281D01*
X16103600Y4138244D01*
X16081097Y4135281D01*
X16060127Y4126596D01*
X16042122Y4112778D01*
X16028304Y4094772D01*
X16019620Y4073803D01*
X16016656Y4051300D01*
X16019620Y4028797D01*
X16028304Y4007828D01*
X16042122Y3989822D01*
X16051891Y3982326D01*
X16052721Y3969652D01*
X15624113Y3541045D01*
X13026469D01*
X13021609Y3552778D01*
X13469971Y4001139D01*
X13490297Y3992719D01*
X13512801Y3989756D01*
X13535303Y3992719D01*
X13556271Y4001404D01*
X13574278Y4015222D01*
X13588097Y4033228D01*
X13596780Y4054197D01*
X13599744Y4076700D01*
X13596780Y4099203D01*
X13588097Y4120172D01*
X13574278Y4138178D01*
X13556271Y4151996D01*
X13535303Y4160681D01*
X13512801Y4163644D01*
D02*
G37*
G36*
X8343900Y3910805D02*
X8330077Y3908985D01*
X8305362Y3898748D01*
X8284138Y3882462D01*
X8267852Y3861238D01*
X8257615Y3836523D01*
X8255795Y3822700D01*
X8343900D01*
Y3910805D01*
D02*
G37*
G36*
X10909300Y3810000D02*
X10821195D01*
X10823015Y3796177D01*
X10833252Y3771462D01*
X10849538Y3750238D01*
X10870762Y3733952D01*
X10895477Y3723715D01*
X10909300Y3721895D01*
Y3810000D01*
D02*
G37*
G36*
X11022805D02*
X10934700D01*
Y3721895D01*
X10948523Y3723715D01*
X10973238Y3733952D01*
X10994462Y3750238D01*
X11010748Y3771462D01*
X11020985Y3796177D01*
X11022805Y3810000D01*
D02*
G37*
G36*
X13500101D02*
X13411995D01*
X13413815Y3796177D01*
X13424052Y3771462D01*
X13440338Y3750238D01*
X13461562Y3733952D01*
X13486276Y3723715D01*
X13500101Y3721895D01*
Y3810000D01*
D02*
G37*
G36*
X8343900Y3797300D02*
X8255795D01*
X8257615Y3783477D01*
X8267852Y3758762D01*
X8284138Y3737538D01*
X8305362Y3721252D01*
X8330077Y3711015D01*
X8343900Y3709195D01*
Y3797300D01*
D02*
G37*
G36*
X8457405D02*
X8369300D01*
Y3709195D01*
X8383123Y3711015D01*
X8407838Y3721252D01*
X8429062Y3737538D01*
X8445348Y3758762D01*
X8455585Y3783477D01*
X8457405Y3797300D01*
D02*
G37*
G36*
X5994400Y7235833D02*
X5972211Y7232912D01*
X5951533Y7224347D01*
X5933777Y7210723D01*
X5920153Y7192967D01*
X5911588Y7172289D01*
X5908667Y7150100D01*
X5911588Y7127911D01*
X5920153Y7107233D01*
X5933777Y7089477D01*
X5951533Y7075853D01*
X5971255Y7067684D01*
Y6767624D01*
X5955900D01*
X5948246Y6764454D01*
X5945076Y6756800D01*
Y6629800D01*
X5948246Y6622146D01*
X5955900Y6618976D01*
X5983755D01*
Y6324400D01*
X5985517Y6315543D01*
X5990534Y6308034D01*
X6079234Y6219334D01*
X6086743Y6214317D01*
X6095600Y6212555D01*
X13554013D01*
X13718256Y6048313D01*
Y4025900D01*
X13720016Y4017043D01*
X13725034Y4009534D01*
X13979034Y3755534D01*
X13986543Y3750517D01*
X13995399Y3748755D01*
X14812997D01*
X14822922Y3735822D01*
X14840929Y3722004D01*
X14861897Y3713319D01*
X14884399Y3710356D01*
X14906903Y3713319D01*
X14927872Y3722004D01*
X14945879Y3735822D01*
X14959695Y3753828D01*
X14968381Y3774797D01*
X14971344Y3797300D01*
X14968381Y3819803D01*
X14959695Y3840772D01*
X14945879Y3858778D01*
X14927872Y3872596D01*
X14906903Y3881281D01*
X14884399Y3884244D01*
X14861897Y3881281D01*
X14840929Y3872596D01*
X14822922Y3858778D01*
X14809103Y3840772D01*
X14800420Y3819803D01*
X14797456Y3797300D01*
X14795477Y3795045D01*
X14004987D01*
X13764545Y4035487D01*
Y6057900D01*
X13762782Y6066757D01*
X13757767Y6074266D01*
X13579967Y6252066D01*
X13572456Y6257083D01*
X13563600Y6258845D01*
X6105187D01*
X6030045Y6333987D01*
Y6618976D01*
X6057900D01*
X6065554Y6622146D01*
X6068724Y6629800D01*
Y6756800D01*
X6065554Y6764454D01*
X6057900Y6767624D01*
X6017545D01*
Y7067684D01*
X6037267Y7075853D01*
X6055023Y7089477D01*
X6068647Y7107233D01*
X6077212Y7127911D01*
X6080133Y7150100D01*
X6077212Y7172289D01*
X6068647Y7192967D01*
X6055023Y7210723D01*
X6037267Y7224347D01*
X6016589Y7232912D01*
X5994400Y7235833D01*
D02*
G37*
G36*
X13613605Y3810000D02*
X13525500D01*
Y3721895D01*
X13539323Y3723715D01*
X13564038Y3733952D01*
X13585262Y3750238D01*
X13601547Y3771462D01*
X13611784Y3796177D01*
X13613605Y3810000D01*
D02*
G37*
G36*
X5803900Y3885405D02*
X5790077Y3883585D01*
X5765362Y3873348D01*
X5744138Y3857062D01*
X5727852Y3835838D01*
X5717615Y3811123D01*
X5715795Y3797300D01*
X5803900D01*
Y3885405D01*
D02*
G37*
G36*
X5829300D02*
Y3797300D01*
X5917405D01*
X5915585Y3811123D01*
X5905348Y3835838D01*
X5889062Y3857062D01*
X5867838Y3873348D01*
X5843123Y3883585D01*
X5829300Y3885405D01*
D02*
G37*
G36*
X16116299Y3898105D02*
Y3810000D01*
X16204405D01*
X16202585Y3823823D01*
X16192348Y3848538D01*
X16176062Y3869762D01*
X16154839Y3886048D01*
X16130122Y3896285D01*
X16116299Y3898105D01*
D02*
G37*
G36*
X4470400Y7235833D02*
X4448211Y7232912D01*
X4427533Y7224347D01*
X4409777Y7210723D01*
X4396153Y7192967D01*
X4387588Y7172289D01*
X4384667Y7150100D01*
X4387588Y7127911D01*
X4396153Y7107233D01*
X4409777Y7089477D01*
X4427533Y7075853D01*
X4447255Y7067684D01*
Y6767624D01*
X4431900D01*
X4424246Y6764454D01*
X4421076Y6756800D01*
Y6629800D01*
X4424246Y6622146D01*
X4431900Y6618976D01*
X4459755D01*
Y5854900D01*
X4461517Y5846043D01*
X4466534Y5838534D01*
X4581034Y5724034D01*
X4588543Y5719017D01*
X4597400Y5717255D01*
X5895913D01*
X6009355Y5603813D01*
Y3975100D01*
X6011117Y3966243D01*
X6016134Y3958734D01*
X6206634Y3768234D01*
X6214143Y3763217D01*
X6223000Y3761455D01*
X7065997D01*
X7075922Y3748522D01*
X7093928Y3734704D01*
X7114897Y3726019D01*
X7137400Y3723056D01*
X7159903Y3726019D01*
X7180872Y3734704D01*
X7198878Y3748522D01*
X7212696Y3766528D01*
X7221381Y3787497D01*
X7224344Y3810000D01*
X7221381Y3832503D01*
X7212696Y3853472D01*
X7198878Y3871478D01*
X7180872Y3885296D01*
X7159903Y3893981D01*
X7137400Y3896944D01*
X7114897Y3893981D01*
X7093928Y3885296D01*
X7075922Y3871478D01*
X7062104Y3853472D01*
X7053419Y3832503D01*
X7050456Y3810000D01*
X7048478Y3807745D01*
X6232587D01*
X6055645Y3984687D01*
Y5613400D01*
X6053883Y5622257D01*
X6048866Y5629766D01*
X5921866Y5756766D01*
X5914357Y5761783D01*
X5905500Y5763545D01*
X4606987D01*
X4506045Y5864487D01*
Y6618976D01*
X4533900D01*
X4541554Y6622146D01*
X4544724Y6629800D01*
Y6756800D01*
X4541554Y6764454D01*
X4533900Y6767624D01*
X4493545D01*
Y7067684D01*
X4513267Y7075853D01*
X4531023Y7089477D01*
X4544647Y7107233D01*
X4553212Y7127911D01*
X4556133Y7150100D01*
X4553212Y7172289D01*
X4544647Y7192967D01*
X4531023Y7210723D01*
X4513267Y7224347D01*
X4492589Y7232912D01*
X4470400Y7235833D01*
D02*
G37*
G36*
X4978400D02*
X4956211Y7232912D01*
X4935533Y7224347D01*
X4917777Y7210723D01*
X4904153Y7192967D01*
X4895588Y7172289D01*
X4892667Y7150100D01*
X4895588Y7127911D01*
X4904153Y7107233D01*
X4917777Y7089477D01*
X4935533Y7075853D01*
X4955255Y7067684D01*
Y6767624D01*
X4939900D01*
X4932246Y6764454D01*
X4929076Y6756800D01*
Y6629800D01*
X4932246Y6622146D01*
X4939900Y6618976D01*
X4967755D01*
Y6020000D01*
X4969517Y6011143D01*
X4974534Y6003634D01*
X5089034Y5889134D01*
X5096543Y5884117D01*
X5105400Y5882355D01*
X8372413D01*
X8511255Y5743513D01*
Y3949700D01*
X8513017Y3940843D01*
X8518034Y3933334D01*
X8695834Y3755534D01*
X8703343Y3750517D01*
X8712200Y3748755D01*
X9657568D01*
X9659328Y3747404D01*
X9680297Y3738719D01*
X9702800Y3735756D01*
X9725303Y3738719D01*
X9746272Y3747404D01*
X9764278Y3761222D01*
X9778096Y3779228D01*
X9786781Y3800197D01*
X9789744Y3822700D01*
X9786781Y3845203D01*
X9778096Y3866172D01*
X9764278Y3884178D01*
X9746272Y3897996D01*
X9725303Y3906681D01*
X9702800Y3909644D01*
X9680297Y3906681D01*
X9659328Y3897996D01*
X9641322Y3884178D01*
X9627504Y3866172D01*
X9618819Y3845203D01*
X9615856Y3822700D01*
X9617825Y3807745D01*
X9608245Y3795045D01*
X8721787D01*
X8557545Y3959287D01*
Y5753100D01*
X8555783Y5761957D01*
X8550766Y5769466D01*
X8398366Y5921866D01*
X8390857Y5926883D01*
X8382000Y5928645D01*
X5114987D01*
X5014045Y6029587D01*
Y6618976D01*
X5041900D01*
X5049554Y6622146D01*
X5052724Y6629800D01*
Y6756800D01*
X5049554Y6764454D01*
X5041900Y6767624D01*
X5001545D01*
Y7067684D01*
X5021267Y7075853D01*
X5039023Y7089477D01*
X5052647Y7107233D01*
X5061212Y7127911D01*
X5064133Y7150100D01*
X5061212Y7172289D01*
X5052647Y7192967D01*
X5039023Y7210723D01*
X5021267Y7224347D01*
X5000589Y7232912D01*
X4978400Y7235833D01*
D02*
G37*
G36*
X5486400D02*
X5464211Y7232912D01*
X5443533Y7224347D01*
X5425777Y7210723D01*
X5412153Y7192967D01*
X5403588Y7172289D01*
X5400667Y7150100D01*
X5403588Y7127911D01*
X5412153Y7107233D01*
X5425777Y7089477D01*
X5443533Y7075853D01*
X5463255Y7067684D01*
Y6767424D01*
X5447900D01*
X5440246Y6764254D01*
X5437076Y6756600D01*
Y6629600D01*
X5440246Y6621946D01*
X5447900Y6618776D01*
X5475755D01*
Y6147000D01*
X5477517Y6138143D01*
X5482534Y6130634D01*
X5558934Y6054234D01*
X5566443Y6049217D01*
X5575300Y6047455D01*
X10874313D01*
X11152855Y5768913D01*
Y3937000D01*
X11154617Y3928143D01*
X11159634Y3920634D01*
X11324734Y3755534D01*
X11332243Y3750517D01*
X11341100Y3748755D01*
X12248368D01*
X12250128Y3747404D01*
X12271097Y3738719D01*
X12293600Y3735756D01*
X12316103Y3738719D01*
X12337072Y3747404D01*
X12355078Y3761222D01*
X12368896Y3779228D01*
X12377581Y3800197D01*
X12380544Y3822700D01*
X12377581Y3845203D01*
X12368896Y3866172D01*
X12355078Y3884178D01*
X12337072Y3897996D01*
X12316103Y3906681D01*
X12293600Y3909644D01*
X12271097Y3906681D01*
X12250128Y3897996D01*
X12232122Y3884178D01*
X12218304Y3866172D01*
X12209619Y3845203D01*
X12206656Y3822700D01*
X12208625Y3807745D01*
X12199045Y3795045D01*
X11350687D01*
X11199145Y3946587D01*
Y5778500D01*
X11197383Y5787357D01*
X11192366Y5794866D01*
X10900266Y6086966D01*
X10892757Y6091983D01*
X10883900Y6093745D01*
X5584887D01*
X5522045Y6156587D01*
Y6618776D01*
X5549900D01*
X5557554Y6621946D01*
X5560724Y6629600D01*
Y6756600D01*
X5557554Y6764254D01*
X5549900Y6767424D01*
X5509545D01*
Y7067684D01*
X5529267Y7075853D01*
X5547023Y7089477D01*
X5560647Y7107233D01*
X5569212Y7127911D01*
X5572133Y7150100D01*
X5569212Y7172289D01*
X5560647Y7192967D01*
X5547023Y7210723D01*
X5529267Y7224347D01*
X5508589Y7232912D01*
X5486400Y7235833D01*
D02*
G37*
G36*
X10791700Y6629197D02*
X10756900D01*
Y6571000D01*
X10817598D01*
Y6603300D01*
X10815626Y6613210D01*
X10810012Y6621612D01*
X10801611Y6627226D01*
X10791700Y6629197D01*
D02*
G37*
G36*
X11074400Y6641897D02*
X11039600D01*
X11029689Y6639926D01*
X11021288Y6634312D01*
X11015674Y6625910D01*
X11013702Y6616000D01*
Y6583700D01*
X11074400D01*
Y6641897D01*
D02*
G37*
G36*
X11134600D02*
X11099800D01*
Y6583700D01*
X11160498D01*
Y6616000D01*
X11158526Y6625910D01*
X11152912Y6634312D01*
X11144511Y6639926D01*
X11134600Y6641897D01*
D02*
G37*
G36*
X10553700Y6565900D02*
X10491503D01*
Y6539600D01*
X10493474Y6529690D01*
X10499088Y6521288D01*
X10507490Y6515674D01*
X10517400Y6513702D01*
X10553700D01*
Y6565900D01*
D02*
G37*
G36*
X10641297D02*
X10579100D01*
Y6513702D01*
X10615400D01*
X10625310Y6515674D01*
X10633712Y6521288D01*
X10639326Y6529690D01*
X10641297Y6539600D01*
Y6565900D01*
D02*
G37*
G36*
X10731500Y6629197D02*
X10696700D01*
X10686789Y6627226D01*
X10678388Y6621612D01*
X10672774Y6613210D01*
X10670802Y6603300D01*
Y6571000D01*
X10731500D01*
Y6629197D01*
D02*
G37*
G36*
X10553700Y6643498D02*
X10517400D01*
X10507490Y6641526D01*
X10499088Y6635912D01*
X10493474Y6627510D01*
X10491503Y6617600D01*
Y6591300D01*
X10553700D01*
Y6643498D01*
D02*
G37*
G36*
X10996897Y6705900D02*
X10934700D01*
Y6653703D01*
X10971000D01*
X10980910Y6655674D01*
X10989312Y6661288D01*
X10994926Y6669690D01*
X10996897Y6679600D01*
Y6705900D01*
D02*
G37*
G36*
X3302000Y6673440D02*
X3301479Y6673224D01*
X3300939Y6673388D01*
X3259772Y6669333D01*
X3258794Y6668810D01*
X3257691Y6668919D01*
X3218106Y6656911D01*
X3217249Y6656208D01*
X3216145Y6656099D01*
X3179663Y6636599D01*
X3178960Y6635742D01*
X3177899Y6635420D01*
X3145923Y6609178D01*
X3145400Y6608200D01*
X3144422Y6607677D01*
X3118180Y6575701D01*
X3117858Y6574640D01*
X3117001Y6573937D01*
X3097501Y6537455D01*
X3097392Y6536351D01*
X3096689Y6535494D01*
X3084681Y6495909D01*
X3084790Y6494806D01*
X3084267Y6493828D01*
X3080212Y6452661D01*
X3080534Y6451600D01*
X3080212Y6450539D01*
X3084267Y6409372D01*
X3084790Y6408394D01*
X3084681Y6407291D01*
X3096689Y6367706D01*
X3097392Y6366849D01*
X3097501Y6365745D01*
X3117001Y6329263D01*
X3117858Y6328560D01*
X3118180Y6327499D01*
X3144422Y6295523D01*
X3145400Y6295000D01*
X3145923Y6294022D01*
X3177899Y6267780D01*
X3178960Y6267458D01*
X3179663Y6266601D01*
X3216145Y6247101D01*
X3217249Y6246992D01*
X3218106Y6246289D01*
X3257691Y6234281D01*
X3258794Y6234390D01*
X3259772Y6233867D01*
X3300939Y6229812D01*
X3301479Y6229976D01*
X3302000Y6229760D01*
X3302521Y6229976D01*
X3303061Y6229812D01*
X3344228Y6233867D01*
X3345206Y6234390D01*
X3346309Y6234281D01*
X3385894Y6246289D01*
X3386751Y6246992D01*
X3387855Y6247101D01*
X3424337Y6266601D01*
X3425040Y6267458D01*
X3426101Y6267780D01*
X3458077Y6294022D01*
X3458600Y6295000D01*
X3459578Y6295523D01*
X3485820Y6327499D01*
X3486142Y6328560D01*
X3486999Y6329263D01*
X3506499Y6365745D01*
X3506608Y6366849D01*
X3507311Y6367706D01*
X3519319Y6407291D01*
X3519210Y6408394D01*
X3519733Y6409372D01*
X3523788Y6450539D01*
X3523466Y6451600D01*
X3523788Y6452661D01*
X3519733Y6493828D01*
X3519210Y6494806D01*
X3519319Y6495909D01*
X3507311Y6535494D01*
X3506608Y6536351D01*
X3506499Y6537455D01*
X3486999Y6573937D01*
X3486142Y6574640D01*
X3485820Y6575701D01*
X3459578Y6607677D01*
X3458600Y6608200D01*
X3458077Y6609178D01*
X3426101Y6635420D01*
X3425040Y6635742D01*
X3424337Y6636599D01*
X3387855Y6656099D01*
X3386751Y6656208D01*
X3385894Y6656911D01*
X3346309Y6668919D01*
X3345206Y6668810D01*
X3344228Y6669333D01*
X3303061Y6673388D01*
X3302521Y6673224D01*
X3302000Y6673440D01*
D02*
G37*
G36*
X16941800D02*
X16941280Y6673224D01*
X16940739Y6673388D01*
X16899573Y6669333D01*
X16898595Y6668810D01*
X16897491Y6668919D01*
X16857906Y6656911D01*
X16857050Y6656208D01*
X16855945Y6656099D01*
X16819463Y6636599D01*
X16818761Y6635742D01*
X16817699Y6635420D01*
X16785722Y6609178D01*
X16785201Y6608200D01*
X16784222Y6607677D01*
X16757980Y6575701D01*
X16757658Y6574640D01*
X16756801Y6573937D01*
X16737302Y6537455D01*
X16737192Y6536351D01*
X16736488Y6535494D01*
X16724481Y6495909D01*
X16724590Y6494806D01*
X16724068Y6493828D01*
X16720012Y6452661D01*
X16720334Y6451600D01*
X16720012Y6450539D01*
X16724068Y6409372D01*
X16724590Y6408394D01*
X16724481Y6407291D01*
X16736488Y6367706D01*
X16737192Y6366849D01*
X16737302Y6365745D01*
X16756801Y6329263D01*
X16757658Y6328560D01*
X16757980Y6327499D01*
X16784222Y6295523D01*
X16785201Y6295000D01*
X16785722Y6294022D01*
X16817699Y6267780D01*
X16818761Y6267458D01*
X16819463Y6266601D01*
X16855945Y6247101D01*
X16857050Y6246992D01*
X16857906Y6246289D01*
X16897491Y6234281D01*
X16898595Y6234390D01*
X16899573Y6233867D01*
X16940739Y6229812D01*
X16941280Y6229976D01*
X16941800Y6229760D01*
X16942320Y6229976D01*
X16942860Y6229812D01*
X16984029Y6233867D01*
X16985007Y6234390D01*
X16986108Y6234281D01*
X17025694Y6246289D01*
X17026550Y6246992D01*
X17027655Y6247101D01*
X17064137Y6266601D01*
X17064841Y6267458D01*
X17065901Y6267780D01*
X17097878Y6294022D01*
X17098399Y6295000D01*
X17099377Y6295523D01*
X17125620Y6327499D01*
X17125941Y6328560D01*
X17126799Y6329263D01*
X17146300Y6365745D01*
X17146408Y6366849D01*
X17147112Y6367706D01*
X17159119Y6407291D01*
X17159010Y6408394D01*
X17159534Y6409372D01*
X17163588Y6450539D01*
X17163266Y6451600D01*
X17163588Y6452661D01*
X17159534Y6493828D01*
X17159010Y6494806D01*
X17159119Y6495909D01*
X17147112Y6535494D01*
X17146408Y6536351D01*
X17146300Y6537455D01*
X17126799Y6573937D01*
X17125941Y6574640D01*
X17125620Y6575701D01*
X17099377Y6607677D01*
X17098399Y6608200D01*
X17097878Y6609178D01*
X17065901Y6635420D01*
X17064841Y6635742D01*
X17064137Y6636599D01*
X17027655Y6656099D01*
X17026550Y6656208D01*
X17025694Y6656911D01*
X16986108Y6668919D01*
X16985007Y6668810D01*
X16984029Y6669333D01*
X16942860Y6673388D01*
X16942320Y6673224D01*
X16941800Y6673440D01*
D02*
G37*
G36*
X10615400Y6643498D02*
X10579100D01*
Y6591300D01*
X10641297D01*
Y6617600D01*
X10639326Y6627510D01*
X10633712Y6635912D01*
X10625310Y6641526D01*
X10615400Y6643498D01*
D02*
G37*
G36*
X9984400Y6800124D02*
X9624400D01*
X9616746Y6796954D01*
X9613576Y6789300D01*
Y6649300D01*
X9616746Y6641646D01*
X9624400Y6638476D01*
X9984400D01*
X9992054Y6641646D01*
X9995224Y6649300D01*
Y6789300D01*
X9992054Y6796954D01*
X9984400Y6800124D01*
D02*
G37*
G36*
X10909300Y6705900D02*
X10847103D01*
Y6679600D01*
X10849074Y6669690D01*
X10854688Y6661288D01*
X10863090Y6655674D01*
X10873000Y6653703D01*
X10909300D01*
Y6705900D01*
D02*
G37*
G36*
X11160498Y6558300D02*
X11099800D01*
Y6500102D01*
X11134600D01*
X11144511Y6502074D01*
X11152912Y6507688D01*
X11158526Y6516089D01*
X11160498Y6526000D01*
Y6558300D01*
D02*
G37*
G36*
X5664400Y6553498D02*
X5626100D01*
Y6476800D01*
X5690297D01*
Y6527600D01*
X5688326Y6537511D01*
X5682712Y6545912D01*
X5674310Y6551526D01*
X5664400Y6553498D01*
D02*
G37*
G36*
X4584700Y6553698D02*
X4546400D01*
X4536490Y6551726D01*
X4528088Y6546112D01*
X4522474Y6537711D01*
X4520503Y6527800D01*
Y6477000D01*
X4584700D01*
Y6553698D01*
D02*
G37*
G36*
X5092700D02*
X5054400D01*
X5044490Y6551726D01*
X5036088Y6546112D01*
X5030474Y6537711D01*
X5028503Y6527800D01*
Y6477000D01*
X5092700D01*
Y6553698D01*
D02*
G37*
G36*
X4064000Y6553498D02*
X4025700D01*
X4015790Y6551526D01*
X4007388Y6545912D01*
X4001774Y6537511D01*
X3999803Y6527600D01*
Y6476800D01*
X4064000D01*
Y6553498D01*
D02*
G37*
G36*
X5600700D02*
X5562400D01*
X5552490Y6551526D01*
X5544088Y6545912D01*
X5538474Y6537511D01*
X5536503Y6527600D01*
Y6476800D01*
X5600700D01*
Y6553498D01*
D02*
G37*
G36*
X4127700D02*
X4089400D01*
Y6476800D01*
X4153597D01*
Y6527600D01*
X4151626Y6537511D01*
X4146012Y6545912D01*
X4137610Y6551526D01*
X4127700Y6553498D01*
D02*
G37*
G36*
X6108700Y6553698D02*
X6070400D01*
X6060490Y6551726D01*
X6052088Y6546112D01*
X6046474Y6537711D01*
X6044503Y6527800D01*
Y6477000D01*
X6108700D01*
Y6553698D01*
D02*
G37*
G36*
X10731500Y6545600D02*
X10670802D01*
Y6513300D01*
X10672774Y6503389D01*
X10678388Y6494988D01*
X10686789Y6489374D01*
X10696700Y6487402D01*
X10731500D01*
Y6545600D01*
D02*
G37*
G36*
X10817598D02*
X10756900D01*
Y6487402D01*
X10791700D01*
X10801611Y6489374D01*
X10810012Y6494988D01*
X10815626Y6503389D01*
X10817598Y6513300D01*
Y6545600D01*
D02*
G37*
G36*
X11074400Y6558300D02*
X11013702D01*
Y6526000D01*
X11015674Y6516089D01*
X11021288Y6507688D01*
X11029689Y6502074D01*
X11039600Y6500102D01*
X11074400D01*
Y6558300D01*
D02*
G37*
G36*
X4648400Y6553698D02*
X4610100D01*
Y6477000D01*
X4674297D01*
Y6527800D01*
X4672326Y6537711D01*
X4666712Y6546112D01*
X4658310Y6551726D01*
X4648400Y6553698D01*
D02*
G37*
G36*
X5156400D02*
X5118100D01*
Y6477000D01*
X5182297D01*
Y6527800D01*
X5180326Y6537711D01*
X5174712Y6546112D01*
X5166310Y6551726D01*
X5156400Y6553698D01*
D02*
G37*
G36*
X6172400D02*
X6134100D01*
Y6477000D01*
X6198297D01*
Y6527800D01*
X6196326Y6537711D01*
X6190712Y6546112D01*
X6182310Y6551726D01*
X6172400Y6553698D01*
D02*
G37*
G36*
X10904400Y7168397D02*
X10833100D01*
Y7061200D01*
X10930297D01*
Y7142500D01*
X10928326Y7152410D01*
X10922712Y7160812D01*
X10914310Y7166426D01*
X10904400Y7168397D01*
D02*
G37*
G36*
X7285100Y7201324D02*
X7267675Y7199030D01*
X7239602Y7187401D01*
X7215496Y7168904D01*
X7196999Y7144798D01*
X7185370Y7116725D01*
X7183076Y7099300D01*
X7285100D01*
Y7201324D01*
D02*
G37*
G36*
X7310500D02*
Y7099300D01*
X7412524D01*
X7410230Y7116725D01*
X7398601Y7144798D01*
X7380104Y7168904D01*
X7355998Y7187401D01*
X7327925Y7199030D01*
X7310500Y7201324D01*
D02*
G37*
G36*
X7285100Y7073900D02*
X7183076D01*
X7185370Y7056475D01*
X7196999Y7028402D01*
X7215496Y7004296D01*
X7239602Y6985799D01*
X7267675Y6974170D01*
X7285100Y6971876D01*
Y7073900D01*
D02*
G37*
G36*
X7412524D02*
X7310500D01*
Y6971876D01*
X7327925Y6974170D01*
X7355998Y6985799D01*
X7380104Y7004296D01*
X7398601Y7028402D01*
X7410230Y7056475D01*
X7412524Y7073900D01*
D02*
G37*
G36*
X10807700Y7168397D02*
X10736400D01*
X10726490Y7166426D01*
X10718088Y7160812D01*
X10712474Y7152410D01*
X10710503Y7142500D01*
Y7061200D01*
X10807700D01*
Y7168397D01*
D02*
G37*
G36*
X9494400Y7290124D02*
X9354400D01*
X9346746Y7286954D01*
X9343576Y7279300D01*
Y7122445D01*
X8701900D01*
X8693043Y7120683D01*
X8689213Y7118124D01*
X8614400D01*
X8606746Y7114954D01*
X8604589Y7109745D01*
X7898624D01*
Y7176600D01*
X7895454Y7184254D01*
X7887800Y7187424D01*
X7707800D01*
X7700146Y7184254D01*
X7696976Y7176600D01*
Y6996600D01*
X7700146Y6988946D01*
X7707800Y6985776D01*
X7887800D01*
X7895454Y6988946D01*
X7898624Y6996600D01*
Y7063455D01*
X8603576D01*
Y7010300D01*
X8606746Y7002646D01*
X8614400Y6999476D01*
X8708400D01*
X8716054Y7002646D01*
X8719224Y7010300D01*
Y7076155D01*
X9343576D01*
Y6919300D01*
X9346746Y6911646D01*
X9354400Y6908476D01*
X9401255D01*
Y6704600D01*
X9403017Y6695743D01*
X9408034Y6688234D01*
X9572134Y6524134D01*
X9579643Y6519117D01*
X9588500Y6517355D01*
X10328213D01*
X10435734Y6409834D01*
X10443243Y6404817D01*
X10452100Y6403055D01*
X10858500D01*
X10867357Y6404817D01*
X10874866Y6409834D01*
X10922000Y6456969D01*
X10956434Y6422534D01*
X10963943Y6417517D01*
X10972800Y6415755D01*
X11226800D01*
X11235657Y6417517D01*
X11243166Y6422534D01*
X11293966Y6473334D01*
X11298983Y6480843D01*
X11300745Y6489700D01*
Y6581713D01*
X11325287Y6606255D01*
X11417300D01*
X11426157Y6608017D01*
X11433666Y6613034D01*
X11497466Y6676834D01*
X11502171Y6683876D01*
X11520100D01*
X11527754Y6687046D01*
X11530924Y6694700D01*
Y6792700D01*
X11527754Y6800354D01*
X11520100Y6803524D01*
X11503945D01*
Y6926676D01*
X11525800D01*
X11533454Y6929846D01*
X11536624Y6937500D01*
Y7032500D01*
X11533454Y7040154D01*
X11525800Y7043324D01*
X11435800D01*
X11428146Y7040154D01*
X11424976Y7032500D01*
Y6937500D01*
X11428146Y6929846D01*
X11435800Y6926676D01*
X11457655D01*
Y6803524D01*
X11442100D01*
X11434447Y6800354D01*
X11431276Y6792700D01*
Y6694700D01*
X11434446Y6687047D01*
X11435735Y6680567D01*
X11407713Y6652545D01*
X11315700D01*
X11306843Y6650783D01*
X11299334Y6645766D01*
X11261234Y6607666D01*
X11256217Y6600157D01*
X11254455Y6591300D01*
Y6499287D01*
X11217213Y6462045D01*
X10982387D01*
X10945145Y6499287D01*
Y6528776D01*
X10971000D01*
X10978654Y6531946D01*
X10981824Y6539600D01*
Y6617600D01*
X10978654Y6625254D01*
X10971000Y6628424D01*
X10873000D01*
X10865346Y6625254D01*
X10862176Y6617600D01*
Y6539600D01*
X10865346Y6531946D01*
X10873000Y6528776D01*
X10898855D01*
Y6499287D01*
X10848913Y6449345D01*
X10461687D01*
X10354166Y6556866D01*
X10346657Y6561883D01*
X10337800Y6563645D01*
X9598087D01*
X9447545Y6714187D01*
Y6908476D01*
X9494400D01*
X9502054Y6911646D01*
X9505224Y6919300D01*
Y7279300D01*
X9502054Y7286954D01*
X9494400Y7290124D01*
D02*
G37*
G36*
X11507400Y7275797D02*
X11481101D01*
Y7213599D01*
X11533298D01*
Y7249900D01*
X11531326Y7259810D01*
X11525713Y7268212D01*
X11517311Y7273826D01*
X11507400Y7275797D01*
D02*
G37*
G36*
X10542200Y7502024D02*
X10464200D01*
X10456547Y7498854D01*
X10453376Y7491200D01*
Y7393200D01*
X10456547Y7385546D01*
X10464200Y7382376D01*
X10481791D01*
X10481817Y7382243D01*
X10486834Y7374734D01*
X10576055Y7285513D01*
Y7174324D01*
X10527950D01*
X10520296Y7171154D01*
X10517126Y7163500D01*
Y7133500D01*
X10508290Y7121645D01*
X10265224D01*
Y7279300D01*
X10262054Y7286954D01*
X10254400Y7290124D01*
X10207545D01*
Y7380813D01*
X10245787Y7419055D01*
X10313376D01*
Y7393200D01*
X10316546Y7385546D01*
X10324200Y7382376D01*
X10402200D01*
X10409854Y7385546D01*
X10413024Y7393200D01*
Y7491200D01*
X10409854Y7498854D01*
X10402200Y7502024D01*
X10324200D01*
X10316546Y7498854D01*
X10313376Y7491200D01*
Y7465345D01*
X10236200D01*
X10227343Y7463583D01*
X10219834Y7458566D01*
X10168034Y7406766D01*
X10163017Y7399257D01*
X10161255Y7390400D01*
Y7290124D01*
X10114400D01*
X10106746Y7286954D01*
X10103576Y7279300D01*
Y6919300D01*
X10106746Y6911646D01*
X10114400Y6908476D01*
X10254400D01*
X10262054Y6911646D01*
X10265224Y6919300D01*
Y7075355D01*
X10428631D01*
X10431406Y7071258D01*
X10433523Y7062655D01*
X10372234Y7001366D01*
X10367217Y6993857D01*
X10365455Y6985000D01*
Y6858000D01*
X10367217Y6849143D01*
X10372234Y6841634D01*
X10506576Y6707292D01*
Y6679600D01*
X10509746Y6671947D01*
X10517400Y6668776D01*
X10615400D01*
X10623054Y6671947D01*
X10626224Y6679600D01*
Y6757600D01*
X10623054Y6765254D01*
X10615400Y6768424D01*
X10517400D01*
X10512809Y6766522D01*
X10411745Y6867587D01*
Y6975413D01*
X10456598Y7020266D01*
X10462501Y7020693D01*
X10462884Y7020347D01*
X10465849Y7006080D01*
X10435734Y6975966D01*
X10430717Y6968457D01*
X10428955Y6959600D01*
Y6883400D01*
X10430717Y6874543D01*
X10435734Y6867034D01*
X10473834Y6828934D01*
X10481343Y6823917D01*
X10490200Y6822155D01*
X10683813D01*
X10719145Y6786824D01*
X10716443Y6774124D01*
X10696700D01*
X10689046Y6770954D01*
X10685876Y6763300D01*
Y6673300D01*
X10689046Y6665646D01*
X10696700Y6662476D01*
X10791700D01*
X10799354Y6665646D01*
X10802524Y6673300D01*
Y6763300D01*
X10799354Y6770954D01*
X10791700Y6774124D01*
X10767345D01*
Y6794500D01*
X10765583Y6803357D01*
X10760566Y6810866D01*
X10709766Y6861666D01*
X10702257Y6866683D01*
X10693400Y6868445D01*
X10499787D01*
X10475245Y6892987D01*
Y6950013D01*
X10497075Y6971844D01*
X10511502Y6971046D01*
X10517126Y6963500D01*
Y6933500D01*
X10520296Y6925846D01*
X10527950Y6922676D01*
X10670450D01*
X10678104Y6925846D01*
X10681274Y6933500D01*
Y6963500D01*
X10678104Y6971153D01*
X10678104Y6975847D01*
X10681274Y6983500D01*
Y7013500D01*
X10678706Y7023500D01*
X10681274Y7033500D01*
Y7063500D01*
X10678706Y7073500D01*
X10681274Y7083500D01*
Y7113500D01*
X10678104Y7121153D01*
X10678104Y7125847D01*
X10681274Y7133500D01*
Y7163500D01*
X10678104Y7171154D01*
X10670450Y7174324D01*
X10622345D01*
Y7295100D01*
X10620583Y7303957D01*
X10615566Y7311466D01*
X10548466Y7378566D01*
X10549854Y7385547D01*
X10553024Y7393200D01*
Y7491200D01*
X10549854Y7498854D01*
X10542200Y7502024D01*
D02*
G37*
G36*
X9984400Y7560124D02*
X9624400D01*
X9616746Y7556954D01*
X9613576Y7549300D01*
Y7409300D01*
X9616746Y7401646D01*
X9624400Y7398476D01*
X9984400D01*
X9992054Y7401646D01*
X9995224Y7409300D01*
Y7549300D01*
X9992054Y7556954D01*
X9984400Y7560124D01*
D02*
G37*
G36*
X11455701Y7188199D02*
X11403503D01*
Y7151900D01*
X11405474Y7141990D01*
X11411088Y7133588D01*
X11419490Y7127974D01*
X11429400Y7126003D01*
X11455701D01*
Y7188199D01*
D02*
G37*
G36*
X11533298D02*
X11481101D01*
Y7126003D01*
X11507400D01*
X11517311Y7127974D01*
X11525713Y7133588D01*
X11531326Y7141990D01*
X11533298Y7151900D01*
Y7188199D01*
D02*
G37*
G36*
X11455701Y7275797D02*
X11429400D01*
X11419490Y7273826D01*
X11411088Y7268212D01*
X11405474Y7259810D01*
X11403503Y7249900D01*
Y7213599D01*
X11455701D01*
Y7275797D01*
D02*
G37*
G36*
X10930297Y7035800D02*
X10833100D01*
Y6928603D01*
X10904400D01*
X10914310Y6930574D01*
X10922712Y6936188D01*
X10928326Y6944590D01*
X10930297Y6954500D01*
Y7035800D01*
D02*
G37*
G36*
X10971000Y6783498D02*
X10934700D01*
Y6731300D01*
X10996897D01*
Y6757600D01*
X10994926Y6767511D01*
X10989312Y6775913D01*
X10980910Y6781526D01*
X10971000Y6783498D01*
D02*
G37*
G36*
X15867000Y6870700D02*
X15764977D01*
X15767270Y6853275D01*
X15778899Y6825202D01*
X15797395Y6801096D01*
X15821503Y6782599D01*
X15849574Y6770970D01*
X15867000Y6768676D01*
Y6870700D01*
D02*
G37*
G36*
X15994424D02*
X15892400D01*
Y6768676D01*
X15909825Y6770970D01*
X15937898Y6782599D01*
X15962004Y6801096D01*
X15980501Y6825202D01*
X15992130Y6853275D01*
X15994424Y6870700D01*
D02*
G37*
G36*
X11658600Y7401845D02*
X11366500D01*
X11357643Y7400083D01*
X11350134Y7395066D01*
X11305684Y7350616D01*
X11300667Y7343107D01*
X11298905Y7334250D01*
Y7260724D01*
X11289400D01*
X11281746Y7257554D01*
X11278576Y7249900D01*
Y7224045D01*
X11239500D01*
X11230643Y7222283D01*
X11223134Y7217266D01*
X11185034Y7179166D01*
X11180017Y7171657D01*
X11178255Y7162800D01*
Y7146987D01*
X11152913Y7121645D01*
X11132510D01*
X11123674Y7133500D01*
Y7163500D01*
X11120504Y7171154D01*
X11112850Y7174324D01*
X10970350D01*
X10962696Y7171154D01*
X10959526Y7163500D01*
Y7133500D01*
X10962696Y7125847D01*
X10962696Y7121153D01*
X10959526Y7113500D01*
Y7083500D01*
X10962094Y7073500D01*
X10959526Y7063500D01*
Y7033500D01*
X10962094Y7023500D01*
X10959526Y7013500D01*
Y6983500D01*
X10962696Y6975847D01*
X10962696Y6971153D01*
X10959526Y6963500D01*
Y6933500D01*
X10962696Y6925846D01*
X10970350Y6922676D01*
X11039485D01*
X11041600Y6922255D01*
X11174500D01*
X11183357Y6924017D01*
X11190866Y6929034D01*
X11223687Y6961855D01*
X11264976D01*
Y6937500D01*
X11268146Y6929846D01*
X11275800Y6926676D01*
X11297655D01*
Y6852900D01*
X11299417Y6844043D01*
X11304434Y6836534D01*
X11317955Y6823013D01*
Y6803524D01*
X11302100D01*
X11294446Y6800354D01*
X11291276Y6792700D01*
Y6766845D01*
X11226800D01*
X11217943Y6765083D01*
X11210434Y6760066D01*
X11204513Y6754145D01*
X11145424D01*
Y6776000D01*
X11142254Y6783654D01*
X11134600Y6786824D01*
X11039600D01*
X11031946Y6783654D01*
X11028776Y6776000D01*
Y6686000D01*
X11031946Y6678346D01*
X11039600Y6675176D01*
X11134600D01*
X11142254Y6678346D01*
X11145424Y6686000D01*
Y6707855D01*
X11214100D01*
X11222957Y6709617D01*
X11230466Y6714634D01*
X11236387Y6720555D01*
X11291276D01*
Y6694700D01*
X11294446Y6687046D01*
X11302100Y6683876D01*
X11380100D01*
X11387754Y6687046D01*
X11390924Y6694700D01*
Y6792700D01*
X11387754Y6800354D01*
X11380100Y6803524D01*
X11364245D01*
Y6832600D01*
X11362483Y6841457D01*
X11357466Y6848966D01*
X11343945Y6862487D01*
Y6926676D01*
X11365800D01*
X11373454Y6929846D01*
X11376624Y6937500D01*
Y7032500D01*
X11373454Y7040154D01*
X11365800Y7043324D01*
X11275800D01*
X11268146Y7040154D01*
X11264976Y7032500D01*
Y7008145D01*
X11214100D01*
X11205243Y7006383D01*
X11197734Y7001366D01*
X11164913Y6968545D01*
X11129796D01*
X11122740Y6981245D01*
X11123674Y6983500D01*
Y7013500D01*
X11121106Y7023500D01*
X11123674Y7033500D01*
Y7063500D01*
X11132510Y7075355D01*
X11162500D01*
X11171357Y7077117D01*
X11178866Y7082134D01*
X11217766Y7121034D01*
X11222783Y7128543D01*
X11224545Y7137400D01*
Y7153213D01*
X11249087Y7177755D01*
X11278576D01*
Y7151900D01*
X11281746Y7144246D01*
X11289400Y7141076D01*
X11367400D01*
X11375054Y7144246D01*
X11378224Y7151900D01*
Y7249900D01*
X11375054Y7257554D01*
X11367400Y7260724D01*
X11345195D01*
Y7324663D01*
X11376087Y7355555D01*
X11649013D01*
X11985126Y7019443D01*
X11984503Y7006758D01*
X11972715Y6997085D01*
X11952721Y6972721D01*
X11937864Y6944926D01*
X11928715Y6914765D01*
X11925626Y6883400D01*
X11928715Y6852035D01*
X11937864Y6821874D01*
X11952721Y6794079D01*
X11957962Y6787693D01*
X11858134Y6687866D01*
X11853117Y6680357D01*
X11851355Y6671500D01*
Y6622824D01*
X11827500D01*
X11819846Y6619654D01*
X11816676Y6612000D01*
Y6515000D01*
X11819846Y6507346D01*
X11827500Y6504176D01*
X11921500D01*
X11929154Y6507346D01*
X11932324Y6515000D01*
Y6612000D01*
X11929154Y6619654D01*
X11921500Y6622824D01*
X11897645D01*
Y6661913D01*
X11990693Y6754962D01*
X11997079Y6749721D01*
X12024874Y6734864D01*
X12055035Y6725715D01*
X12086400Y6722626D01*
X12117765Y6725715D01*
X12147926Y6734864D01*
X12175721Y6749721D01*
X12200085Y6769715D01*
X12220079Y6794079D01*
X12234936Y6821874D01*
X12244085Y6852035D01*
X12247174Y6883400D01*
X12244085Y6914765D01*
X12234936Y6944926D01*
X12220079Y6972721D01*
X12200085Y6997085D01*
X12175721Y7017079D01*
X12147926Y7031936D01*
X12117765Y7041085D01*
X12086400Y7044174D01*
X12055035Y7041085D01*
X12035018Y7035013D01*
X11674966Y7395066D01*
X11667457Y7400083D01*
X11658600Y7401845D01*
D02*
G37*
G36*
X14376401Y7044174D02*
X14345035Y7041085D01*
X14314874Y7031936D01*
X14287079Y7017079D01*
X14262715Y6997085D01*
X14242722Y6972721D01*
X14227864Y6944926D01*
X14218715Y6914765D01*
X14215627Y6883400D01*
X14218715Y6852035D01*
X14227864Y6821874D01*
X14242722Y6794079D01*
X14262715Y6769715D01*
X14287079Y6749721D01*
X14314874Y6734864D01*
X14345035Y6725715D01*
X14376401Y6722626D01*
X14407765Y6725715D01*
X14437926Y6734864D01*
X14465721Y6749721D01*
X14490085Y6769715D01*
X14492329Y6772451D01*
X15379700D01*
X15408417Y6776231D01*
X15423734Y6782576D01*
X15469701D01*
X15477354Y6785746D01*
X15480524Y6793400D01*
Y6839366D01*
X15486868Y6854684D01*
X15490649Y6883400D01*
X15486868Y6912116D01*
X15480524Y6927434D01*
Y6973400D01*
X15477354Y6981054D01*
X15469701Y6984224D01*
X15423734D01*
X15408417Y6990569D01*
X15379700Y6994349D01*
X14492329D01*
X14490085Y6997085D01*
X14465721Y7017079D01*
X14437926Y7031936D01*
X14407765Y7041085D01*
X14376401Y7044174D01*
D02*
G37*
G36*
X10909300Y6783498D02*
X10873000D01*
X10863090Y6781526D01*
X10854688Y6775913D01*
X10849074Y6767511D01*
X10847103Y6757600D01*
Y6731300D01*
X10909300D01*
Y6783498D01*
D02*
G37*
G36*
X8648700Y6896100D02*
X8588503D01*
Y6860300D01*
X8590474Y6850389D01*
X8596088Y6841988D01*
X8604490Y6836374D01*
X8614400Y6834402D01*
X8648700D01*
Y6896100D01*
D02*
G37*
G36*
Y6983198D02*
X8614400D01*
X8604490Y6981226D01*
X8596088Y6975612D01*
X8590474Y6967211D01*
X8588503Y6957300D01*
Y6921500D01*
X8648700D01*
Y6983198D01*
D02*
G37*
G36*
X8708400D02*
X8674100D01*
Y6921500D01*
X8734297D01*
Y6957300D01*
X8732326Y6967211D01*
X8726712Y6975612D01*
X8718310Y6981226D01*
X8708400Y6983198D01*
D02*
G37*
G36*
X10807700Y7035800D02*
X10710503D01*
Y6954500D01*
X10712474Y6944590D01*
X10718088Y6936188D01*
X10726490Y6930574D01*
X10736400Y6928603D01*
X10807700D01*
Y7035800D01*
D02*
G37*
G36*
X8734297Y6896100D02*
X8674100D01*
Y6834402D01*
X8708400D01*
X8718310Y6836374D01*
X8726712Y6841988D01*
X8732326Y6850389D01*
X8734297Y6860300D01*
Y6896100D01*
D02*
G37*
G36*
X15867000Y6998124D02*
X15849574Y6995830D01*
X15821503Y6984201D01*
X15797395Y6965704D01*
X15778899Y6941598D01*
X15767270Y6913525D01*
X15764977Y6896100D01*
X15867000D01*
Y6998124D01*
D02*
G37*
G36*
X15892400D02*
Y6896100D01*
X15994424D01*
X15992130Y6913525D01*
X15980501Y6941598D01*
X15962004Y6965704D01*
X15937898Y6984201D01*
X15909825Y6995830D01*
X15892400Y6998124D01*
D02*
G37*
G36*
X11921500Y6487898D02*
X11887200D01*
Y6426200D01*
X11947397D01*
Y6462000D01*
X11945426Y6471911D01*
X11939812Y6480312D01*
X11931410Y6485926D01*
X11921500Y6487898D01*
D02*
G37*
G36*
X15718600Y5476829D02*
X15707048Y5475308D01*
X15684448Y5465947D01*
X15665044Y5451057D01*
X15650153Y5431650D01*
X15640791Y5409051D01*
X15639270Y5397499D01*
X15718600D01*
Y5476829D01*
D02*
G37*
G36*
X15744000D02*
Y5397499D01*
X15823331D01*
X15821809Y5409051D01*
X15812448Y5431650D01*
X15797557Y5451057D01*
X15778151Y5465947D01*
X15755553Y5475308D01*
X15744000Y5476829D01*
D02*
G37*
G36*
X13127800Y5489529D02*
X13116248Y5488008D01*
X13093649Y5478647D01*
X13074243Y5463757D01*
X13059352Y5444350D01*
X13049991Y5421751D01*
X13048470Y5410199D01*
X13127800D01*
Y5489529D01*
D02*
G37*
G36*
X5444300Y5464129D02*
X5432748Y5462608D01*
X5410149Y5453247D01*
X5390743Y5438357D01*
X5375852Y5418950D01*
X5366491Y5396351D01*
X5364970Y5384799D01*
X5444300D01*
Y5464129D01*
D02*
G37*
G36*
X5469700D02*
Y5384799D01*
X5549030D01*
X5547509Y5396351D01*
X5538148Y5418950D01*
X5523257Y5438357D01*
X5503851Y5453247D01*
X5481252Y5462608D01*
X5469700Y5464129D01*
D02*
G37*
G36*
X5294497Y5422900D02*
X5257800D01*
Y5387702D01*
X5268600D01*
X5278510Y5389674D01*
X5286912Y5395288D01*
X5292526Y5403689D01*
X5294497Y5413600D01*
Y5422900D01*
D02*
G37*
G36*
X13153200Y5489529D02*
Y5410199D01*
X13232530D01*
X13231009Y5421751D01*
X13221648Y5444350D01*
X13206757Y5463757D01*
X13187350Y5478647D01*
X13164752Y5488008D01*
X13153200Y5489529D01*
D02*
G37*
G36*
X10553700Y5489530D02*
Y5410200D01*
X10633030D01*
X10631509Y5421752D01*
X10622148Y5444351D01*
X10607257Y5463757D01*
X10587851Y5478648D01*
X10565252Y5488009D01*
X10553700Y5489530D01*
D02*
G37*
G36*
X7821797Y5461000D02*
X7785100D01*
Y5425802D01*
X7795900D01*
X7805810Y5427774D01*
X7814212Y5433388D01*
X7819826Y5441789D01*
X7821797Y5451700D01*
Y5461000D01*
D02*
G37*
G36*
X10382597D02*
X10345900D01*
Y5425802D01*
X10356700D01*
X10366610Y5427774D01*
X10375012Y5433388D01*
X10380626Y5441789D01*
X10382597Y5451700D01*
Y5461000D01*
D02*
G37*
G36*
X7962900Y5489530D02*
X7951348Y5488009D01*
X7928749Y5478648D01*
X7909343Y5463757D01*
X7894452Y5444351D01*
X7885091Y5421752D01*
X7883570Y5410200D01*
X7962900D01*
Y5489530D01*
D02*
G37*
G36*
X7988300D02*
Y5410200D01*
X8067630D01*
X8066109Y5421752D01*
X8056748Y5444351D01*
X8041857Y5463757D01*
X8022451Y5478648D01*
X7999852Y5488009D01*
X7988300Y5489530D01*
D02*
G37*
G36*
X10528300D02*
X10516748Y5488009D01*
X10494149Y5478648D01*
X10474743Y5463757D01*
X10459852Y5444351D01*
X10450491Y5421752D01*
X10448970Y5410200D01*
X10528300D01*
Y5489530D01*
D02*
G37*
G36*
X13525500Y5447505D02*
Y5359400D01*
X13613605D01*
X13611784Y5373223D01*
X13601547Y5397938D01*
X13585262Y5419162D01*
X13564038Y5435448D01*
X13539323Y5445685D01*
X13525500Y5447505D01*
D02*
G37*
G36*
X10633030Y5384800D02*
X10553700D01*
Y5305470D01*
X10565252Y5306991D01*
X10587851Y5316352D01*
X10607257Y5331243D01*
X10622148Y5350649D01*
X10631509Y5373248D01*
X10633030Y5384800D01*
D02*
G37*
G36*
X5803900Y5409405D02*
X5790077Y5407585D01*
X5765362Y5397348D01*
X5744138Y5381062D01*
X5727852Y5359838D01*
X5717615Y5335123D01*
X5715795Y5321300D01*
X5803900D01*
Y5409405D01*
D02*
G37*
G36*
X5829300D02*
Y5321300D01*
X5917405D01*
X5915585Y5335123D01*
X5905348Y5359838D01*
X5889062Y5381062D01*
X5867838Y5397348D01*
X5843123Y5407585D01*
X5829300Y5409405D01*
D02*
G37*
G36*
X7962900Y5384800D02*
X7883570D01*
X7885091Y5373248D01*
X7894452Y5350649D01*
X7909343Y5331243D01*
X7928749Y5316352D01*
X7951348Y5306991D01*
X7962900Y5305470D01*
Y5384800D01*
D02*
G37*
G36*
X8067630D02*
X7988300D01*
Y5305470D01*
X7999852Y5306991D01*
X8022451Y5316352D01*
X8041857Y5331243D01*
X8056748Y5350649D01*
X8066109Y5373248D01*
X8067630Y5384800D01*
D02*
G37*
G36*
X10528300D02*
X10448970D01*
X10450491Y5373248D01*
X10459852Y5350649D01*
X10474743Y5331243D01*
X10494149Y5316352D01*
X10516748Y5306991D01*
X10528300Y5305470D01*
Y5384800D01*
D02*
G37*
G36*
X16090900Y5422105D02*
X16077077Y5420285D01*
X16052362Y5410048D01*
X16031139Y5393762D01*
X16014851Y5372538D01*
X16004614Y5347823D01*
X16002795Y5334000D01*
X16090900D01*
Y5422105D01*
D02*
G37*
G36*
X10909300Y5447505D02*
X10895477Y5445685D01*
X10870762Y5435448D01*
X10849538Y5419162D01*
X10833252Y5397938D01*
X10823015Y5373223D01*
X10821195Y5359400D01*
X10909300D01*
Y5447505D01*
D02*
G37*
G36*
X10934700D02*
Y5359400D01*
X11022805D01*
X11020985Y5373223D01*
X11010748Y5397938D01*
X10994462Y5419162D01*
X10973238Y5435448D01*
X10948523Y5445685D01*
X10934700Y5447505D01*
D02*
G37*
G36*
X13500101D02*
X13486276Y5445685D01*
X13461562Y5435448D01*
X13440338Y5419162D01*
X13424052Y5397938D01*
X13413815Y5373223D01*
X13411995Y5359400D01*
X13500101D01*
Y5447505D01*
D02*
G37*
G36*
X16116299Y5422105D02*
Y5334000D01*
X16204405D01*
X16202585Y5347823D01*
X16192348Y5372538D01*
X16176062Y5393762D01*
X16154839Y5410048D01*
X16130122Y5420285D01*
X16116299Y5422105D01*
D02*
G37*
G36*
X8343900Y5434805D02*
X8330077Y5432985D01*
X8305362Y5422748D01*
X8284138Y5406462D01*
X8267852Y5385238D01*
X8257615Y5360523D01*
X8255795Y5346700D01*
X8343900D01*
Y5434805D01*
D02*
G37*
G36*
X8369300D02*
Y5346700D01*
X8457405D01*
X8455585Y5360523D01*
X8445348Y5385238D01*
X8429062Y5406462D01*
X8407838Y5422748D01*
X8383123Y5432985D01*
X8369300Y5434805D01*
D02*
G37*
G36*
X4153597Y6451400D02*
X4089400D01*
Y6374703D01*
X4127700D01*
X4137610Y6376674D01*
X4146012Y6382288D01*
X4151626Y6390690D01*
X4153597Y6400600D01*
Y6451400D01*
D02*
G37*
G36*
X5600700D02*
X5536503D01*
Y6400600D01*
X5538474Y6390690D01*
X5544088Y6382288D01*
X5552490Y6376674D01*
X5562400Y6374703D01*
X5600700D01*
Y6451400D01*
D02*
G37*
G36*
X5690297D02*
X5626100D01*
Y6374703D01*
X5664400D01*
X5674310Y6376674D01*
X5682712Y6382288D01*
X5688326Y6390690D01*
X5690297Y6400600D01*
Y6451400D01*
D02*
G37*
G36*
X10922000Y5687644D02*
X10899497Y5684681D01*
X10878528Y5675996D01*
X10860522Y5662178D01*
X10846704Y5644172D01*
X10838285Y5623845D01*
X10337800D01*
X10328943Y5622083D01*
X10321434Y5617066D01*
X10249834Y5545466D01*
X10244817Y5537957D01*
X10243055Y5529100D01*
Y5506524D01*
X10242700D01*
X10235046Y5503354D01*
X10231876Y5495700D01*
Y5472108D01*
X10180414Y5420646D01*
X10119324D01*
Y5465001D01*
X10116154Y5472655D01*
X10108500Y5475825D01*
X9973500D01*
X9965846Y5472655D01*
X9962676Y5465001D01*
Y5330001D01*
X9965846Y5322347D01*
X9973500Y5319177D01*
X10108500D01*
X10116154Y5322347D01*
X10119324Y5330001D01*
Y5374356D01*
X10190001D01*
X10198858Y5376118D01*
X10206367Y5381135D01*
X10266108Y5440876D01*
X10286384D01*
X10291388Y5433388D01*
X10299790Y5427774D01*
X10309700Y5425802D01*
X10320500D01*
Y5473700D01*
Y5521598D01*
X10309700D01*
X10309313Y5521520D01*
X10303056Y5533225D01*
X10347387Y5577555D01*
X10838285D01*
X10846704Y5557228D01*
X10860522Y5539222D01*
X10878528Y5525404D01*
X10899497Y5516719D01*
X10922000Y5513756D01*
X10944503Y5516719D01*
X10965472Y5525404D01*
X10983478Y5539222D01*
X10997296Y5557228D01*
X11005981Y5578197D01*
X11008944Y5600700D01*
X11005981Y5623203D01*
X10997296Y5644172D01*
X10983478Y5662178D01*
X10965472Y5675996D01*
X10944503Y5684681D01*
X10922000Y5687644D01*
D02*
G37*
G36*
X13512801D02*
X13490297Y5684681D01*
X13469328Y5675996D01*
X13451321Y5662178D01*
X13437505Y5644172D01*
X13429085Y5623845D01*
X12928600D01*
X12919743Y5622083D01*
X12912234Y5617066D01*
X12832533Y5537366D01*
X12827518Y5529857D01*
X12825755Y5521000D01*
Y5519224D01*
X12825400D01*
X12817746Y5516054D01*
X12814577Y5508400D01*
Y5484808D01*
X12750414Y5420645D01*
X12718824D01*
Y5465001D01*
X12715654Y5472654D01*
X12708000Y5475824D01*
X12573000D01*
X12565346Y5472654D01*
X12562176Y5465001D01*
Y5330001D01*
X12565346Y5322347D01*
X12573000Y5319177D01*
X12708000D01*
X12715654Y5322347D01*
X12718824Y5330001D01*
Y5374356D01*
X12760000D01*
X12768858Y5376118D01*
X12776366Y5381135D01*
X12848807Y5453576D01*
X12869084D01*
X12874088Y5446088D01*
X12882491Y5440474D01*
X12892400Y5438502D01*
X12903200D01*
Y5486400D01*
X12915900D01*
Y5499100D01*
X12965297D01*
Y5508400D01*
X12963326Y5518311D01*
X12957712Y5526712D01*
X12949310Y5532326D01*
X12939400Y5534298D01*
X12911523D01*
X12906662Y5546031D01*
X12938187Y5577555D01*
X13429085D01*
X13437505Y5557228D01*
X13451321Y5539222D01*
X13469328Y5525404D01*
X13490297Y5516719D01*
X13512801Y5513756D01*
X13535303Y5516719D01*
X13556271Y5525404D01*
X13574278Y5539222D01*
X13588097Y5557228D01*
X13596780Y5578197D01*
X13599744Y5600700D01*
X13596780Y5623203D01*
X13588097Y5644172D01*
X13574278Y5662178D01*
X13556271Y5675996D01*
X13535303Y5684681D01*
X13512801Y5687644D01*
D02*
G37*
G36*
X4064000Y6451400D02*
X3999803D01*
Y6400600D01*
X4001774Y6390690D01*
X4007388Y6382288D01*
X4015790Y6376674D01*
X4025700Y6374703D01*
X4064000D01*
Y6451400D01*
D02*
G37*
G36*
X4584700Y6451600D02*
X4520503D01*
Y6400800D01*
X4522474Y6390889D01*
X4528088Y6382488D01*
X4536490Y6376874D01*
X4546400Y6374902D01*
X4584700D01*
Y6451600D01*
D02*
G37*
G36*
X6108700D02*
X6044503D01*
Y6400800D01*
X6046474Y6390889D01*
X6052088Y6382488D01*
X6060490Y6376874D01*
X6070400Y6374902D01*
X6108700D01*
Y6451600D01*
D02*
G37*
G36*
X6198297D02*
X6134100D01*
Y6374902D01*
X6172400D01*
X6182310Y6376874D01*
X6190712Y6382488D01*
X6196326Y6390889D01*
X6198297Y6400800D01*
Y6451600D01*
D02*
G37*
G36*
X11861800Y6487898D02*
X11827500D01*
X11817590Y6485926D01*
X11809188Y6480312D01*
X11803574Y6471911D01*
X11801603Y6462000D01*
Y6426200D01*
X11861800D01*
Y6487898D01*
D02*
G37*
G36*
X4674297Y6451600D02*
X4610100D01*
Y6374902D01*
X4648400D01*
X4658310Y6376874D01*
X4666712Y6382488D01*
X4672326Y6390889D01*
X4674297Y6400800D01*
Y6451600D01*
D02*
G37*
G36*
X5092700D02*
X5028503D01*
Y6400800D01*
X5030474Y6390889D01*
X5036088Y6382488D01*
X5044490Y6376874D01*
X5054400Y6374902D01*
X5092700D01*
Y6451600D01*
D02*
G37*
G36*
X5182297D02*
X5118100D01*
Y6374902D01*
X5156400D01*
X5166310Y6376874D01*
X5174712Y6382488D01*
X5180326Y6390889D01*
X5182297Y6400800D01*
Y6451600D01*
D02*
G37*
G36*
X12369800Y5687724D02*
X12217400D01*
X12209746Y5684554D01*
X12206576Y5676900D01*
Y5524500D01*
X12209746Y5516846D01*
X12217400Y5513676D01*
X12369800D01*
X12377454Y5516846D01*
X12380624Y5524500D01*
Y5676900D01*
X12377454Y5684554D01*
X12369800Y5687724D01*
D02*
G37*
G36*
X4673600Y5649624D02*
X4521200D01*
X4513546Y5646454D01*
X4510376Y5638800D01*
Y5486400D01*
X4513546Y5478746D01*
X4521200Y5475576D01*
X4673600D01*
X4681254Y5478746D01*
X4684424Y5486400D01*
Y5638800D01*
X4681254Y5646454D01*
X4673600Y5649624D01*
D02*
G37*
G36*
X5816600Y5649544D02*
X5794097Y5646581D01*
X5773128Y5637896D01*
X5755122Y5624078D01*
X5741304Y5606072D01*
X5732885Y5585745D01*
X5245100D01*
X5236243Y5583983D01*
X5228734Y5578966D01*
X5161734Y5511966D01*
X5156717Y5504457D01*
X5154955Y5495600D01*
Y5468424D01*
X5154600D01*
X5146946Y5465254D01*
X5143776Y5457600D01*
Y5454600D01*
X5139833Y5451966D01*
X5083113Y5395245D01*
X5035324D01*
Y5439600D01*
X5032154Y5447254D01*
X5024500Y5450424D01*
X4889500D01*
X4881846Y5447254D01*
X4878676Y5439600D01*
Y5304601D01*
X4881846Y5296947D01*
X4889500Y5293777D01*
X5024500D01*
X5032154Y5296947D01*
X5035324Y5304601D01*
Y5348956D01*
X5092699D01*
X5101557Y5350718D01*
X5109065Y5355735D01*
X5156107Y5402776D01*
X5198284D01*
X5203288Y5395288D01*
X5211690Y5389674D01*
X5221600Y5387702D01*
X5232400D01*
Y5435600D01*
Y5483498D01*
X5221600D01*
X5215470Y5482278D01*
X5209214Y5493983D01*
X5254687Y5539455D01*
X5732885D01*
X5741304Y5519128D01*
X5755122Y5501122D01*
X5773128Y5487304D01*
X5794097Y5478619D01*
X5816600Y5475656D01*
X5839103Y5478619D01*
X5860072Y5487304D01*
X5878078Y5501122D01*
X5891896Y5519128D01*
X5900581Y5540097D01*
X5903544Y5562600D01*
X5900581Y5585103D01*
X5891896Y5606072D01*
X5878078Y5624078D01*
X5860072Y5637896D01*
X5839103Y5646581D01*
X5816600Y5649544D01*
D02*
G37*
G36*
X7795900Y5521598D02*
X7785100D01*
Y5486400D01*
X7821797D01*
Y5495700D01*
X7819826Y5505611D01*
X7814212Y5514012D01*
X7805810Y5519626D01*
X7795900Y5521598D01*
D02*
G37*
G36*
X15564197Y5461000D02*
X15527499D01*
Y5425802D01*
X15538300D01*
X15548210Y5427774D01*
X15556612Y5433388D01*
X15562225Y5441789D01*
X15564197Y5451700D01*
Y5461000D01*
D02*
G37*
G36*
X12965297Y5473700D02*
X12928600D01*
Y5438502D01*
X12939400D01*
X12949310Y5440474D01*
X12957712Y5446088D01*
X12963326Y5454489D01*
X12965297Y5464400D01*
Y5473700D01*
D02*
G37*
G36*
X5268600Y5483498D02*
X5257800D01*
Y5448300D01*
X5294497D01*
Y5457600D01*
X5292526Y5467511D01*
X5286912Y5475912D01*
X5278510Y5481526D01*
X5268600Y5483498D01*
D02*
G37*
G36*
X10356700Y5521598D02*
X10345900D01*
Y5486400D01*
X10382597D01*
Y5495700D01*
X10380626Y5505611D01*
X10375012Y5514012D01*
X10366610Y5519626D01*
X10356700Y5521598D01*
D02*
G37*
G36*
X7213600Y5675024D02*
X7061200D01*
X7053546Y5671854D01*
X7050376Y5664200D01*
Y5511800D01*
X7053546Y5504146D01*
X7061200Y5500976D01*
X7213600D01*
X7221254Y5504146D01*
X7224424Y5511800D01*
Y5664200D01*
X7221254Y5671854D01*
X7213600Y5675024D01*
D02*
G37*
G36*
X8356600Y5674944D02*
X8334097Y5671981D01*
X8313128Y5663296D01*
X8295122Y5649478D01*
X8281304Y5631472D01*
X8272885Y5611145D01*
X7772400D01*
X7763543Y5609383D01*
X7756034Y5604366D01*
X7689034Y5537366D01*
X7684017Y5529857D01*
X7682255Y5521000D01*
Y5506524D01*
X7681900D01*
X7674246Y5503354D01*
X7671076Y5495700D01*
Y5468610D01*
X7623112Y5420646D01*
X7553924D01*
Y5465001D01*
X7550754Y5472655D01*
X7543100Y5475825D01*
X7408100D01*
X7400446Y5472655D01*
X7397276Y5465001D01*
Y5330001D01*
X7400446Y5322347D01*
X7408100Y5319177D01*
X7543100D01*
X7550754Y5322347D01*
X7553924Y5330001D01*
Y5374356D01*
X7632699D01*
X7641556Y5376118D01*
X7649065Y5381135D01*
X7708806Y5440876D01*
X7725584D01*
X7730588Y5433388D01*
X7738990Y5427774D01*
X7748900Y5425802D01*
X7759700D01*
Y5473700D01*
Y5521598D01*
X7756690D01*
X7751429Y5534298D01*
X7781987Y5564855D01*
X8272885D01*
X8281304Y5544528D01*
X8295122Y5526522D01*
X8313128Y5512704D01*
X8334097Y5504019D01*
X8356600Y5501056D01*
X8379103Y5504019D01*
X8400072Y5512704D01*
X8418078Y5526522D01*
X8431896Y5544528D01*
X8440581Y5565497D01*
X8443544Y5588000D01*
X8440581Y5610503D01*
X8431896Y5631472D01*
X8418078Y5649478D01*
X8400072Y5663296D01*
X8379103Y5671981D01*
X8356600Y5674944D01*
D02*
G37*
G36*
X9779000Y5687724D02*
X9626600D01*
X9618946Y5684554D01*
X9615776Y5676900D01*
Y5524500D01*
X9618946Y5516846D01*
X9626600Y5513676D01*
X9779000D01*
X9786654Y5516846D01*
X9789824Y5524500D01*
Y5676900D01*
X9786654Y5684554D01*
X9779000Y5687724D01*
D02*
G37*
G36*
X15538300Y5521598D02*
X15527499D01*
Y5486400D01*
X15564197D01*
Y5495700D01*
X15562225Y5505611D01*
X15556612Y5514012D01*
X15548210Y5519626D01*
X15538300Y5521598D01*
D02*
G37*
G36*
X14960600Y5662324D02*
X14808200D01*
X14800546Y5659154D01*
X14797375Y5651500D01*
Y5499100D01*
X14800546Y5491446D01*
X14808200Y5488276D01*
X14960600D01*
X14968254Y5491446D01*
X14971423Y5499100D01*
Y5651500D01*
X14968254Y5659154D01*
X14960600Y5662324D01*
D02*
G37*
G36*
X16103600Y5662244D02*
X16081097Y5659281D01*
X16060127Y5650596D01*
X16042122Y5636778D01*
X16028304Y5618772D01*
X16019885Y5598445D01*
X15506700D01*
X15497842Y5596683D01*
X15490334Y5591666D01*
X15431435Y5532766D01*
X15426418Y5525257D01*
X15424655Y5516400D01*
Y5506524D01*
X15424300D01*
X15416646Y5503354D01*
X15413477Y5495700D01*
Y5451700D01*
X15416646Y5444047D01*
X15417023Y5442155D01*
X15382812Y5407945D01*
X15309624D01*
Y5452300D01*
X15306454Y5459954D01*
X15298801Y5463124D01*
X15163800D01*
X15156146Y5459954D01*
X15152975Y5452300D01*
Y5317301D01*
X15156146Y5309647D01*
X15163800Y5306477D01*
X15298801D01*
X15306454Y5309647D01*
X15309624Y5317301D01*
Y5361656D01*
X15392400D01*
X15401257Y5363418D01*
X15408765Y5368435D01*
X15464166Y5423835D01*
X15464783Y5424759D01*
X15470651Y5430930D01*
X15481058Y5427996D01*
X15481390Y5427774D01*
X15491299Y5425802D01*
X15502100D01*
Y5473700D01*
Y5525435D01*
X15498428Y5534298D01*
X15516287Y5552155D01*
X16019885D01*
X16028304Y5531828D01*
X16042122Y5513822D01*
X16060127Y5500004D01*
X16081097Y5491319D01*
X16103600Y5488356D01*
X16126103Y5491319D01*
X16147072Y5500004D01*
X16165079Y5513822D01*
X16178896Y5531828D01*
X16187581Y5552797D01*
X16190544Y5575300D01*
X16187581Y5597803D01*
X16178896Y5618772D01*
X16165079Y5636778D01*
X16147072Y5650596D01*
X16126103Y5659281D01*
X16103600Y5662244D01*
D02*
G37*
%LPD*%
D10*
X10503200Y7442200D02*
D03*
X10363200D02*
D03*
X11468400Y7200900D02*
D03*
X11328400D02*
D03*
X11481100Y6743700D02*
D03*
X11341100D02*
D03*
D11*
X10922000Y6718600D02*
D03*
Y6578600D02*
D03*
X10566400Y6718600D02*
D03*
Y6578600D02*
D03*
D12*
X9424400Y7099300D02*
D03*
X10184400D02*
D03*
D13*
X9804400Y7479300D02*
D03*
Y6719300D02*
D03*
D14*
X10744200Y6718300D02*
D03*
Y6558300D02*
D03*
X11087100Y6731000D02*
D03*
Y6571000D02*
D03*
D15*
X6121400Y6464300D02*
D03*
X6006900Y6693300D02*
D03*
X6235900D02*
D03*
X5613400Y6464100D02*
D03*
X5498900Y6693100D02*
D03*
X5727900D02*
D03*
X5105400Y6464300D02*
D03*
X4990900Y6693300D02*
D03*
X5219900D02*
D03*
X4597400Y6464300D02*
D03*
X4482900Y6693300D02*
D03*
X4711900D02*
D03*
X4076700Y6464100D02*
D03*
X3962200Y6693100D02*
D03*
X4191200D02*
D03*
D16*
X5308600Y4045300D02*
D03*
X5213600D02*
D03*
X5118600D02*
D03*
Y4305300D02*
D03*
X5213600D02*
D03*
X5308600D02*
D03*
X7835400Y4051300D02*
D03*
X7740400D02*
D03*
X7645400D02*
D03*
Y4311300D02*
D03*
X7740400D02*
D03*
X7835400D02*
D03*
X10388600Y4076700D02*
D03*
X10293600D02*
D03*
X10198600D02*
D03*
Y4336700D02*
D03*
X10293600D02*
D03*
X10388600D02*
D03*
X12979401Y4064000D02*
D03*
X12884399D02*
D03*
X12789400D02*
D03*
Y4324000D02*
D03*
X12884399D02*
D03*
X12979401D02*
D03*
X15570200Y4064000D02*
D03*
X15475200D02*
D03*
X15380200D02*
D03*
Y4324000D02*
D03*
X15475200D02*
D03*
X15570200D02*
D03*
D17*
X8661400Y7058800D02*
D03*
Y6908800D02*
D03*
X11874500Y6563500D02*
D03*
Y6413500D02*
D03*
D18*
X10820400Y7048500D02*
D03*
D19*
X11041600Y7148500D02*
D03*
Y7098500D02*
D03*
Y7048500D02*
D03*
Y6998500D02*
D03*
Y6948500D02*
D03*
X10599200D02*
D03*
Y6998500D02*
D03*
Y7048500D02*
D03*
Y7098500D02*
D03*
Y7148500D02*
D03*
D20*
X11480800Y6985000D02*
D03*
X11320800D02*
D03*
D21*
X5245100Y5435600D02*
D03*
X5178100D02*
D03*
X15514799Y5473700D02*
D03*
X15447800D02*
D03*
X7772400D02*
D03*
X7705400D02*
D03*
X10333200D02*
D03*
X10266200D02*
D03*
X12915900Y5486400D02*
D03*
X12848900D02*
D03*
D22*
X14884399Y4305300D02*
Y4559300D01*
X12293600Y4330700D02*
Y4584700D01*
X9702800Y4330700D02*
Y4584700D01*
X7137400Y4318000D02*
Y4572000D01*
X4597400Y4292600D02*
Y4546600D01*
X10185200Y7098500D02*
X10599200D01*
X10184400Y7099300D02*
X10185200Y7098500D01*
X10503200Y7391100D02*
Y7442200D01*
Y7391100D02*
X10599200Y7295100D01*
Y7151600D02*
Y7295100D01*
X10236200Y7442200D02*
X10363200D01*
X10184400Y7390400D02*
X10236200Y7442200D01*
X10184400Y7099300D02*
Y7390400D01*
X10491000Y6998500D02*
X10599200D01*
X10452100Y6959600D02*
X10491000Y6998500D01*
X10452100Y6883400D02*
Y6959600D01*
Y6883400D02*
X10490200Y6845300D01*
X10452100Y7048500D02*
X10599200D01*
X10388600Y6985000D02*
X10452100Y7048500D01*
X10388600Y6858000D02*
Y6985000D01*
Y6858000D02*
X10528000Y6718600D01*
X10566400D01*
X9424400Y6704600D02*
Y7099300D01*
Y6704600D02*
X9588500Y6540500D01*
X10337800D01*
X10452100Y6426200D01*
X10858500D01*
X10922000Y6489700D01*
Y6578600D01*
Y6489700D02*
X10972800Y6438900D01*
X10490200Y6845300D02*
X10693400D01*
X10744200Y6794500D01*
Y6718300D02*
Y6794500D01*
X11874500Y6671500D02*
X12086400Y6883400D01*
X11874500Y6563500D02*
Y6671500D01*
X3962200Y6693100D02*
X3962400Y6693300D01*
Y7150100D01*
X4191200Y6693100D02*
X4216400Y6718300D01*
Y7150100D01*
X4470400Y6705800D02*
X4482900Y6693300D01*
X4470400Y6705800D02*
Y7150100D01*
X4711900Y6693300D02*
X4724400Y6705800D01*
Y7150100D01*
X4978400Y6705800D02*
X4990900Y6693300D01*
X4978400Y6705800D02*
Y7150100D01*
X5219900Y6693300D02*
X5232400Y6705800D01*
Y7150100D01*
X5486400Y6705600D02*
X5498900Y6693100D01*
X5486400Y6705600D02*
Y7150100D01*
X5727900Y6693100D02*
X5740400Y6705600D01*
Y7150100D01*
X5994400Y6705800D02*
X6006900Y6693300D01*
X5994400Y6705800D02*
Y7150100D01*
X6235900Y6693300D02*
X6248400Y6705800D01*
Y7150100D01*
X11041600Y7098500D02*
X11162500D01*
X11201400Y7137400D01*
Y7162800D01*
X11239500Y7200900D01*
X11328400D01*
X11214100Y6985000D02*
X11320800D01*
X11174500Y6945400D02*
X11214100Y6985000D01*
X11320800Y6852900D02*
Y6985000D01*
Y6852900D02*
X11341100Y6832600D01*
Y6743700D02*
Y6832600D01*
X11226800Y6743700D02*
X11341100D01*
X11214100Y6731000D02*
X11226800Y6743700D01*
X11087100Y6731000D02*
X11214100D01*
X10972800Y6438900D02*
X11226800D01*
X11277600Y6489700D01*
Y6591300D01*
X11315700Y6629400D01*
X11417300D01*
X11481100Y6693200D01*
Y6743700D01*
X11480800Y6744000D02*
Y6985000D01*
Y6744000D02*
X11481100Y6743700D01*
X15570200Y4324000D02*
Y4660900D01*
X15722600Y4813300D01*
X16103600D01*
X15380200Y4324000D02*
Y4800100D01*
X15647400Y5067300D01*
X16103600D01*
X15570200Y4064000D02*
X15697200D01*
X15760699Y4127500D01*
Y4419600D01*
X15900400Y4559300D01*
X16103600D01*
X15380200Y3924800D02*
Y4064000D01*
Y3924800D02*
X15443201Y3861800D01*
X15759700D01*
X15887700Y3989799D01*
Y4178300D01*
X16014700Y4305300D01*
X16103600D01*
X15231300Y5384801D02*
X15392400D01*
X15447800Y5440201D01*
Y5473700D01*
Y5516400D01*
X15506700Y5575300D01*
X16103600D01*
X4957000Y5372101D02*
X5092699D01*
X5156199Y5435600D01*
X5178100D01*
Y5495600D01*
X5245100Y5562600D01*
X5816600D01*
X5118600Y4305300D02*
Y4800100D01*
X5360400Y5041900D01*
X5803900D01*
X5816600Y5054600D01*
X5308600Y4305300D02*
Y4648200D01*
X5461000Y4800600D01*
X5816600D01*
X5308600Y4045300D02*
X5467700D01*
X5537200Y4114800D01*
Y4419600D01*
X5664200Y4546600D01*
X5816600D01*
X5105400Y4032100D02*
X5118600Y4045300D01*
X5105400Y3911600D02*
Y4032100D01*
Y3911600D02*
X5168900Y3848100D01*
X5549900D01*
X5664200Y3962400D01*
Y4165600D01*
X5791200Y4292600D01*
X5816600D01*
X7475600Y5397501D02*
X7632699D01*
X7705400Y5470202D01*
Y5473700D01*
Y5521000D01*
X7772400Y5588000D01*
X8356600D01*
X7835400Y4311300D02*
Y4584200D01*
X8077200Y4826000D01*
X8356600D01*
X7645400Y4311300D02*
Y4737100D01*
X7988300Y5080000D01*
X8356600D01*
X7835400Y4051300D02*
X7975600D01*
X8051800Y4127500D01*
X8191500Y4572000D02*
X8356600D01*
X7645400Y3937000D02*
Y4051300D01*
Y3937000D02*
X7683500Y3898900D01*
X8077200D01*
X8166100Y3987800D01*
Y4127500D01*
X8356600Y4318000D01*
X10041000Y5397501D02*
X10190001D01*
X10266200Y5473700D01*
Y5529100D01*
X10337800Y5600700D01*
X10922000D01*
X10388600Y4336700D02*
Y4610100D01*
X10617200Y4838700D01*
X10922000D01*
X10198600Y4336700D02*
Y4826500D01*
X10464800Y5092700D01*
X10922000D01*
X10388600Y4076700D02*
X10515600D01*
X10629900Y4191000D01*
Y4483100D02*
X10731500Y4584700D01*
X10922000D01*
X10198100Y4076200D02*
X10198600Y4076700D01*
X10198100Y3975100D02*
Y4076200D01*
Y3975100D02*
X10236200Y3937000D01*
X10617200D01*
X10731500Y4051300D01*
Y4140200D01*
X10922000Y4330700D01*
X12640500Y5397501D02*
X12760000D01*
X12848900Y5486400D01*
Y5521000D01*
X12928600Y5600700D01*
X13512801D01*
X12979401Y4324000D02*
Y4660900D01*
X13157201Y4838700D01*
X13512801D01*
X12789400Y4324000D02*
Y4763000D01*
X13119099Y5092700D01*
X13512801D01*
X12979401Y4064000D02*
X13093700D01*
X13220700Y4191000D01*
Y4470400D02*
X13335001Y4584700D01*
X13512801D01*
X12789400Y3936500D02*
Y4064000D01*
Y3936500D02*
X12839700Y3886200D01*
X13182600D01*
X13360400Y4064000D01*
Y4178300D01*
X13512801Y4330700D01*
X8051800Y4127500D02*
Y4432300D01*
X3962200Y3962600D02*
X4140200Y3784600D01*
X4597400D01*
X4191200Y4178100D02*
X4330700Y4038600D01*
X4597400D01*
X4482900Y5854900D02*
X4597400Y5740400D01*
X5905500D01*
X6032500Y5613400D01*
Y3975100D02*
Y5613400D01*
Y3975100D02*
X6223000Y3784600D01*
X4711900Y5918000D02*
X4800600Y5829300D01*
X6019800D01*
X6146800Y5702300D01*
Y4152900D02*
Y5702300D01*
Y4152900D02*
X6261100Y4038600D01*
X4990900Y6020000D02*
X5105400Y5905500D01*
X8382000D01*
X8534400Y5753100D01*
X5219900Y6057700D02*
X5295900Y5981700D01*
X8483600D01*
X3962200Y3962600D02*
Y6693100D01*
X4191200Y4178100D02*
Y6693100D01*
X4482900Y5854900D02*
Y6693300D01*
X4711900Y5918000D02*
Y6693300D01*
X4990900Y6020000D02*
Y6693300D01*
X5219900Y6057700D02*
Y6693300D01*
X5498900Y6147000D02*
Y6693100D01*
Y6147000D02*
X5575300Y6070600D01*
X5727900Y6248200D02*
Y6693100D01*
Y6248200D02*
X5816600Y6159500D01*
X6006900Y6324400D02*
Y6693300D01*
Y6324400D02*
X6095600Y6235700D01*
X6235900Y6387900D02*
Y6693300D01*
Y6387900D02*
X6311900Y6311900D01*
X8534400Y3949700D02*
Y5753100D01*
Y3949700D02*
X8712200Y3771900D01*
X8483600Y5981700D02*
X8674100Y5791200D01*
Y4229100D02*
Y5791200D01*
Y4229100D02*
X8877300Y4025900D01*
X5575300Y6070600D02*
X10883900D01*
X11176000Y5778500D01*
Y3937000D02*
X11341100Y3771900D01*
X5816600Y6159500D02*
X11023600D01*
X11315700Y5867400D01*
Y4267200D02*
Y5867400D01*
Y4267200D02*
X11557000Y4025900D01*
X6095600Y6235700D02*
X13563600D01*
X13741400Y6057900D01*
Y4025900D02*
Y6057900D01*
Y4025900D02*
X13995399Y3771900D01*
X14871700D01*
X6311900Y6311900D02*
X13703300D01*
X13919200Y6096000D01*
Y4203700D02*
Y6096000D01*
Y4203700D02*
X14097000Y4025900D01*
X14871700D01*
X6261100Y4038600D02*
X7073900D01*
X6223000Y3784600D02*
X7073900D01*
X11557000Y4025900D02*
X12280900D01*
X11341100Y3771900D02*
X12280900D01*
X13220700Y4191000D02*
Y4470400D01*
X10629900Y4191000D02*
Y4483100D01*
X8051800Y4432300D02*
X8191500Y4572000D01*
X14376401Y6883400D02*
X14378700Y6885700D01*
X11366500Y7378700D02*
X11658600D01*
X11322050Y7334250D02*
X11366500Y7378700D01*
X11322050Y7207250D02*
Y7334250D01*
Y7207250D02*
X11328400Y7200900D01*
X11658600Y7378700D02*
X12086400Y6950900D01*
Y6883400D02*
Y6950900D01*
X8701900Y7099300D02*
X9424400D01*
X8661400Y7058800D02*
X8701900Y7099300D01*
X7797800Y7086600D02*
X8633600D01*
X8661400Y7058800D01*
X11176000Y3937000D02*
Y5778500D01*
X4064000Y3670300D02*
Y3695700D01*
Y3670300D02*
X4216400Y3517900D01*
X15633701D02*
X16103600Y3987800D01*
Y4051300D01*
X12953999Y3517900D02*
X13512801Y4076700D01*
X12953999Y3517900D02*
X15633701D01*
X10363200D02*
X10922000Y4076700D01*
X10363200Y3517900D02*
X12953999D01*
X7835900Y3543300D02*
X8356600Y4064000D01*
X7835900Y3517900D02*
Y3543300D01*
Y3517900D02*
X10363200D01*
X5816600Y4025900D02*
Y4038600D01*
X5308600Y3517900D02*
X5816600Y4025900D01*
X4216400Y3517900D02*
X5308600D01*
X7835900D01*
X8877300Y4025900D02*
X9702800D01*
X8712200Y3771900D02*
X9702800D01*
X11041600Y6945400D02*
X11174500D01*
D23*
X14376401Y6883400D02*
X15379700D01*
D24*
X16941800Y2984500D02*
D03*
Y6451600D02*
D03*
X3302000D02*
D03*
X3314700Y2984500D02*
D03*
D25*
X4330700Y3060700D02*
D03*
X4838700D02*
D03*
X5346700D02*
D03*
X5854700D02*
D03*
X6896100D02*
D03*
X7404100D02*
D03*
X7912100D02*
D03*
X8420100D02*
D03*
X9474200D02*
D03*
X9982200D02*
D03*
X10490200D02*
D03*
X10998200D02*
D03*
X12039600D02*
D03*
X12547600D02*
D03*
X13055600D02*
D03*
X13563600D02*
D03*
X14617700D02*
D03*
X15125700D02*
D03*
X15633701D02*
D03*
X16141701D02*
D03*
D26*
X7797800Y7086600D02*
D03*
X15379700Y6883400D02*
D03*
D27*
X7297800Y7086600D02*
D03*
X15879700Y6883400D02*
D03*
D28*
X3962400Y7150100D02*
D03*
D29*
X4216400D02*
D03*
X4724400D02*
D03*
X4978400D02*
D03*
X5232400D02*
D03*
X5486400D02*
D03*
X5740400D02*
D03*
X5994400D02*
D03*
X6248400D02*
D03*
X4470400D02*
D03*
D30*
X4957000Y5372101D02*
D03*
X15231300Y5384801D02*
D03*
X7475600Y5397501D02*
D03*
X10041000D02*
D03*
X12640500Y5397501D02*
D03*
D31*
X5457000Y5372099D02*
D03*
X15731300Y5384799D02*
D03*
X7975600Y5397500D02*
D03*
X10541000D02*
D03*
X13140500Y5397499D02*
D03*
D32*
X12293600Y5092700D02*
D03*
Y5346700D02*
D03*
Y4584700D02*
D03*
Y4076700D02*
D03*
Y4838700D02*
D03*
Y4330700D02*
D03*
Y3822700D02*
D03*
X13512801D02*
D03*
Y4330700D02*
D03*
Y4838700D02*
D03*
Y4076700D02*
D03*
Y4584700D02*
D03*
Y5600700D02*
D03*
Y5346700D02*
D03*
Y5092700D02*
D03*
X7137400Y5080000D02*
D03*
Y5334000D02*
D03*
Y4572000D02*
D03*
Y4064000D02*
D03*
Y4826000D02*
D03*
Y4318000D02*
D03*
Y3810000D02*
D03*
X8356600D02*
D03*
Y4318000D02*
D03*
Y4826000D02*
D03*
Y4064000D02*
D03*
Y4572000D02*
D03*
Y5588000D02*
D03*
Y5334000D02*
D03*
Y5080000D02*
D03*
X9702800Y5092700D02*
D03*
Y5346700D02*
D03*
Y4584700D02*
D03*
Y4076700D02*
D03*
Y4838700D02*
D03*
Y4330700D02*
D03*
Y3822700D02*
D03*
X10922000D02*
D03*
Y4330700D02*
D03*
Y4838700D02*
D03*
Y4076700D02*
D03*
Y4584700D02*
D03*
Y5600700D02*
D03*
Y5346700D02*
D03*
Y5092700D02*
D03*
X14884399Y5067300D02*
D03*
Y5321300D02*
D03*
Y4559300D02*
D03*
Y4051300D02*
D03*
Y4813300D02*
D03*
Y4305300D02*
D03*
Y3797300D02*
D03*
X16103600D02*
D03*
Y4305300D02*
D03*
Y4813300D02*
D03*
Y4051300D02*
D03*
Y4559300D02*
D03*
Y5575300D02*
D03*
Y5321300D02*
D03*
Y5067300D02*
D03*
X4597400Y5054600D02*
D03*
Y5308600D02*
D03*
Y4546600D02*
D03*
Y4038600D02*
D03*
Y4800600D02*
D03*
Y4292600D02*
D03*
Y3784600D02*
D03*
X5816600D02*
D03*
Y4292600D02*
D03*
Y4800600D02*
D03*
Y4038600D02*
D03*
Y4546600D02*
D03*
Y5562600D02*
D03*
Y5308600D02*
D03*
Y5054600D02*
D03*
D33*
X12293600Y5600700D02*
D03*
X7137400Y5588000D02*
D03*
X9702800Y5600700D02*
D03*
X14884399Y5575300D02*
D03*
X4597400Y5562600D02*
D03*
D34*
X12086400Y6883400D02*
D03*
X14376401D02*
D03*
D35*
X4064000Y3695700D02*
D03*
%TF.MD5,eb7b73004921c526b1b96791bb7082ee*%
M02*
