G04 Layer_Color=0*
%FSLAX45Y45*%
%MOMM*%
%TF.FileFunction,Plated,1,2,PTH,Drill*%
%TF.Part,Single*%
G01*
G75*
%TA.AperFunction,OtherDrill,Pad Free-5 (169.418mm,29.845mm)*%
%ADD68C,4.20000*%
%TA.AperFunction,OtherDrill,Pad Free-4 (169.418mm,64.516mm)*%
%ADD69C,4.20000*%
%TA.AperFunction,OtherDrill,Pad Free-3 (33.02mm,64.516mm)*%
%ADD70C,4.20000*%
%TA.AperFunction,OtherDrill,Pad Free-2 (33.147mm,29.845mm)*%
%ADD71C,4.20000*%
%TA.AperFunction,ComponentDrill*%
%ADD72C,1.86000*%
%ADD73C,1.20000*%
%ADD74C,0.90000*%
%ADD75C,0.80000*%
%ADD76C,0.76200*%
%ADD77C,2.00000*%
%TA.AperFunction,ViaDrill,NotFilled*%
%ADD78C,0.71120*%
D68*
X16941800Y2984500D02*
D03*
D69*
Y6451600D02*
D03*
D70*
X3302000D02*
D03*
D71*
X3314700Y2984500D02*
D03*
D72*
X4330700Y3060700D02*
D03*
X4838700D02*
D03*
X5346700D02*
D03*
X5854700D02*
D03*
X6896100D02*
D03*
X7404100D02*
D03*
X7912100D02*
D03*
X8420100D02*
D03*
X9474200D02*
D03*
X9982200D02*
D03*
X10490200D02*
D03*
X10998200D02*
D03*
X12039600D02*
D03*
X12547600D02*
D03*
X13055600D02*
D03*
X13563600D02*
D03*
X14617700D02*
D03*
X15125700D02*
D03*
X15633701D02*
D03*
X16141701D02*
D03*
D73*
X7797800Y7086600D02*
D03*
X7297800D02*
D03*
X15379700Y6883400D02*
D03*
X15879700D02*
D03*
D74*
X3962400Y7150100D02*
D03*
X4216400D02*
D03*
X4724400D02*
D03*
X4978400D02*
D03*
X5232400D02*
D03*
X5486400D02*
D03*
X5740400D02*
D03*
X5994400D02*
D03*
X6248400D02*
D03*
X4470400D02*
D03*
D75*
X4957000Y5372101D02*
D03*
X5457000Y5372099D02*
D03*
X15231300Y5384801D02*
D03*
X15731300Y5384799D02*
D03*
X7475600Y5397501D02*
D03*
X7975600Y5397500D02*
D03*
X10041000Y5397501D02*
D03*
X10541000Y5397500D02*
D03*
X12640500Y5397501D02*
D03*
X13140500Y5397499D02*
D03*
D76*
X12293600Y5092700D02*
D03*
Y5346700D02*
D03*
Y5600700D02*
D03*
Y4584700D02*
D03*
Y4076700D02*
D03*
Y4838700D02*
D03*
Y4330700D02*
D03*
Y3822700D02*
D03*
X13512801D02*
D03*
Y4330700D02*
D03*
Y4838700D02*
D03*
Y4076700D02*
D03*
Y4584700D02*
D03*
Y5600700D02*
D03*
Y5346700D02*
D03*
Y5092700D02*
D03*
X7137400Y5080000D02*
D03*
Y5334000D02*
D03*
Y5588000D02*
D03*
Y4572000D02*
D03*
Y4064000D02*
D03*
Y4826000D02*
D03*
Y4318000D02*
D03*
Y3810000D02*
D03*
X8356600D02*
D03*
Y4318000D02*
D03*
Y4826000D02*
D03*
Y4064000D02*
D03*
Y4572000D02*
D03*
Y5588000D02*
D03*
Y5334000D02*
D03*
Y5080000D02*
D03*
X9702800Y5092700D02*
D03*
Y5346700D02*
D03*
Y5600700D02*
D03*
Y4584700D02*
D03*
Y4076700D02*
D03*
Y4838700D02*
D03*
Y4330700D02*
D03*
Y3822700D02*
D03*
X10922000D02*
D03*
Y4330700D02*
D03*
Y4838700D02*
D03*
Y4076700D02*
D03*
Y4584700D02*
D03*
Y5600700D02*
D03*
Y5346700D02*
D03*
Y5092700D02*
D03*
X14884399Y5067300D02*
D03*
Y5321300D02*
D03*
Y5575300D02*
D03*
Y4559300D02*
D03*
Y4051300D02*
D03*
Y4813300D02*
D03*
Y4305300D02*
D03*
Y3797300D02*
D03*
X16103600D02*
D03*
Y4305300D02*
D03*
Y4813300D02*
D03*
Y4051300D02*
D03*
Y4559300D02*
D03*
Y5575300D02*
D03*
Y5321300D02*
D03*
Y5067300D02*
D03*
X4597400Y5054600D02*
D03*
Y5308600D02*
D03*
Y5562600D02*
D03*
Y4546600D02*
D03*
Y4038600D02*
D03*
Y4800600D02*
D03*
Y4292600D02*
D03*
Y3784600D02*
D03*
X5816600D02*
D03*
Y4292600D02*
D03*
Y4800600D02*
D03*
Y4038600D02*
D03*
Y4546600D02*
D03*
Y5562600D02*
D03*
Y5308600D02*
D03*
Y5054600D02*
D03*
D77*
X12086400Y6883400D02*
D03*
X14376401D02*
D03*
D78*
X4064000Y3695700D02*
D03*
%TF.MD5,64246b4c1a5fcca6b632f202e4b04035*%
M02*
